<?xml version="1.0" encoding="utf-8"?>
<!-- Generator: Adobe Illustrator 25.4.1, SVG Export Plug-In . SVG Version: 6.00 Build 0)  -->
<svg version="1.1" id="Layer_1" xmlns="http://www.w3.org/2000/svg" xmlns:xlink="http://www.w3.org/1999/xlink" x="0px" y="0px"
	 viewBox="0 0 50 50" style="enable-background:new 0 0 50 50;" xml:space="preserve">
<style type="text/css">
	.st0{fill:none;stroke:#FFFFFF;stroke-width:3.6961;stroke-miterlimit:10;}
	.st1{fill:#FFFFFF;}
</style>
<g>
	<circle class="st0" cx="25" cy="25" r="22.5"/>
	<path class="st1" d="M25,49.3C11.6,49.3,0.7,38.4,0.7,25S11.6,0.7,25,0.7S49.3,11.6,49.3,25S38.4,49.3,25,49.3z M25,4.4
		C13.6,4.4,4.4,13.6,4.4,25S13.6,45.6,25,45.6S45.6,36.4,45.6,25S36.4,4.4,25,4.4z"/>
	<path class="st1" d="M25,38.4c-7.4,0-13.4-6-13.4-13.4s6-13.4,13.4-13.4s13.4,6,13.4,13.4S32.4,38.4,25,38.4z M25,13.6
		c-6.3,0-11.4,5.1-11.4,11.4S18.7,36.4,25,36.4S36.4,31.3,36.4,25S31.3,13.6,25,13.6z"/>
</g>
</svg>
