<?xml version="1.0" encoding="utf-8"?>
<!-- Generator: Adobe Illustrator 25.4.1, SVG Export Plug-In . SVG Version: 6.00 Build 0)  -->
<svg version="1.1" id="Layer_1" xmlns="http://www.w3.org/2000/svg" xmlns:xlink="http://www.w3.org/1999/xlink" x="0px" y="0px"
	 viewBox="0 0 50 50" style="enable-background:new 0 0 50 50;" xml:space="preserve">
<style type="text/css">
	.st0{fill:#FFFFFF;}
</style>
<g>
	<path class="st0" d="M9.5,34c-5,0-9-4-9-9c0-5,4-9,9-9s9,4,9,9C18.5,30,14.4,34,9.5,34z M9.5,17.9c-3.9,0-7.1,3.2-7.1,7.1
		s3.2,7.1,7.1,7.1s7.1-3.2,7.1-7.1S13.4,17.9,9.5,17.9z"/>
	<path class="st0" d="M40.6,34c-5,0-9-4-9-9c0-5,4-9,9-9s9,4,9,9C49.6,30,45.5,34,40.6,34z M40.6,17.9c-3.9,0-7.1,3.2-7.1,7.1
		s3.2,7.1,7.1,7.1s7.1-3.2,7.1-7.1S44.5,17.9,40.6,17.9z"/>
	<path class="st0" d="M25,18.5c-5,0-9-4-9-9c0-5,4-9,9-9s9,4,9,9C34,14.4,30,18.5,25,18.5z M25,2.4c-3.9,0-7.1,3.2-7.1,7.1
		s3.2,7.1,7.1,7.1s7.1-3.2,7.1-7.1S28.9,2.4,25,2.4z"/>
	<path class="st0" d="M25,49.6c-5,0-9-4-9-9c0-5,4-9,9-9s9,4,9,9C34,45.5,30,49.6,25,49.6z M25,33.5c-3.9,0-7.1,3.2-7.1,7.1
		s3.2,7.1,7.1,7.1s7.1-3.2,7.1-7.1S28.9,33.5,25,33.5z"/>
</g>
</svg>
