<?xml version="1.0" encoding="utf-8"?>
<!-- Generator: Adobe Illustrator 25.4.1, SVG Export Plug-In . SVG Version: 6.00 Build 0)  -->
<svg version="1.1" id="Layer_1" xmlns="http://www.w3.org/2000/svg" xmlns:xlink="http://www.w3.org/1999/xlink" x="0px" y="0px"
	 viewBox="0 0 50 50" style="enable-background:new 0 0 50 50;" xml:space="preserve">
<style type="text/css">
	.st0{fill:#FFFFFF;}
</style>
<g>
	<path class="st0" d="M48.5,13.9H1.5V1.5h47.1V13.9z M2.3,13.1h45.3V2.4H2.3V13.1z"/>
	
		<rect x="7.7" y="-3.8" transform="matrix(-1.836970e-16 1 -1 -1.836970e-16 21.1696 -5.7326)" class="st0" width="11.6" height="23.1"/>
	<path class="st0" d="M48.5,48.5H1.5V36.1h47.1V48.5z M2.3,47.6h45.3V36.9H2.3V47.6z"/>
	
		<rect x="2.7" y="35.7" transform="matrix(-1.836970e-16 1 -1 -1.836970e-16 50.7283 33.8351)" class="st0" width="11.6" height="13.1"/>
	<path class="st0" d="M48.5,31.2H1.5V18.8h47.1V31.2z M2.3,30.4h45.3V19.6H2.3V30.4z"/>
	
		<rect x="15.6" y="5.5" transform="matrix(-1.836970e-16 1 -1 -1.836970e-16 46.4387 3.5614)" class="st0" width="11.6" height="39.1"/>
	<path class="st0" d="M48.5,13.9H1.5V1.5h47.1V13.9z M2.3,13.1h45.3V2.4H2.3V13.1z"/>
	
		<rect x="7.7" y="-3.8" transform="matrix(-1.836970e-16 1 -1 -1.836970e-16 21.1696 -5.7326)" class="st0" width="11.6" height="23.1"/>
	<path class="st0" d="M48.5,48.5H1.5V36.1h47.1V48.5z M2.3,47.6h45.3V36.9H2.3V47.6z"/>
	
		<rect x="2.7" y="35.7" transform="matrix(-1.836970e-16 1 -1 -1.836970e-16 50.7283 33.8351)" class="st0" width="11.6" height="13.1"/>
	<path class="st0" d="M48.5,31.2H1.5V18.8h47.1V31.2z M2.3,30.4h45.3V19.6H2.3V30.4z"/>
	
		<rect x="15.6" y="5.5" transform="matrix(-1.836970e-16 1 -1 -1.836970e-16 46.4387 3.5614)" class="st0" width="11.6" height="39.1"/>
</g>
</svg>
