<?xml version="1.0" encoding="utf-8"?>
<!-- Generator: Adobe Illustrator 25.4.1, SVG Export Plug-In . SVG Version: 6.00 Build 0)  -->
<svg version="1.1" id="Layer_1" xmlns="http://www.w3.org/2000/svg" xmlns:xlink="http://www.w3.org/1999/xlink" x="0px" y="0px"
	 viewBox="0 0 50 50" style="enable-background:new 0 0 50 50;" xml:space="preserve">
<style type="text/css">
	.st0{fill:#FFFFFF;}
</style>
<g>
	<path class="st0" d="M42.3,21.2H7.7c-3.4,0-6.2-2.8-6.2-6.2s2.8-6.2,6.2-6.2h34.6c3.4,0,6.2,2.8,6.2,6.2S45.7,21.2,42.3,21.2z
		 M7.7,9.6c-3,0-5.4,2.4-5.4,5.4s2.4,5.4,5.4,5.4h34.6c3,0,5.4-2.4,5.4-5.4s-2.4-5.4-5.4-5.4H7.7z"/>
	<circle class="st0" cx="17.8" cy="15" r="5.8"/>
	<path class="st0" d="M42.3,41.2H7.7c-3.4,0-6.2-2.8-6.2-6.2s2.8-6.2,6.2-6.2h34.6c3.4,0,6.2,2.8,6.2,6.2S45.7,41.2,42.3,41.2z
		 M7.7,29.6c-3,0-5.4,2.4-5.4,5.4s2.4,5.4,5.4,5.4h34.6c3,0,5.4-2.4,5.4-5.4s-2.4-5.4-5.4-5.4H7.7z"/>
	<circle class="st0" cx="28.6" cy="35" r="5.8"/>
</g>
</svg>
