<?xml version="1.0" encoding="utf-8"?>
<!-- Generator: Adobe Illustrator 25.4.1, SVG Export Plug-In . SVG Version: 6.00 Build 0)  -->
<svg version="1.1" id="Layer_1" xmlns="http://www.w3.org/2000/svg" xmlns:xlink="http://www.w3.org/1999/xlink" x="0px" y="0px"
	 viewBox="0 0 50 50" style="enable-background:new 0 0 50 50;" xml:space="preserve">
<style type="text/css">
	.st0{fill:#FFFFFF;}
</style>
<path class="st0" d="M43.4,2.8H6.6c-2.1,0-3.7,1.7-3.7,3.7v36.9c0,2.1,1.7,3.7,3.7,3.7h36.8c2.1,0,3.7-1.7,3.7-3.7V6.6
	C47.1,4.5,45.5,2.8,43.4,2.8z M29.6,26l8.1,8.1c0.6,0.6,0.6,1.5,0,2l-1.5,1.5c-0.6,0.6-1.5,0.6-2,0L26,29.5c-0.6-0.6-1.5-0.6-2,0
	l-8.1,8.1c-0.6,0.6-1.5,0.6-2,0l-1.5-1.5c-0.6-0.6-0.6-1.5,0-2l8.1-8.1c0.6-0.6,0.6-1.5,0-2l-8.1-8.1c-0.6-0.6-0.6-1.5,0-2l1.5-1.5
	c0.6-0.6,1.5-0.6,2,0l8.1,8.1c0.6,0.6,1.5,0.6,2,0l8.1-8.1c0.6-0.6,1.5-0.6,2,0l1.5,1.5c0.6,0.6,0.6,1.5,0,2L29.6,24
	C29,24.5,29,25.5,29.6,26z"/>
</svg>
