<?xml version="1.0" encoding="utf-8"?>
<!-- Generator: Adobe Illustrator 25.4.1, SVG Export Plug-In . SVG Version: 6.00 Build 0)  -->
<svg version="1.1" id="Layer_1" xmlns="http://www.w3.org/2000/svg" xmlns:xlink="http://www.w3.org/1999/xlink" x="0px" y="0px"
	 viewBox="0 0 50 50" style="enable-background:new 0 0 50 50;" xml:space="preserve">
<style type="text/css">
	.st0{fill:none;}
	.st1{fill:#FFFFFF;}
</style>
<g>
	<path class="st0" d="M33.5,33.5c2.2-2.2,3.5-5.2,3.5-8.5H25L33.5,33.5z"/>
	<path class="st0" d="M13,25c0,6.6,5.4,12,12,12c3.3,0,6.3-1.3,8.5-3.5L25,25H13z"/>
	<path class="st0" d="M16.5,16.5C14.4,18.7,13,21.7,13,25h12L16.5,16.5z"/>
	<path class="st0" d="M25,13c-3.3,0-6.3,1.3-8.5,3.5L25,25h12C37,18.4,31.6,13,25,13z"/>
	<path class="st1" d="M25,37c-6.6,0-12-5.4-12-12H1c0,13.2,10.7,24,24,24c6.6,0,12.6-2.7,17-7l-8.5-8.5C31.3,35.6,28.3,37,25,37z"/>
	<path class="st1" d="M16.5,16.5L8,8c-4.3,4.3-7,10.3-7,17h12C13,21.7,14.4,18.7,16.5,16.5z"/>
	<path class="st1" d="M25,13c6.6,0,12,5.4,12,12h12C49,11.8,38.2,1,25,1C18.4,1,12.4,3.7,8,8l8.5,8.5C18.7,14.4,21.7,13,25,13z"/>
</g>
</svg>
