<?xml version="1.0" encoding="utf-8"?>
<!-- Generator: Adobe Illustrator 25.4.1, SVG Export Plug-In . SVG Version: 6.00 Build 0)  -->
<svg version="1.1" id="Layer_1" xmlns="http://www.w3.org/2000/svg" xmlns:xlink="http://www.w3.org/1999/xlink" x="0px" y="0px"
	 viewBox="0 0 50 50" style="enable-background:new 0 0 50 50;" xml:space="preserve">
<style type="text/css">
	.st0{fill:#FFFFFF;}
</style>
<g>
	<path class="st0" d="M25,48.7c-4.6,0-9-1.3-12.8-3.8l1.6-2.5c3.3,2.1,7.2,3.3,11.2,3.3c11.4,0,20.7-9.3,20.7-20.7l3-0.1V25
		C48.7,38,38,48.7,25,48.7z M1.3,25L1.3,25C1.3,12,12,1.3,25,1.3c4.5,0,9,1.3,12.8,3.7l-1.6,2.5C32.8,5.5,29,4.3,25,4.3
		C13.6,4.3,4.3,13.6,4.3,25L1.3,25z"/>
	<path class="st0" d="M25,40.8c-4.2,0-8.2-1.6-11.2-4.6c-2.2-2.2-3.6-4.9-4.3-7.8l2-0.4c0.6,2.6,1.8,5,3.7,6.8c2.6,2.6,6.1,4,9.8,4
		s7.1-1.4,9.8-4l1.4,1.4l0,0C33.2,39.1,29.2,40.8,25,40.8z M38.5,22.1c-0.6-2.6-1.8-4.9-3.7-6.8c-2.6-2.6-6.1-4-9.8-4
		s-7.1,1.4-9.8,4l-1.4-1.4c3-3,7-4.6,11.2-4.6s8.2,1.6,11.2,4.6c2.2,2.1,3.6,4.8,4.3,7.8L38.5,22.1z"/>
	<path class="st0" d="M26.9,33.7l-0.2-1c1.5-0.3,2.8-1.1,3.9-2.1c1.5-1.5,2.3-3.5,2.3-5.6s-0.8-4.1-2.3-5.6l0.7-0.7l0.1,0.1
		c1.7,1.7,2.6,3.9,2.6,6.3s-0.9,4.6-2.6,6.3C30.1,32.5,28.6,33.3,26.9,33.7z M18.7,31.3l0.4-0.3L18.7,31.3c-1.7-1.7-2.6-3.9-2.6-6.3
		c0-2.4,0.9-4.6,2.6-6.3c1.2-1.2,2.7-2,4.4-2.4l0.2,1c-1.5,0.3-2.8,1.1-3.9,2.1c-1.5,1.5-2.3,3.5-2.3,5.6c0,2.1,0.8,4.1,2.3,5.6
		L19.1,31L18.7,31.3z"/>
</g>
</svg>
