<?xml version="1.0" encoding="utf-8"?>
<!-- Generator: Adobe Illustrator 25.4.1, SVG Export Plug-In . SVG Version: 6.00 Build 0)  -->
<svg version="1.1" id="Layer_1" xmlns="http://www.w3.org/2000/svg" xmlns:xlink="http://www.w3.org/1999/xlink" x="0px" y="0px"
	 viewBox="0 0 50 50" style="enable-background:new 0 0 50 50;" xml:space="preserve">
<style type="text/css">
	.st0{fill:#FFFFFF;}
</style>
<g>
	<circle class="st0" cx="25" cy="28.2" r="14.2"/>
	<path class="st0" d="M25,9.6c-1.6,0-2.9-1.3-2.9-2.9s1.3-2.9,2.9-2.9s2.9,1.3,2.9,2.9S26.6,9.6,25,9.6z M25,4.2
		c-1.3,0-2.4,1.1-2.4,2.4s1.1,2.4,2.4,2.4s2.4-1.1,2.4-2.4S26.3,4.2,25,4.2z"/>
	<path class="st0" d="M9.8,15.9c-0.8,0-1.5-0.3-2.1-0.9c-0.6-0.6-0.9-1.3-0.9-2.1s0.3-1.5,0.9-2.1c1.1-1.1,3-1.1,4.2,0
		c0.6,0.6,0.9,1.3,0.9,2.1s-0.3,1.5-0.9,2.1C11.3,15.6,10.6,15.9,9.8,15.9z M9.8,10.5c-0.6,0-1.2,0.2-1.7,0.7
		c-0.5,0.5-0.7,1.1-0.7,1.7s0.3,1.3,0.7,1.7c0.9,0.9,2.5,0.9,3.4,0c0.5-0.5,0.7-1.1,0.7-1.7s-0.3-1.3-0.7-1.7
		C11,10.7,10.4,10.5,9.8,10.5z"/>
	<path class="st0" d="M40.2,46.3c-0.8,0-1.5-0.3-2.1-0.9c-1.1-1.1-1.1-3,0-4.2c1.1-1.1,3-1.1,4.2,0l0,0c1.1,1.1,1.1,3,0,4.2
		C41.7,46,41,46.3,40.2,46.3z M40.2,40.9c-0.6,0-1.2,0.2-1.7,0.7c-0.9,0.9-0.9,2.5,0,3.4c0.9,0.9,2.5,0.9,3.4,0s0.9-2.5,0-3.4
		C41.5,41.2,40.8,40.9,40.2,40.9z"/>
	<path class="st0" d="M3.5,31.1c-1.6,0-2.9-1.3-2.9-2.9s1.3-2.9,2.9-2.9s2.9,1.3,2.9,2.9S5.1,31.1,3.5,31.1z M3.5,25.7
		c-1.3,0-2.4,1.1-2.4,2.4s1.1,2.4,2.4,2.4s2.4-1.1,2.4-2.4S4.8,25.7,3.5,25.7z"/>
	<path class="st0" d="M46.5,31.1c-1.6,0-2.9-1.3-2.9-2.9s1.3-2.9,2.9-2.9s2.9,1.3,2.9,2.9S48.1,31.1,46.5,31.1z M46.5,25.7
		c-1.3,0-2.4,1.1-2.4,2.4s1.1,2.4,2.4,2.4s2.4-1.1,2.4-2.4S47.8,25.7,46.5,25.7z"/>
	<path class="st0" d="M9.8,46.3c-0.8,0-1.5-0.3-2.1-0.9c-1.1-1.1-1.1-3,0-4.2s3-1.1,4.2,0s1.1,3,0,4.2C11.3,46,10.5,46.3,9.8,46.3z
		 M9.8,40.9c-0.6,0-1.2,0.2-1.7,0.7c-0.9,0.9-0.9,2.5,0,3.4c0.9,0.9,2.5,0.9,3.4,0c0.9-0.9,0.9-2.5,0-3.4
		C11,41.2,10.4,40.9,9.8,40.9z"/>
	<path class="st0" d="M40.2,15.9c-0.8,0-1.5-0.3-2.1-0.9c-1.1-1.1-1.1-3,0-4.2l0,0c1.1-1.1,3-1.1,4.2,0c1.1,1.1,1.1,3,0,4.2
		C41.7,15.6,41,15.9,40.2,15.9z M38.5,11.2c-0.9,0.9-0.9,2.5,0,3.4s2.5,1,3.4,0c0.9-0.9,0.9-2.5,0-3.4C41,10.3,39.4,10.3,38.5,11.2
		L38.5,11.2z"/>
	<circle class="st0" cx="25" cy="28.2" r="14.2"/>
	<path class="st0" d="M25,9.6c-1.6,0-2.9-1.3-2.9-2.9s1.3-2.9,2.9-2.9s2.9,1.3,2.9,2.9S26.6,9.6,25,9.6z M25,4.2
		c-1.3,0-2.4,1.1-2.4,2.4s1.1,2.4,2.4,2.4s2.4-1.1,2.4-2.4S26.3,4.2,25,4.2z"/>
	<path class="st0" d="M9.8,15.9c-0.8,0-1.5-0.3-2.1-0.9c-0.6-0.6-0.9-1.3-0.9-2.1s0.3-1.5,0.9-2.1c1.1-1.1,3-1.1,4.2,0
		c0.6,0.6,0.9,1.3,0.9,2.1s-0.3,1.5-0.9,2.1C11.3,15.6,10.6,15.9,9.8,15.9z M9.8,10.5c-0.6,0-1.2,0.2-1.7,0.7
		c-0.5,0.5-0.7,1.1-0.7,1.7s0.3,1.3,0.7,1.7c0.9,0.9,2.5,0.9,3.4,0c0.5-0.5,0.7-1.1,0.7-1.7s-0.3-1.3-0.7-1.7
		C11,10.7,10.4,10.5,9.8,10.5z"/>
	<path class="st0" d="M40.2,46.3c-0.8,0-1.5-0.3-2.1-0.9c-1.1-1.1-1.1-3,0-4.2c1.1-1.1,3-1.1,4.2,0l0,0c1.1,1.1,1.1,3,0,4.2
		C41.7,46,41,46.3,40.2,46.3z M40.2,40.9c-0.6,0-1.2,0.2-1.7,0.7c-0.9,0.9-0.9,2.5,0,3.4c0.9,0.9,2.5,0.9,3.4,0s0.9-2.5,0-3.4
		C41.5,41.2,40.8,40.9,40.2,40.9z"/>
	<path class="st0" d="M3.5,31.1c-1.6,0-2.9-1.3-2.9-2.9s1.3-2.9,2.9-2.9s2.9,1.3,2.9,2.9S5.1,31.1,3.5,31.1z M3.5,25.7
		c-1.3,0-2.4,1.1-2.4,2.4s1.1,2.4,2.4,2.4s2.4-1.1,2.4-2.4S4.8,25.7,3.5,25.7z"/>
	<path class="st0" d="M9.8,46.3c-0.8,0-1.5-0.3-2.1-0.9c-1.1-1.1-1.1-3,0-4.2s3-1.1,4.2,0s1.1,3,0,4.2C11.3,46,10.5,46.3,9.8,46.3z
		 M9.8,40.9c-0.6,0-1.2,0.2-1.7,0.7c-0.9,0.9-0.9,2.5,0,3.4c0.9,0.9,2.5,0.9,3.4,0c0.9-0.9,0.9-2.5,0-3.4
		C11,41.2,10.4,40.9,9.8,40.9z"/>
	<path class="st0" d="M40.2,15.9c-0.8,0-1.5-0.3-2.1-0.9c-1.1-1.1-1.1-3,0-4.2l0,0c1.1-1.1,3-1.1,4.2,0c1.1,1.1,1.1,3,0,4.2
		C41.7,15.6,41,15.9,40.2,15.9z M38.5,11.2c-0.9,0.9-0.9,2.5,0,3.4s2.5,1,3.4,0c0.9-0.9,0.9-2.5,0-3.4C41,10.3,39.4,10.3,38.5,11.2
		L38.5,11.2z"/>
</g>
</svg>
