<?xml version="1.0" encoding="utf-8"?>
<!-- Generator: Adobe Illustrator 25.4.1, SVG Export Plug-In . SVG Version: 6.00 Build 0)  -->
<svg version="1.1" id="Layer_1" xmlns="http://www.w3.org/2000/svg" xmlns:xlink="http://www.w3.org/1999/xlink" x="0px" y="0px"
	 viewBox="0 0 50 50" style="enable-background:new 0 0 50 50;" xml:space="preserve">
<style type="text/css">
	.st0{fill:#FFFFFF;}
</style>
<g>
	<path class="st0" d="M38.3,47.8H11.7c-5.2,0-9.5-4.2-9.5-9.5V11.7c0-5.2,4.2-9.5,9.5-9.5h26.6c5.2,0,9.5,4.2,9.5,9.5v26.6
		C47.8,43.5,43.5,47.8,38.3,47.8z M11.7,4.9c-3.8,0-6.8,3.1-6.8,6.8v26.6c0,3.8,3.1,6.8,6.8,6.8h26.6c3.8,0,6.8-3.1,6.8-6.8V11.7
		c0-3.8-3.1-6.8-6.8-6.8H11.7z"/>
	<path class="st0" d="M35.4,37.2h-1c-0.8,0-1.4-0.6-1.4-1.4V29c0-0.3-0.2-0.5-0.5-0.5c-0.7-0.1-1.3-0.7-1.3-1.4V16.6
		c0-0.3-0.2-0.5-0.5-0.5h-1.9c-0.3,0-0.5,0.2-0.5,0.5v9.1c0,0.8-0.6,1.4-1.4,1.4H26c-0.3,0-0.5,0.2-0.5,0.5l-0.2,4.5
		c0,0.8-0.7,1.4-1.4,1.4h-5.6c-0.8,0-1.4-0.6-1.4-1.4V28c0-0.3-0.2-0.5-0.5-0.5h-3.3c-0.8,0-1.4-0.6-1.4-1.4v-4.7
		c0-0.3-0.2-0.5-0.5-0.5h-0.6c-0.3,0-0.5,0.2-0.5,0.5V24c0,0.8-0.6,1.4-1.4,1.4H3.6v-0.9h4.8c0.3,0,0.5-0.2,0.5-0.5v-2.7
		c0-0.8,0.6-1.4,1.4-1.4h0.6c0.8,0,1.4,0.6,1.4,1.4V26c0,0.3,0.2,0.5,0.5,0.5h3.3c0.8,0,1.4,0.6,1.4,1.4v4.1c0,0.3,0.2,0.5,0.5,0.5
		h5.6c0.3,0,0.5-0.2,0.5-0.5l0.2-4.5c0-0.8,0.7-1.4,1.4-1.4h0.8c0.3,0,0.5-0.2,0.5-0.5v-9.1c0-0.8,0.6-1.4,1.4-1.4h1.9
		c0.8,0,1.4,0.6,1.4,1.4v10.5c0,0.3,0.2,0.5,0.5,0.5c0.7,0.1,1.3,0.7,1.3,1.4v6.7c0,0.3,0.2,0.5,0.5,0.5h1c0.3,0,0.5-0.2,0.5-0.5
		v-4.1c0-0.8,0.6-1.4,1.4-1.4h0.8c0.3,0,0.5-0.2,0.5-0.5v-7.8c0-0.8,0.6-1.4,1.4-1.4h1.3c0.8,0,1.4,0.6,1.4,1.4V24
		c0,0.3,0.2,0.5,0.5,0.5h2.5v0.9h-2.5c-0.8,0-1.4-0.6-1.4-1.4v-2.1c0-0.3-0.2-0.5-0.5-0.5h-1.3c-0.3,0-0.5,0.2-0.5,0.5v7.8
		c0,0.8-0.6,1.4-1.4,1.4h-0.8c-0.3,0-0.5,0.2-0.5,0.5v4.1C36.8,36.6,36.2,37.2,35.4,37.2z"/>
</g>
</svg>
