<?xml version="1.0" encoding="utf-8"?>
<!-- Generator: Adobe Illustrator 25.4.1, SVG Export Plug-In . SVG Version: 6.00 Build 0)  -->
<svg version="1.1" id="Layer_1" xmlns="http://www.w3.org/2000/svg" xmlns:xlink="http://www.w3.org/1999/xlink" x="0px" y="0px"
	 viewBox="0 0 50 50" style="enable-background:new 0 0 50 50;" xml:space="preserve">
<style type="text/css">
	.st0{fill:none;stroke:#FFFFFF;stroke-width:1.0164;stroke-miterlimit:10;}
	.st1{fill:none;}
	.st2{fill:#FFFFFF;}
</style>
<g>
	<circle class="st0" cx="25" cy="28.1" r="7.3"/>
	<path class="st1" d="M44.2,28.1C44.2,17.5,35.6,9,25,9S5.8,17.5,5.8,28.1c0,5.3,2.2,10.1,5.6,13.6l2.5-2.5h21.3l2.9,2.9
		C41.8,38.5,44.2,33.6,44.2,28.1z"/>
	<path class="st2" d="M5.8,28.1C5.8,17.5,14.4,9,25,9s19.2,8.6,19.2,19.2c0,5.5-2.3,10.4-6,13.9l3.2,3.2c4.5-4.3,7.3-10.4,7.3-17.1
		C48.7,15,38.1,4.4,25,4.4S1.3,15,1.3,28.1c0,6.5,2.7,12.5,7,16.8l3.2-3.2C8,38.2,5.8,33.4,5.8,28.1z"/>
	<rect x="5.8" y="38" transform="matrix(0.7071 -0.7071 0.7071 0.7071 -23.4584 21.4093)" class="st2" width="16.6" height="2"/>
</g>
</svg>
