<?xml version="1.0" encoding="utf-8"?>
<!-- Generator: Adobe Illustrator 25.4.1, SVG Export Plug-In . SVG Version: 6.00 Build 0)  -->
<svg version="1.1" id="Layer_1" xmlns="http://www.w3.org/2000/svg" xmlns:xlink="http://www.w3.org/1999/xlink" x="0px" y="0px"
	 viewBox="0 0 50 50" style="enable-background:new 0 0 50 50;" xml:space="preserve">
<style type="text/css">
	.st0{fill:#FFFFFF;}
</style>
<g>
	<circle class="st0" cx="18.5" cy="25" r="4.4"/>
	<circle class="st0" cx="44.7" cy="25" r="4.4"/>
	<path class="st0" d="M45.2,16.2h-1.1c0-4.5-3.7-8.2-8.2-8.2h-8.6c-4.5,0-8.2,3.7-8.2,8.2H18c0-5.1,4.2-9.3,9.3-9.3h8.6
		C41,7,45.2,11.1,45.2,16.2z"/>
	<circle class="st0" cx="31.5" cy="25" r="4.4"/>
	<circle class="st0" cx="5.3" cy="25" r="4.4"/>
	<path class="st0" d="M22.7,43h-8.6c-5.1,0-9.3-4.2-9.3-9.3h1.1c0,4.5,3.7,8.2,8.2,8.2h8.6c4.5,0,8.2-3.7,8.2-8.2H32
		C32,38.9,27.8,43,22.7,43z"/>
</g>
</svg>
