<?xml version="1.0" encoding="utf-8"?>
<!-- Generator: Adobe Illustrator 25.4.1, SVG Export Plug-In . SVG Version: 6.00 Build 0)  -->
<svg version="1.1" id="Layer_1" xmlns="http://www.w3.org/2000/svg" xmlns:xlink="http://www.w3.org/1999/xlink" x="0px" y="0px"
	 viewBox="0 0 50 50" style="enable-background:new 0 0 50 50;" xml:space="preserve">
<style type="text/css">
	.st0{fill:#FFFFFF;}
</style>
<g>
	<path class="st0" d="M25,40c-8.3,0-15-6.7-15-15s6.7-15,15-15s15,6.7,15,15S33.3,40,25,40z M25,10.7c-7.9,0-14.3,6.4-14.3,14.3
		S17.1,39.3,25,39.3S39.3,32.9,39.3,25S32.9,10.7,25,10.7z"/>
	<path class="st0" d="M25,49C11.8,49,1,38.2,1,25S11.8,1,25,1s24,10.8,24,24S38.2,49,25,49z M25,2C12.3,2,2,12.3,2,25s10.3,23,23,23
		s23-10.3,23-23S37.7,2,25,2z"/>
	<circle class="st0" cx="25" cy="25" r="6.5"/>
	
		<rect x="24.6" y="-8.2" transform="matrix(0.7071 -0.7071 0.7071 0.7071 -10.3503 24.988)" class="st0" width="0.7" height="66.4"/>
	
		<rect x="-8.2" y="24.6" transform="matrix(0.7064 -0.7078 0.7078 0.7064 -10.3503 25.0215)" class="st0" width="66.4" height="0.7"/>
	<path class="st0" d="M25,40c-8.3,0-15-6.7-15-15s6.7-15,15-15s15,6.7,15,15S33.3,40,25,40z M25,10.7c-7.9,0-14.3,6.4-14.3,14.3
		S17.1,39.3,25,39.3S39.3,32.9,39.3,25S32.9,10.7,25,10.7z"/>
	<path class="st0" d="M25,49C11.8,49,1,38.2,1,25S11.8,1,25,1s24,10.8,24,24S38.2,49,25,49z M25,2C12.3,2,2,12.3,2,25s10.3,23,23,23
		s23-10.3,23-23S37.7,2,25,2z"/>
	<circle class="st0" cx="25" cy="25" r="6.5"/>
	
		<rect x="24.6" y="-8.2" transform="matrix(0.7071 -0.7071 0.7071 0.7071 -10.3503 24.988)" class="st0" width="0.7" height="66.4"/>
	
		<rect x="-8.2" y="24.6" transform="matrix(0.7064 -0.7078 0.7078 0.7064 -10.3503 25.0215)" class="st0" width="66.4" height="0.7"/>
</g>
</svg>
