<?xml version="1.0" encoding="utf-8"?>
<!-- Generator: Adobe Illustrator 25.4.1, SVG Export Plug-In . SVG Version: 6.00 Build 0)  -->
<svg version="1.1" id="Layer_1" xmlns="http://www.w3.org/2000/svg" xmlns:xlink="http://www.w3.org/1999/xlink" x="0px" y="0px"
	 viewBox="0 0 50 50" style="enable-background:new 0 0 50 50;" xml:space="preserve">
<style type="text/css">
	.st0{fill:none;stroke:#FFFFFF;stroke-width:1.8888;stroke-miterlimit:10;}
	.st1{fill:#FFFFFF;}
</style>
<g>
	<g>
		<g>
			<path class="st0" d="M25,33.1V26c0-4.5-3.7-8.2-8.2-8.2h-4.9"/>
			<g>
				<polygon class="st1" points="15.6,14.5 12.4,17.7 15.6,20.9 12.9,20.9 9.7,17.7 12.9,14.5 				"/>
			</g>
		</g>
	</g>
	<g>
		<g>
			<path class="st0" d="M25,40.7v-7.1c0-4.5-3.7-8.2-8.2-8.2h-4.9"/>
			<g>
				<polygon class="st1" points="15.6,22.2 12.4,25.4 15.6,28.6 12.9,28.6 9.7,25.4 12.9,22.2 				"/>
			</g>
		</g>
	</g>
	<g>
		<g>
			<path class="st0" d="M24.9,33.1V26c0-4.5,3.7-8.2,8.2-8.2h4.9"/>
			<g>
				<polygon class="st1" points="34.3,20.9 37.5,17.7 34.3,14.5 37,14.5 40.2,17.7 37,20.9 				"/>
			</g>
		</g>
	</g>
	<g>
		<g>
			<path class="st0" d="M24.9,40.7v-7.1c0-4.5,3.7-8.2,8.2-8.2h4.9"/>
			<g>
				<polygon class="st1" points="34.3,28.6 37.5,25.4 34.3,22.2 37,22.2 40.2,25.4 37,28.6 				"/>
			</g>
		</g>
	</g>
	<path class="st1" d="M25,48.5c-13,0-23.6-10.6-23.6-23.6S12,1.3,25,1.3s23.6,10.6,23.6,23.6S38,48.5,25,48.5z M25,2.6
		c-12.3,0-22.3,10-22.3,22.3c0,12.3,10,22.3,22.3,22.3s22.3-10,22.3-22.3C47.3,12.6,37.3,2.6,25,2.6z"/>
</g>
</svg>
