<?xml version="1.0" encoding="utf-8"?>
<!-- Generator: Adobe Illustrator 25.4.1, SVG Export Plug-In . SVG Version: 6.00 Build 0)  -->
<svg version="1.1" id="Layer_1" xmlns="http://www.w3.org/2000/svg" xmlns:xlink="http://www.w3.org/1999/xlink" x="0px" y="0px"
	 viewBox="0 0 50 50" style="enable-background:new 0 0 50 50;" xml:space="preserve">
<style type="text/css">
	.st0{fill:#FFFFFF;}
</style>
<path class="st0" d="M25.1,47.7c-1.1,0-2.2-0.3-3-0.9L2.9,32.7c-0.8-0.6-1.2-1.3-1.2-2.2c0-0.8,0.4-1.6,1.2-2.2l19.2-14.1
	c1.6-1.2,4.3-1.2,6,0l19.2,14.1c0.8,0.6,1.2,1.3,1.2,2.2c0,0.8-0.4,1.6-1.2,2.2L28.1,46.8C27.3,47.4,26.2,47.7,25.1,47.7z M3,28.5
	l0.1,0.2c-0.7,0.5-1,1.1-1,1.8s0.4,1.3,1,1.8l19.2,14.1c1.5,1.1,4,1.1,5.5,0L47,32.3c0.7-0.5,1-1.1,1-1.8s-0.4-1.3-1-1.8L27.8,14.6
	c-1.5-1.1-4-1.1-5.5,0L3.2,28.7L3,28.5z"/>
<path class="st0" d="M3,16.4L22.2,2.3c1.6-1.2,4.2-1.2,5.7,0l19.2,14.1c1.5,1.1,1.5,2.9,0,4L28,34.5c-1.6,1.2-4.2,1.2-5.7,0L3,20.4
	C1.5,19.3,1.5,17.5,3,16.4z"/>
</svg>
