<?xml version="1.0" encoding="utf-8"?>
<!-- Generator: Adobe Illustrator 25.4.1, SVG Export Plug-In . SVG Version: 6.00 Build 0)  -->
<svg version="1.1" id="Layer_1" xmlns="http://www.w3.org/2000/svg" xmlns:xlink="http://www.w3.org/1999/xlink" x="0px" y="0px"
	 viewBox="0 0 50 50" style="enable-background:new 0 0 50 50;" xml:space="preserve">
<style type="text/css">
	.st0{fill:#FFFFFF;}
</style>
<path class="st0" d="M8.8,41.4c4.2,4.2,10,6.8,16.4,6.8c12.8,0,23.1-10.4,23.1-23.1c0-6.4-2.6-12.2-6.8-16.4L8.8,41.4z"/>
<path class="st0" d="M25.1,49.2C11.8,49.2,1,38.3,1,25S11.8,0.8,25.1,0.8c13.3,0,24.2,10.8,24.2,24.2S38.4,49.2,25.1,49.2z
	 M25.1,2.9C12.9,2.9,3,12.8,3,25c0,12.2,9.9,22.1,22.1,22.1c12.2,0,22.1-9.9,22.1-22.1C47.2,12.8,37.3,2.9,25.1,2.9z"/>
</svg>
