<?xml version="1.0" encoding="utf-8"?>
<!-- Generator: Adobe Illustrator 25.4.1, SVG Export Plug-In . SVG Version: 6.00 Build 0)  -->
<svg version="1.1" id="Layer_1" xmlns="http://www.w3.org/2000/svg" xmlns:xlink="http://www.w3.org/1999/xlink" x="0px" y="0px"
	 viewBox="0 0 50 50" style="enable-background:new 0 0 50 50;" xml:space="preserve">
<style type="text/css">
	.st0{fill:none;stroke:#FFFFFF;stroke-width:3.6961;stroke-miterlimit:10;}
	.st1{fill:#FFFFFF;}
</style>
<g>
	<circle class="st0" cx="25" cy="24.9" r="22.5"/>
	<g>
		<circle class="st1" cx="18.3" cy="18.2" r="3.3"/>
		<circle class="st1" cx="31.7" cy="18.2" r="3.3"/>
		<circle class="st1" cx="18.3" cy="31.6" r="3.3"/>
		<circle class="st1" cx="31.7" cy="31.6" r="3.3"/>
	</g>
	<path class="st1" d="M25,49.2c-13.4,0-24.3-10.9-24.3-24.3S11.6,0.6,25,0.6s24.3,10.9,24.3,24.3S38.4,49.2,25,49.2z M25,4.3
		c-11.4,0-20.6,9.3-20.6,20.6S13.6,45.5,25,45.5s20.6-9.3,20.6-20.6S36.4,4.3,25,4.3z"/>
	<circle class="st1" cx="18.3" cy="18.2" r="3.3"/>
	<circle class="st1" cx="31.7" cy="18.2" r="3.3"/>
	<circle class="st1" cx="18.3" cy="31.6" r="3.3"/>
	<circle class="st1" cx="31.7" cy="31.6" r="3.3"/>
</g>
</svg>
