<?xml version="1.0" encoding="utf-8"?>
<!-- Generator: Adobe Illustrator 25.4.1, SVG Export Plug-In . SVG Version: 6.00 Build 0)  -->
<svg version="1.1" id="Layer_1" xmlns="http://www.w3.org/2000/svg" xmlns:xlink="http://www.w3.org/1999/xlink" x="0px" y="0px"
	 viewBox="0 0 50 50" style="enable-background:new 0 0 50 50;" xml:space="preserve">
<style type="text/css">
	.st0{fill:#FFFFFF;}
</style>
<path class="st0" d="M3.3,24.4L3.3,24.4c0-8,6.5-14.6,14.6-14.6h14.5c8,0,14.6,6.5,14.6,14.6v0H3.3z"/>
<path class="st0" d="M46.9,24.4L46.9,24.4c0,8-6.5,14.6-14.6,14.6H17.8c-8,0-14.6-6.5-14.6-14.6v0H46.9z"/>
<path class="st0" d="M32.8,9.5H17.4C8.8,9.5,1.9,16.4,1.9,25v0c0,8.6,6.9,15.5,15.5,15.5h15.5c8.6,0,15.5-6.9,15.5-15.5v0
	C48.3,16.4,41.4,9.5,32.8,9.5z M14.6,33.2c-4.3,0-7.8-3.5-7.8-7.8s3.5-7.8,7.8-7.8c4.3,0,7.8,3.5,7.8,7.8S19,33.2,14.6,33.2z"/>
</svg>
