<?xml version="1.0" encoding="utf-8"?>
<!-- Generator: Adobe Illustrator 25.4.1, SVG Export Plug-In . SVG Version: 6.00 Build 0)  -->
<svg version="1.1" id="Layer_1" xmlns="http://www.w3.org/2000/svg" xmlns:xlink="http://www.w3.org/1999/xlink" x="0px" y="0px"
	 viewBox="0 0 50 50" style="enable-background:new 0 0 50 50;" xml:space="preserve">
<style type="text/css">
	.st0{fill:#FFFFFF;}
</style>
<g>
	<path class="st0" d="M25,43.2C15,43.2,6.8,35,6.8,25S15,6.8,25,6.8S43.2,15,43.2,25S35.1,43.2,25,43.2z M25,9.6
		C16.5,9.6,9.6,16.5,9.6,25S16.5,40.4,25,40.4S40.4,33.5,40.4,25S33.5,9.6,25,9.6z"/>
	<circle class="st0" cx="25" cy="25" r="6.9"/>
	<rect x="23.3" y="1" class="st0" width="3.5" height="8.5"/>
	<rect x="23.3" y="40.4" class="st0" width="3.5" height="8.5"/>
	<rect x="1" y="23.3" class="st0" width="8.5" height="3.5"/>
	<rect x="40.4" y="23.3" class="st0" width="8.5" height="3.5"/>
</g>
</svg>
