<?xml version="1.0" encoding="utf-8"?>
<!-- Generator: Adobe Illustrator 25.4.1, SVG Export Plug-In . SVG Version: 6.00 Build 0)  -->
<svg version="1.1" id="Layer_1" xmlns="http://www.w3.org/2000/svg" xmlns:xlink="http://www.w3.org/1999/xlink" x="0px" y="0px"
	 viewBox="0 0 50 50" style="enable-background:new 0 0 50 50;" xml:space="preserve">
<style type="text/css">
	.st0{fill:#FFFFFF;}
</style>
<g>
	<path class="st0" d="M24.8,48.1c-0.2,0-0.3-0.1-0.4-0.3c-1.6-1-15.2-9.9-22.5-14.6L1.4,33V17.2L25,1.9l23.6,15.3V33L29,45.6
		C26.2,47.5,25.2,48.1,24.8,48.1z M3.3,31.9L22,44.1c1.5,1,2.4,1.6,3,2c3-2,18.9-12.3,21.7-14.1V18.2L25,4.1L3.3,18.2V31.9z"/>
	<polygon class="st0" points="25.5,47.2 24.8,47.2 24.8,33.3 2.2,18 2.6,17.4 25.5,32.9 	"/>
	<rect x="22.8" y="25.1" transform="matrix(0.8246 -0.5658 0.5658 0.8246 -8.0041 25.049)" class="st0" width="27.2" height="0.8"/>
</g>
</svg>
