<?xml version="1.0" encoding="utf-8"?>
<!-- Generator: Adobe Illustrator 25.4.1, SVG Export Plug-In . SVG Version: 6.00 Build 0)  -->
<svg version="1.1" id="Layer_1" xmlns="http://www.w3.org/2000/svg" xmlns:xlink="http://www.w3.org/1999/xlink" x="0px" y="0px"
	 viewBox="0 0 50 50" style="enable-background:new 0 0 50 50;" xml:space="preserve">
<style type="text/css">
	.st0{fill:#FFFFFF;}
</style>
<g>
	<path class="st0" d="M0.7,33.1l16.2,16.2c0,0-16.2,0-16.2,0C0.7,49.3,0.7,33.1,0.7,33.1z"/>
	<polygon class="st0" points="0.7,16.9 33.1,49.3 49.3,49.3 49.3,33.1 16.9,0.7 0.7,0.7 	"/>
	<path class="st0" d="M49.3,16.9L33.1,0.7c0,0,16.2,0,16.2,0C49.3,0.7,49.3,16.9,49.3,16.9z"/>
	<path class="st0" d="M0.7,33.1l16.2,16.2c0,0-16.2,0-16.2,0C0.7,49.3,0.7,33.1,0.7,33.1z"/>
	<polygon class="st0" points="0.7,16.9 33.1,49.3 49.3,49.3 49.3,33.1 16.9,0.7 0.7,0.7 	"/>
	<path class="st0" d="M49.3,16.9L33.1,0.7c0,0,16.2,0,16.2,0C49.3,0.7,49.3,16.9,49.3,16.9z"/>
</g>
</svg>
