<?xml version="1.0" encoding="utf-8"?>
<!-- Generator: Adobe Illustrator 25.4.1, SVG Export Plug-In . SVG Version: 6.00 Build 0)  -->
<svg version="1.1" id="Layer_1" xmlns="http://www.w3.org/2000/svg" xmlns:xlink="http://www.w3.org/1999/xlink" x="0px" y="0px"
	 viewBox="0 0 50 50" style="enable-background:new 0 0 50 50;" xml:space="preserve">
<style type="text/css">
	.st0{fill:#FFFFFF;}
</style>
<g>
	<circle class="st0" cx="41.5" cy="8.5" r="6"/>
	<path class="st0" d="M41.5,47.5c-3.6,0-6.5-2.9-6.5-6.5c0-3.6,2.9-6.5,6.5-6.5S48,37.5,48,41C48,44.6,45.1,47.5,41.5,47.5z
		 M41.5,35.6c-3,0-5.5,2.5-5.5,5.5c0,3,2.5,5.5,5.5,5.5S47,44.1,47,41C47,38,44.6,35.6,41.5,35.6z"/>
	<path class="st0" d="M12.8,26H2v-3.1h10.8c0.7,0,1.3-0.6,1.3-1.3v-7.9c0-2.4,2-4.4,4.4-4.4h10.7v3.1H18.5c-0.7,0-1.3,0.6-1.3,1.3
		v7.9C17.2,24,15.2,26,12.8,26z"/>
	<path class="st0" d="M29.2,38.6H18.5c-1.9,0-3.4-1.5-3.4-3.4v-7.9c0-1.3-1-2.3-2.3-2.3H2v-1.1h10.8c1.9,0,3.4,1.5,3.4,3.4v7.9
		c0,1.3,1,2.3,2.3,2.3h10.7V38.6z"/>
</g>
</svg>
