<?xml version="1.0" encoding="utf-8"?>
<!-- Generator: Adobe Illustrator 25.4.1, SVG Export Plug-In . SVG Version: 6.00 Build 0)  -->
<svg version="1.1" id="Layer_1" xmlns="http://www.w3.org/2000/svg" xmlns:xlink="http://www.w3.org/1999/xlink" x="0px" y="0px"
	 viewBox="0 0 50 50" style="enable-background:new 0 0 50 50;" xml:space="preserve">
<style type="text/css">
	.st0{fill:#FFFFFF;}
</style>
<g>
	<rect x="0.8" y="45.2" class="st0" width="1.9" height="3.1"/>
	<rect x="3.1" y="35.6" class="st0" width="1.9" height="12.6"/>
	<rect x="5.4" y="20.6" class="st0" width="1.9" height="27.7"/>
	<rect x="7.7" y="12.7" class="st0" width="1.9" height="35.6"/>
	<rect x="10.1" y="3.8" class="st0" width="1.9" height="44.5"/>
	<rect x="12.4" y="1.8" class="st0" width="1.9" height="46.5"/>
	<rect x="14.7" y="9.8" class="st0" width="1.9" height="38.5"/>
	<rect x="17.1" y="17.1" class="st0" width="1.9" height="31.2"/>
	<rect x="19.4" y="20.8" class="st0" width="1.9" height="27.4"/>
	<rect x="21.7" y="25.4" class="st0" width="1.9" height="22.8"/>
	<rect x="24" y="31.7" class="st0" width="1.9" height="16.5"/>
	<rect x="26.4" y="36.5" class="st0" width="1.9" height="11.8"/>
	<rect x="28.7" y="39.8" class="st0" width="1.9" height="8.5"/>
	<rect x="31" y="42.6" class="st0" width="1.9" height="5.7"/>
	<rect x="33.3" y="44.4" class="st0" width="1.9" height="3.8"/>
	<rect x="35.7" y="45.2" class="st0" width="1.9" height="3.1"/>
	<rect x="38" y="45.9" class="st0" width="1.9" height="2.4"/>
	<rect x="40.3" y="46.7" class="st0" width="1.9" height="1.5"/>
	<rect x="42.7" y="47.1" class="st0" width="1.9" height="1.2"/>
	<rect x="45" y="47.5" class="st0" width="1.9" height="0.8"/>
	<rect x="47.3" y="47.7" class="st0" width="1.9" height="0.6"/>
</g>
</svg>
