<?xml version="1.0" encoding="utf-8"?>
<!-- Generator: Adobe Illustrator 25.4.1, SVG Export Plug-In . SVG Version: 6.00 Build 0)  -->
<svg version="1.1" id="Layer_1" xmlns="http://www.w3.org/2000/svg" xmlns:xlink="http://www.w3.org/1999/xlink" x="0px" y="0px"
	 viewBox="0 0 50 50" style="enable-background:new 0 0 50 50;" xml:space="preserve">
<style type="text/css">
	.st0{fill:#FFFFFF;}
</style>
<g>
	<path class="st0" d="M8.8,25.5H0.9v-1h7.9c2.1,0,3.8-1.7,3.8-3.8v-3.6c0-2.6,2.2-4.8,4.8-4.8h7.8v1h-7.8c-2.1,0-3.8,1.7-3.8,3.8
		v3.6C13.6,23.4,11.4,25.5,8.8,25.5z"/>
	<path class="st0" d="M25.2,37.7h-7.8c-2.6,0-4.8-2.2-4.8-4.8v-3.6c0-2.1-1.7-3.8-3.8-3.8H0.9v-1h7.9c2.6,0,4.8,2.2,4.8,4.8v3.6
		c0,2.1,1.7,3.8,3.8,3.8h7.8V37.7z"/>
	<path class="st0" d="M32.6,38.7h-7.8v-3h7.8c1.5,0,2.8-1.3,2.8-2.8v-3.6c0-3.2,2.6-5.8,5.8-5.8h7.9v3h-7.9c-1.5,0-2.8,1.3-2.8,2.8
		v3.6C38.4,36.1,35.8,38.7,32.6,38.7z"/>
	<path class="st0" d="M49.1,26.5h-7.9c-3.2,0-5.8-2.6-5.8-5.8v-3.6c0-1.5-1.3-2.8-2.8-2.8h-7.8v-3h7.8c3.2,0,5.8,2.6,5.8,5.8v3.6
		c0,1.5,1.3,2.8,2.8,2.8h7.9V26.5z"/>
</g>
</svg>
