<?xml version="1.0" encoding="utf-8"?>
<!-- Generator: Adobe Illustrator 25.4.1, SVG Export Plug-In . SVG Version: 6.00 Build 0)  -->
<svg version="1.1" id="Layer_1" xmlns="http://www.w3.org/2000/svg" xmlns:xlink="http://www.w3.org/1999/xlink" x="0px" y="0px"
	 viewBox="0 0 50 50" style="enable-background:new 0 0 50 50;" xml:space="preserve">
<style type="text/css">
	.st0{fill:#FFFFFF;}
</style>
<g>
	<path class="st0" d="M48.4,9.7H1.6c-0.5,0-0.9-0.4-0.9-0.9V2.6c0-0.5,0.4-0.9,0.9-0.9h46.8c0.5,0,0.9,0.4,0.9,0.9v6.2
		C49.3,9.3,48.9,9.7,48.4,9.7z"/>
	<path class="st0" d="M48.4,23.2H1.6c-0.5,0-0.9-0.4-0.9-0.9v-6.9c0-0.5,0.4-0.9,0.9-0.9h46.8c0.5,0,0.9,0.4,0.9,0.9v6.9
		C49.3,22.8,48.9,23.2,48.4,23.2z"/>
	<path class="st0" d="M48.4,35.3H1.6c-0.5,0-0.9-0.4-0.9-0.9v-6.2c0-0.5,0.4-0.9,0.9-0.9h46.8c0.5,0,0.9,0.4,0.9,0.9v6.2
		C49.3,34.9,48.9,35.3,48.4,35.3z"/>
	<path class="st0" d="M24.1,48.3H1.6c-0.5,0-0.9-0.4-0.9-0.9v-6.2c0-0.5,0.4-0.9,0.9-0.9h22.5c0.5,0,0.9,0.4,0.9,0.9v6.2
		C25,47.9,24.6,48.3,24.1,48.3z"/>
</g>
</svg>
