<?xml version="1.0" encoding="utf-8"?>
<!-- Generator: Adobe Illustrator 25.4.1, SVG Export Plug-In . SVG Version: 6.00 Build 0)  -->
<svg version="1.1" id="Layer_1" xmlns="http://www.w3.org/2000/svg" xmlns:xlink="http://www.w3.org/1999/xlink" x="0px" y="0px"
	 viewBox="0 0 50 50" style="enable-background:new 0 0 50 50;" xml:space="preserve">
<style type="text/css">
	.st0{fill:#FFFFFF;}
</style>
<g>
	<circle class="st0" cx="25" cy="11.2" r="2.4"/>
	<circle class="st0" cx="25" cy="38.8" r="2.4"/>
	<circle class="st0" cx="11.2" cy="25" r="2.4"/>
	<circle class="st0" cx="38.8" cy="25" r="2.4"/>
	<circle class="st0" cx="25" cy="11.2" r="2.4"/>
	<circle class="st0" cx="25" cy="38.8" r="2.4"/>
	<circle class="st0" cx="11.2" cy="25" r="2.4"/>
	<circle class="st0" cx="38.8" cy="25" r="2.4"/>
	<circle class="st0" cx="15.8" cy="15.9" r="2.4"/>
	<circle class="st0" cx="15.8" cy="34.2" r="2.4"/>
	<circle class="st0" cx="34.1" cy="15.9" r="2.4"/>
	<circle class="st0" cx="34.1" cy="34.2" r="2.4"/>
	<circle class="st0" cx="25" cy="19.7" r="2.8"/>
	<circle class="st0" cx="25" cy="30.4" r="2.8"/>
	<circle class="st0" cx="19.6" cy="25" r="2.8"/>
	<circle class="st0" cx="30.4" cy="25" r="2.8"/>
	<path class="st0" d="M25,48.7C11.9,48.7,1.3,38.1,1.3,25S11.9,1.3,25,1.3S48.7,11.9,48.7,25S38.1,48.7,25,48.7z M25,1.8
		C12.2,1.8,1.8,12.2,1.8,25S12.2,48.2,25,48.2S48.2,37.8,48.2,25S37.8,1.8,25,1.8z"/>
	<circle class="st0" cx="25" cy="11.2" r="2.4"/>
	<circle class="st0" cx="25" cy="38.8" r="2.4"/>
	<circle class="st0" cx="11.2" cy="25" r="2.4"/>
	<circle class="st0" cx="38.8" cy="25" r="2.4"/>
	<circle class="st0" cx="25" cy="11.2" r="2.4"/>
	<circle class="st0" cx="25" cy="38.8" r="2.4"/>
	<circle class="st0" cx="11.2" cy="25" r="2.4"/>
	<circle class="st0" cx="38.8" cy="25" r="2.4"/>
	<circle class="st0" cx="15.8" cy="15.9" r="2.4"/>
	<circle class="st0" cx="15.8" cy="34.2" r="2.4"/>
	<circle class="st0" cx="34.1" cy="15.9" r="2.4"/>
	<circle class="st0" cx="34.1" cy="34.2" r="2.4"/>
	<circle class="st0" cx="25" cy="19.7" r="2.8"/>
	<circle class="st0" cx="25" cy="30.4" r="2.8"/>
	<circle class="st0" cx="19.6" cy="25" r="2.8"/>
	<circle class="st0" cx="30.4" cy="25" r="2.8"/>
	<path class="st0" d="M25,48.7C11.9,48.7,1.3,38.1,1.3,25S11.9,1.3,25,1.3S48.7,11.9,48.7,25S38.1,48.7,25,48.7z M25,1.8
		C12.2,1.8,1.8,12.2,1.8,25S12.2,48.2,25,48.2S48.2,37.8,48.2,25S37.8,1.8,25,1.8z"/>
</g>
</svg>
