<?xml version="1.0" encoding="utf-8"?>
<!-- Generator: Adobe Illustrator 25.4.1, SVG Export Plug-In . SVG Version: 6.00 Build 0)  -->
<svg version="1.1" id="Layer_1" xmlns="http://www.w3.org/2000/svg" xmlns:xlink="http://www.w3.org/1999/xlink" x="0px" y="0px"
	 viewBox="0 0 50 50" style="enable-background:new 0 0 50 50;" xml:space="preserve">
<style type="text/css">
	.st0{fill:none;stroke:#FFFFFF;stroke-width:3.7432;stroke-miterlimit:10;}
	.st1{fill:none;stroke:#FFFFFF;stroke-width:1.8716;stroke-miterlimit:10;}
	.st2{fill:#FFFFFF;}
</style>
<g>
	<circle class="st0" cx="25" cy="25" r="22.8"/>
	<line class="st1" x1="15.3" y1="14.9" x2="34.7" y2="34.3"/>
	<line class="st1" x1="15.3" y1="34.3" x2="34.7" y2="14.9"/>
	<path class="st2" d="M25,49.6C11.4,49.6,0.4,38.6,0.4,25S11.4,0.4,25,0.4S49.6,11.4,49.6,25S38.6,49.6,25,49.6z M25,4.1
		C13.5,4.1,4.1,13.5,4.1,25S13.5,45.9,25,45.9S45.9,36.5,45.9,25S36.5,4.1,25,4.1z"/>
	<line class="st1" x1="15.3" y1="14.9" x2="34.7" y2="34.3"/>
	<line class="st1" x1="15.3" y1="34.3" x2="34.7" y2="14.9"/>
</g>
</svg>
