<?xml version="1.0" encoding="utf-8"?>
<!-- Generator: Adobe Illustrator 25.4.1, SVG Export Plug-In . SVG Version: 6.00 Build 0)  -->
<svg version="1.1" id="Layer_1" xmlns="http://www.w3.org/2000/svg" xmlns:xlink="http://www.w3.org/1999/xlink" x="0px" y="0px"
	 viewBox="0 0 50 50" style="enable-background:new 0 0 50 50;" xml:space="preserve">
<style type="text/css">
	.st0{fill:#FFFFFF;}
</style>
<g>
	<path class="st0" d="M8.8,48.2H8.5c-3.6,0-6.5-2.9-6.5-6.5v-0.3c0-3.6,2.9-6.5,6.5-6.5h0.3c3.6,0,6.5,2.9,6.5,6.5v0.3
		C15.3,45.3,12.4,48.2,8.8,48.2z"/>
	<path class="st0" d="M25.1,48.2h-0.3c-3.6,0-6.5-2.9-6.5-6.5v-0.3c0-3.6,2.9-6.5,6.5-6.5h0.3c3.6,0,6.5,2.9,6.5,6.5v0.3
		C31.6,45.3,28.7,48.2,25.1,48.2z"/>
	<path class="st0" d="M41.5,48.2h-0.3c-3.6,0-6.5-2.9-6.5-6.5v-0.3c0-3.6,2.9-6.5,6.5-6.5h0.3c3.6,0,6.5,2.9,6.5,6.5v0.3
		C48,45.3,45.1,48.2,41.5,48.2z"/>
	<path class="st0" d="M41.5,31.8h-0.3c-3.6,0-6.5-2.9-6.5-6.5V25c0-3.6,2.9-6.5,6.5-6.5h0.3c3.6,0,6.5,2.9,6.5,6.5v0.3
		C48,28.9,45.1,31.8,41.5,31.8z"/>
	<path class="st0" d="M25.1,15.1h-0.3c-3.6,0-6.5-2.9-6.5-6.5V8.3c0-3.6,2.9-6.5,6.5-6.5h0.3c3.6,0,6.5,2.9,6.5,6.5v0.3
		C31.6,12.2,28.7,15.1,25.1,15.1z"/>
</g>
</svg>
