<?xml version="1.0" encoding="utf-8"?>
<!-- Generator: Adobe Illustrator 25.4.1, SVG Export Plug-In . SVG Version: 6.00 Build 0)  -->
<svg version="1.1" id="Layer_1" xmlns="http://www.w3.org/2000/svg" xmlns:xlink="http://www.w3.org/1999/xlink" x="0px" y="0px"
	 viewBox="0 0 50 50" style="enable-background:new 0 0 50 50;" xml:space="preserve">
<style type="text/css">
	.st0{fill:none;}
	.st1{fill:#FFFFFF;}
</style>
<g>
	<path class="st0" d="M25,37c3.1,0,6.2-1.2,8.5-3.5L25,25L25,37z"/>
	<path class="st0" d="M16.5,16.5c-4.7,4.7-4.7,12.3,0,17c2.3,2.3,5.4,3.5,8.5,3.5l0-12L16.5,16.5z"/>
	<path class="st0" d="M25,13c-3.1,0-6.2,1.2-8.5,3.5L25,25V13z"/>
	<path class="st0" d="M33.5,16.5C31.2,14.1,28.1,13,25,13v12l8.5,8.5C38.2,28.8,38.2,21.2,33.5,16.5z"/>
	<path class="st1" d="M33.5,33.5C31.2,35.9,28.1,37,25,37l0,12.1c6.2,0,12.4-2.4,17.1-7.1L33.5,33.5z"/>
	<path class="st1" d="M25,13l0-12.1c-6.2,0-12.4,2.4-17.1,7.1l8.6,8.6C18.8,14.1,21.9,13,25,13z"/>
	<path class="st0" d="M31.2,25c0-1.6-0.6-3.2-1.8-4.4L25,25L31.2,25z"/>
	<path class="st0" d="M20.6,29.4c2.4,2.4,6.4,2.4,8.8,0c1.2-1.2,1.8-2.8,1.8-4.4L25,25L20.6,29.4z"/>
	<path class="st0" d="M18.8,25c0,1.6,0.6,3.2,1.8,4.4L25,25H18.8z"/>
	<path class="st0" d="M20.6,20.6c-1.2,1.2-1.8,2.8-1.8,4.4H25l4.4-4.4C27,18.2,23,18.2,20.6,20.6z"/>
	<path class="st1" d="M29.4,20.6c1.2,1.2,1.8,2.8,1.8,4.4l6.2,0c0-3.2-1.2-6.4-3.6-8.8L29.4,20.6z"/>
	<path class="st1" d="M18.8,25l-6.2,0c0,3.2,1.2,6.4,3.6,8.8l4.4-4.4C19.4,28.2,18.8,26.6,18.8,25z"/>
	<path class="st0" d="M37,25c0-3.1-1.2-6.2-3.5-8.5L25,25L37,25z"/>
	<path class="st0" d="M16.5,33.5c4.7,4.7,12.3,4.7,17,0c2.3-2.3,3.5-5.4,3.5-8.5l-12,0L16.5,33.5z"/>
	<path class="st0" d="M13,25c0,3.1,1.2,6.2,3.5,8.5L25,25H13z"/>
	<path class="st0" d="M16.5,16.5C14.1,18.8,13,21.9,13,25h12l8.5-8.5C28.8,11.8,21.2,11.8,16.5,16.5z"/>
	<path class="st1" d="M33.5,16.5c2.3,2.3,3.5,5.4,3.5,8.5l12.1,0c0-6.2-2.4-12.4-7.1-17.1L33.5,16.5z"/>
	<path class="st1" d="M13,25L0.9,25c0,6.2,2.4,12.4,7.1,17.1l8.6-8.6C14.1,31.2,13,28.1,13,25z"/>
	<path class="st0" d="M25,18.8c-1.6,0-3.2,0.6-4.4,1.8L25,25L25,18.8z"/>
	<path class="st0" d="M29.4,29.4c2.4-2.4,2.4-6.4,0-8.8c-1.2-1.2-2.8-1.8-4.4-1.8l0,6.2L29.4,29.4z"/>
	<path class="st0" d="M25,31.2c1.6,0,3.2-0.6,4.4-1.8L25,25V31.2z"/>
	<path class="st0" d="M20.6,29.4c1.2,1.2,2.8,1.8,4.4,1.8V25l-4.4-4.4C18.2,23,18.2,27,20.6,29.4z"/>
	<path class="st1" d="M20.6,20.6c1.2-1.2,2.8-1.8,4.4-1.8l0-6.2c-3.2,0-6.4,1.2-8.8,3.6L20.6,20.6z"/>
	<path class="st1" d="M25,31.2l0,6.2c3.2,0,6.4-1.2,8.8-3.6l-4.4-4.4C28.2,30.6,26.6,31.2,25,31.2z"/>
</g>
</svg>
