<?xml version="1.0" encoding="utf-8"?>
<!-- Generator: Adobe Illustrator 25.4.1, SVG Export Plug-In . SVG Version: 6.00 Build 0)  -->
<svg version="1.1" id="Layer_1" xmlns="http://www.w3.org/2000/svg" xmlns:xlink="http://www.w3.org/1999/xlink" x="0px" y="0px"
	 viewBox="0 0 50 50" style="enable-background:new 0 0 50 50;" xml:space="preserve">
<style type="text/css">
	.st0{fill:#FFFFFF;}
</style>
<g>
	<path class="st0" d="M25,48.7C11.9,48.7,1.3,38.1,1.3,25S11.9,1.3,25,1.3S48.7,11.9,48.7,25S38.1,48.7,25,48.7z M25,1.8
		C12.2,1.8,1.8,12.2,1.8,25S12.2,48.2,25,48.2S48.2,37.8,48.2,25S37.8,1.8,25,1.8z"/>
	<polygon class="st0" points="12.7,30.3 12.7,26.8 9.2,26.8 9.2,23.2 12.7,23.2 12.7,19.7 16.2,19.7 16.2,23.2 19.8,23.2 19.8,26.8 
		16.2,26.8 16.2,30.3 	"/>
	
		<rect x="30.2" y="23.2" transform="matrix(-1 -4.502721e-11 4.502721e-11 -1 69.6219 50.0005)" class="st0" width="9.2" height="3.5"/>
</g>
</svg>
