<?xml version="1.0" encoding="utf-8"?>
<!-- Generator: Adobe Illustrator 25.4.1, SVG Export Plug-In . SVG Version: 6.00 Build 0)  -->
<svg version="1.1" id="Layer_1" xmlns="http://www.w3.org/2000/svg" xmlns:xlink="http://www.w3.org/1999/xlink" x="0px" y="0px"
	 viewBox="0 0 50 50" style="enable-background:new 0 0 50 50;" xml:space="preserve">
<style type="text/css">
	.st0{fill:#FFFFFF;}
	.st1{fill:none;stroke:#FFFFFF;stroke-width:0.9332;stroke-miterlimit:10;}
</style>
<g>
	<path class="st0" d="M49.3,26.9H38.9c-2.3,0-4.2-1.9-4.2-4.2V15c0-0.7-0.6-1.2-1.2-1.2H23.1v-3h10.3c2.3,0,4.2,1.9,4.2,4.2v7.6
		c0,0.7,0.6,1.2,1.2,1.2h10.4V26.9z"/>
	<path class="st0" d="M33.4,39H23.1v-1.1h10.3c1.2,0,2.2-1,2.2-2.2v-7.6c0-1.8,1.5-3.3,3.3-3.3h10.4v1.1H38.9c-1.2,0-2.2,1-2.2,2.2
		v7.6C36.7,37.5,35.2,39,33.4,39z"/>
	
		<rect x="0.7" y="6.1" transform="matrix(-1 -4.660151e-11 4.660151e-11 -1 19.9651 24.3039)" class="st0" width="18.5" height="12.2"/>
	
		<rect x="1.2" y="32.4" transform="matrix(-1 -4.657575e-11 4.657575e-11 -1 19.9651 76.3039)" class="st1" width="17.6" height="11.5"/>
</g>
</svg>
