<svg xmlns="http://www.w3.org/2000/svg" width="172.769" height="58.989" viewBox="0 0 172.769 58.989">
  <g>
    <g>
      <path d="M50.247,39.941c.8-.8,1.747-1.127,3.563-1.127h7.309c2.034,0,3.235.361,3.964,1.127.911.9,1.2,1.962,1.2,5.343V58.81H60.719V56.522c-2.4,1.962-3.272,2.324-5.054,2.324H52.936c-1.781,0-2.727-.217-3.525-1.013-.693-.7-1.161-1.858-1.161-4.474,0-2.473.361-4,1.237-4.875.906-.909,2.07-1.346,5.667-1.346a26.844,26.844,0,0,1,5.566.582V45.938c0-1.963-.11-2.363-.365-2.654-.256-.221-.618-.3-1.454-.3H56.1c-.765,0-1.166.074-1.385.3-.29.291-.327.691-.4,1.891H49.05C49.083,41.833,49.411,40.736,50.247,39.941ZM60.719,53.829V50.485h-3.67c-2.112,0-2.621.145-2.984.506s-.435.8-.435,1.712c0,1.02.074,1.563.363,1.856s.69.323,1.417.323h1.563A6.829,6.829,0,0,0,60.719,53.829Z" fill="#fff"/>
      <path d="M81.294,58.81V56.229c-2.51,2.184-3.383,2.619-5.02,2.619H74.167c-2.112,0-3.237-.363-4.108-1.235-1.2-1.2-1.673-2.948-1.673-8.8,0-5.891.578-7.56,1.815-8.8.875-.869,2.036-1.233,4.036-1.233h2.181c1.673,0,2.582.364,4.876,2.289V31.977h5.564V58.81Zm0-5.272V44.013a6.663,6.663,0,0,0-2.911-.8h-2c-1.02,0-1.5.144-1.822.471-.509.471-.651,1.311-.651,5.125s.144,4.62.651,5.131c.325.324.8.437,1.822.437H78.2A7.085,7.085,0,0,0,81.294,53.538Z" fill="#fff"/>
      <path d="M90.957,39.941c.8-.8,1.746-1.127,3.562-1.127h7.31c2.036,0,3.234.361,3.965,1.127.908.9,1.2,1.962,1.2,5.343V58.81h-5.565V56.522c-2.4,1.962-3.273,2.324-5.054,2.324H93.65c-1.783,0-2.732-.217-3.528-1.013-.692-.7-1.166-1.858-1.166-4.474,0-2.473.364-4,1.237-4.875.91-.909,2.074-1.346,5.673-1.346a26.822,26.822,0,0,1,5.563.582V45.938c0-1.963-.108-2.363-.363-2.654-.251-.221-.62-.3-1.455-.3h-2.8c-.765,0-1.164.074-1.381.3-.294.291-.328.691-.4,1.891h-5.27C89.794,41.833,90.122,40.736,90.957,39.941Zm10.471,13.888V50.485H97.759c-2.111,0-2.622.145-2.983.506s-.437.8-.437,1.712c0,1.02.073,1.563.365,1.856s.688.323,1.417.323h1.56A6.83,6.83,0,0,0,101.428,53.829Z" fill="#fff"/>
      <path d="M109.092,58.81V37.867c0-2.51.33-3.821,1.166-4.654s1.782-1.236,3.926-1.236h4.583v4.215h-2.694c-.725,0-.943.074-1.16.254-.184.221-.254.614-.254,1.6v.8h4.109v4.328h-4.074V58.809h-5.6Z" fill="#fff"/>
      <path d="M120.866,58.81v-20h5.56v3.053c2.076-2.147,3.128-3.089,4.727-3.089H133.3v5.489h-2.581a10.187,10.187,0,0,0-4.291.8V58.809h-5.56Z" fill="#fff"/>
      <path d="M153.4,38.813v20h-5.6V56.16c-2.544,2.289-3.381,2.688-5.2,2.688h-2.435a4.728,4.728,0,0,1-3.6-1.128c-.8-.836-1.164-1.888-1.164-4.8V38.813H141V52.3a2.171,2.171,0,0,0,.435,1.638c.328.324.655.437,1.636.437h1.6a7.452,7.452,0,0,0,3.123-.8V38.813Z" fill="#fff"/>
      <path d="M160.959,36.046h-5.49V31.977h5.49Zm0,22.764h-5.49v-20h5.49Z" fill="#fff"/>
      <path d="M172.769,54.412h-2.4c-.913,0-1.276-.076-1.454-.22-.184-.218-.256-.508-.256-1.382V43.177h4.108V38.813h-4.108V36.046h-5.6V54.3c0,2.036.253,2.946.91,3.6.691.692,1.707,1.087,3.6,1.087a17.431,17.431,0,0,0,3.854-.435l1.344-.35Z" fill="#fff"/>
    </g>
    <path d="M58.956,25.976c-.191-1.207-.846-1.554-2.429-2.059-1.2-.386-9.249-2.949-9.249-2.949s-5.61-2.12-9.768.877c-.559.405-1.14.865-1.723,1.355.489-.582.95-1.163,1.353-1.722,2.988-4.165.86-9.771.86-9.771s-2.576-8.041-2.966-9.246C34.525.882,34.18.226,32.971.039s-1.74.323-2.71,1.672C29.522,2.734,24.6,9.6,24.6,9.6s-3.746,4.68-2.184,9.561c.213.655.47,1.35.759,2.057-.405-.647-.815-1.263-1.224-1.818-3.038-4.127-9.025-3.839-9.025-3.839s-8.445-.034-9.708-.035c-1.661-.006-2.389.123-2.946,1.213s-.226,1.756.755,3.093c.745,1.02,5.751,7.823,5.751,7.823s3.292,5.011,8.416,5.032c.688,0,1.426-.029,2.184-.083-.736.184-1.448.385-2.1.6-4.865,1.613-6.438,7.4-6.438,7.4S6.194,48.622,5.8,49.823C5.285,51.4,5.181,52.132,6.046,53s1.6.76,3.175.24c1.2-.392,9.219-3.052,9.219-3.052s5.78-1.584,7.382-6.451c.218-.655.414-1.365.6-2.1-.054.756-.082,1.492-.077,2.18.027,5.125,5.044,8.41,5.044,8.41s6.813,4.989,7.833,5.734c1.342.977,2.006,1.3,3.1.748s1.215-1.285,1.207-2.947c0-1.261-.056-9.707-.056-9.707s.282-5.988-3.851-9.018c-.557-.407-1.171-.816-1.816-1.217.7.283,1.4.54,2.054.746,4.882,1.557,9.557-2.2,9.557-2.2s6.852-4.937,7.875-5.678C58.633,27.718,59.148,27.183,58.956,25.976ZM29.864,19.758c.923.143,1.379,2.1,1.018,4.376s-1.391,4-2.314,3.852-1.378-2.1-1.021-4.377S28.942,19.613,29.864,19.758Zm-11.8,6.023c.421-.833,2.427-.659,4.474.383s3.372,2.562,2.948,3.393-2.426.66-4.476-.382S17.643,26.613,18.066,25.781Zm6.22,11.333c-1.625,1.628-3.477,2.411-4.136,1.752s.122-2.512,1.746-4.14,3.476-2.414,4.137-1.755S25.913,35.485,24.286,37.114Zm8.95,3.813c-.832.424-2.354-.891-3.4-2.939s-1.22-4.055-.388-4.479,2.349.893,3.4,2.942S34.069,40.5,33.236,40.927Zm2.158-9.487c-2.271.364-4.232-.092-4.378-1.012s1.576-1.962,3.849-2.323,4.23.092,4.376,1.012S37.666,31.079,35.394,31.44Z" fill="#fff"/>
  </g>
</svg>
