<svg xmlns="http://www.w3.org/2000/svg" width="166.718" height="83.521" viewBox="0 0 166.718 83.521">
  <g>
    <path d="M134.56,29.256l-3.524,17.466h3.079l3.525-17.466h6.545L138.122,59.2a4.268,4.268,0,0,1-3.99,3.321h-9.424a2.639,2.639,0,0,1-2.655-3.321l1.213-6.012h6.448L128.6,58.771h3.072s1.36-6.828,1.366-6.828H126.85c-1.834,0-3-1.487-2.595-3.655L128.1,29.256Z" fill="#fff"/>
    <g>
      <polygon points="49.186 29.259 44.608 51.943 37.245 51.943 41.823 29.259 49.186 29.259" fill="#fff"/>
      <polygon points="42.999 23.427 42.05 28.13 49.413 28.13 50.363 23.427 42.999 23.427" fill="#fff"/>
    </g>
    <g>
      <polygon points="76.025 29.253 71.445 51.943 64.082 51.943 68.662 29.253 76.025 29.253" fill="#fff"/>
      <polygon points="69.837 23.427 68.888 28.13 76.251 28.13 77.2 23.427 69.837 23.427" fill="#fff"/>
    </g>
    <polygon points="83.568 36.547 81.784 45.383 74.422 45.383 76.205 36.547 83.568 36.547" fill="#fff"/>
    <path d="M113.608,45.38h9.626l2.559-12.745a2.671,2.671,0,0,0-2.632-3.379h-9.419a4.341,4.341,0,0,0-4,3.383l-3.225,15.984a2.635,2.635,0,0,0,2.649,3.32h9.426a4.27,4.27,0,0,0,3.99-3.32l.386-1.907-9.612,0Zm5.361-11.243-1.218,6.032h-3.08l1.218-6.032Z" fill="#fff"/>
    <polygon points="92.287 45.974 95.003 51.943 105.913 51.943 98.912 36.54 111.669 23.427 100.758 23.427 95.76 28.569 96.808 23.427 87.838 23.427 82.083 51.943 91.054 51.943 92.287 45.974" fill="#fff"/>
    <path d="M17.065,51.91l5.752-28.5H38.1a2.611,2.611,0,0,1,2.651,3.287L36.345,48.556a4.3,4.3,0,0,1-3.991,3.354ZM29.01,29.32,25.5,46.722h3.882l3.513-17.4Z" fill="#fff"/>
    <path d="M60.889,59.2A4.269,4.269,0,0,1,56.9,62.52H47.474a2.636,2.636,0,0,1-2.65-3.321l1.207-5.987h6.444l-1.112,5.559h3.073s1.36-6.828,1.364-6.828H49.616a2.636,2.636,0,0,1-2.65-3.32l3.226-15.984a4.267,4.267,0,0,1,3.99-3.321H66.938ZM56.342,34.137,53.8,46.722h3.08L59.42,34.137Z" fill="#fff"/>
    <path d="M148.059,30.579a1.486,1.486,0,1,1,1.488,1.578A1.5,1.5,0,0,1,148.059,30.579Zm1.488,1.893a1.889,1.889,0,1,0-1.856-1.893A1.855,1.855,0,0,0,149.547,32.472Zm-.387-1.744h.367l.556.945h.357l-.6-.959a.56.56,0,0,0,.546-.6c0-.43-.247-.62-.745-.62h-.8v2.179h.32Zm0-.279v-.675h.434c.222,0,.46.05.46.32,0,.335-.243.355-.513.355Z" fill="#fff"/>
    <path d="M83.359,4.139c21.635,0,41.91,4.188,57.09,11.793,14.271,7.149,22.13,16.322,22.13,25.829s-7.859,18.679-22.13,25.828c-15.18,7.605-35.455,11.793-57.09,11.793s-41.91-4.188-57.09-11.793C12,60.44,4.139,51.267,4.139,41.761S12,23.081,26.269,15.932c15.18-7.6,35.455-11.793,57.09-11.793m0-4.139C37.32,0,0,18.7,0,41.761s37.32,41.76,83.359,41.76,83.359-18.7,83.359-41.76S129.4,0,83.359,0Z" fill="#fff"/>
    <g>
      <path d="M65.842,62.917,67.308,56h3.716l-.286,1.383H68.645l-.276,1.273H70.4l-.3,1.384H68.074l-.314,1.493h2.2l-.3,1.384Z" fill="#fff"/>
      <path d="M70.369,62.917,71.835,56h1.623l-1.171,5.533H74.27l-.3,1.384Z" fill="#fff"/>
      <path d="M74.546,62.917,76.013,56h3.716l-.286,1.383H77.35l-.277,1.273H79.1l-.3,1.384H76.778l-.314,1.493h2.2l-.3,1.384Z" fill="#fff"/>
      <path d="M82.772,58.416l.092-.443c.129-.59-.018-.894-.323-.894-.507-.009-.692.268-.784.72L81.02,61.22c-.083.387.027.617.451.617.554,0,.719-.571.812-1l.129-.627h1.623l-.175.848a2.519,2.519,0,0,1-2.776,2.02c-1.494,0-1.909-.793-1.605-2.2l.6-2.841a2.438,2.438,0,0,1,2.646-2.2c1.384,0,2.094.591,1.789,2l-.119.581Z" fill="#fff"/>
      <path d="M85.344,56H89.55l-.287,1.383H87.954l-1.18,5.534H85.15l1.181-5.534H85.058Z" fill="#fff"/>
      <path d="M90.342,62.917H88.719L90.185,56h2.371c1.327,0,1.88.535,1.585,1.909a1.926,1.926,0,0,1-1.189,1.577V59.5a.743.743,0,0,1,.609.9c-.074.553-.314,1.743-.314,2.186a.516.516,0,0,0,.1.24l-.019.092H91.559a1.421,1.421,0,0,1-.009-.4c.1-.608.258-1.18.305-1.605s-.028-.7-.4-.728h-.535Zm.848-3.975h.553c.471,0,.674-.433.756-.857.176-.821-.156-.858-.949-.84Z" fill="#fff"/>
      <path d="M98.6,60.713c-.332,1.558-1.051,2.37-2.692,2.37s-2.038-.812-1.706-2.37l.6-2.813a2.473,2.473,0,0,1,2.646-2.066c1.421,0,2.03.738,1.753,2.066Zm-1.051-2.7c.092-.424.166-.931-.369-.931-.516,0-.692.507-.784.931l-.6,2.841c-.093.4-.148.986.378.986s.682-.59.774-.986Z" fill="#fff"/>
      <path d="M101.121,59.043l-.018.019-.673,3.855H98.89L100.356,56h1.669l.434,3.864h.027L103.15,56h1.541l-1.467,6.917h-1.66Z" fill="#fff"/>
      <path d="M104.044,62.917,105.51,56h1.623l-1.466,6.917Z" fill="#fff"/>
      <path d="M110.177,58.416l.092-.443c.129-.59-.018-.894-.323-.894-.507-.009-.692.268-.784.72l-.737,3.421c-.083.387.027.617.451.617.554,0,.719-.571.812-1l.129-.627h1.623l-.175.848a2.519,2.519,0,0,1-2.776,2.02c-1.493,0-1.909-.793-1.605-2.2l.6-2.841a2.438,2.438,0,0,1,2.647-2.2c1.383,0,2.093.591,1.789,2l-.121.581Z" fill="#fff"/>
      <path d="M113.4,60.6l-.1.489c-.083.4-.027.746.489.746a.774.774,0,0,0,.691-.691c.121-.581-.313-.8-.681-1.06a3.463,3.463,0,0,1-1.033-.9,1.753,1.753,0,0,1-.176-1.383,2.33,2.33,0,0,1,2.453-1.965c1.411,0,1.937.941,1.586,2.241h-1.494c.065-.406.2-.959-.322-1a.615.615,0,0,0-.665.461.681.681,0,0,0,.3.849,8.584,8.584,0,0,1,1.31.977,1.751,1.751,0,0,1,.249,1.651,2.409,2.409,0,0,1-2.527,2.066c-1.485,0-1.937-.83-1.743-1.743l.156-.738Z" fill="#fff"/>
    </g>
  </g>
</svg>
