<?xml version="1.0" encoding="utf-8"?>
<!-- Generator: Adobe Illustrator 26.0.0, SVG Export Plug-In . SVG Version: 6.00 Build 0)  -->
<svg version="1.1" id="Layer_1" xmlns="http://www.w3.org/2000/svg" xmlns:xlink="http://www.w3.org/1999/xlink" x="0px" y="0px"
	 viewBox="0 0 179.90373 50.38205" style="enable-background:new 0 0 179.90373 50.38205;" xml:space="preserve">
<style type="text/css">
	.st0{fill:#FFFFFF;}
</style>
<g>
	<path class="st0" d="M31.98622,0.07509h9.46071v6.23206h-9.46071V0.07509z"/>
	<path class="st0" d="M76.66181,0.07509h9.46072v6.23206h-9.46072V0.07509z"/>
	<path class="st0" d="M91.22831,0.07509h10.02385l0.03754,0.03754v39.49472l-0.33788,0.03754h-9.08529l-0.07509-0.07508
		l-0.37542,0.07508l-0.18771-0.03754V0.07509z"/>
	<path class="st0" d="M112.47737,0.07509l10.88733,0.03754l-9.98631,19.44702l10.28664,20.0477l-0.18771,0.03754l-0.15017-0.07508
		l-0.07508,0.07508h-9.76105h-0.15017l-0.15017-0.07508l-0.15017,0.07508l-0.2628-0.11263l-9.31054-18.09549l-0.90102-1.95221
		l8.48461-16.44362L112.47737,0.07509z"/>
	<path class="st0" d="M32.09885,9.83614l0.07508,0.07508h9.273v29.69613l-0.03754,0.03754H32.3241h-0.15017l-0.18771-0.11263
		V9.94877L32.09885,9.83614z"/>
	<path class="st0" d="M55.52538,9.83614l0.07508,0.07508h15.91802h0.15017l0.18771,0.03754v40.3582H55.1875v-6.23206h7.43342
		v-4.39247l-0.11263-0.11263l-0.22525,0.07508h-7.05799l-0.07508-0.07508h-0.82594l-0.07508-0.07508L53.423,39.41964
		l-1.72696-0.5256l-1.20136-0.60068l-1.27645-0.90102l-1.01365-1.01365l-0.82594-1.12628l-0.67576-1.27644l-0.45051-1.35153
		l-0.22525-1.20136v-0.75085l-0.07508-0.07508V18.95897l0.07508-0.07508v-0.75085l0.07508-0.07508l0.07508-0.82594l0.5256-1.65187
		l1.05119-1.87713l1.08873-1.2389l1.42661-1.12628l1.65187-0.82594l1.5017-0.45051h0.37543l0.52559-0.15017h1.12628
		L55.52538,9.83614z M55.86326,16.0682l-0.15017,0.15017l0.07508,0.07508v16.66887v0.15017l-0.07508,0.22526l0.15017,0.07508
		h6.45731l0.07508-0.07508V16.21837l-0.07508-0.15017H55.86326z"/>
	<path class="st0" d="M76.69936,9.83614l0.07508,0.07508h9.08529l0.2628-0.03754l-0.03754,29.77121h-0.15017h-9.08529
		l-0.07509-0.07508l-0.11263,0.03754L76.69936,9.83614z"/>
	<path class="st0" d="M134.1394,9.83614l0.07509,0.07508h7.35832l0.07509,0.07509h0.52559l0.75085,0.15017l1.20137,0.37543
		l1.27644,0.60068l1.20135,0.82594l0.93857,0.86348l0.67577,0.82594l0.9761,1.65187l0.52559,1.42662l0.22525,1.05119v0.45051
		l0.07509,0.07509v10.62453h-15.73032l-0.03754,0.03754v4.35493l0.11263,0.11263h12.72691v6.11943l-0.11263,0.11263
		l-0.30034-0.07508l-0.07509,0.07508h-12.83954l-0.07509-0.07508h-0.75085l-0.07507-0.07508h-0.15018h-0.37543l-1.27644-0.30034
		l-1.65187-0.67577l-1.20135-0.75085l-1.53925-1.46416l-0.67577-0.90102l-0.75085-1.42662l-0.37543-1.05119l-0.30034-1.5017V30.8224
		l-0.07509-0.07508V19.10914v-0.15017l0.07509-0.90102l0.30034-1.42661l0.67577-1.72696l0.9761-1.5017l1.01365-1.08873
		l1.27644-0.97611l1.65187-0.82594l1.95221-0.52559l1.65187-0.07509L134.1394,9.83614z M134.40221,16.0682l-0.15018,0.15017v6.38223
		l0.15018,0.07508h6.45731V16.0682H134.40221z"/>
	<path class="st0" d="M170.48056,9.83614l0.07507,0.07508h9.3481v40.39574H163.4601v-6.23206h7.35834v-4.39247l-0.11263-0.11263
		l-0.07509,0.07508h-6.68257l-0.07507-0.07508l-0.30034,0.07508l-0.07509-0.07508h-0.82594l-0.07507-0.07508l-0.82594-0.07508
		l-0.90102-0.22525l-1.35153-0.5256l-1.57678-0.9761l-1.38908-1.31399l-0.82593-1.12628l-0.5256-0.9761l-0.52559-1.42661
		l-0.30034-1.5017v-1.12628l-0.07509-0.07508V9.91122h9.5358v23.46407l0.03755,0.03754h6.49484V9.94877L170.48056,9.83614z"/>
	<path class="st0" d="M32.3241,0h9.08529l0.11263,0.11263l-0.03754,6.11943l-0.03754-6.15697H32.3241V0z"/>
	<path class="st0" d="M76.84953,0l9.12283,0.03754l-9.12283,0.03754V0z"/>
	<path class="st0" d="M91.4911,0l9.49826,0.03754L91.4911,0.07509V0z"/>
	<path class="st0" d="M101.10199,0l0.26279,0.11263l-0.03754,39.45718L101.2897,0.07509h-0.18771V0z"/>
	<path class="st0" d="M112.96542,0l10.39928,0.03754l-10.39928,0.03754V0z"/>
	<path class="st0" d="M32.17393,9.83614h9.23546l0.11263,0.11263l-0.03754,29.62104L41.44693,9.91122h-9.273V9.83614z"/>
	<path class="st0" d="M55.60046,9.83614l15.95557,0.03754L55.60046,9.91122V9.83614z"/>
	<path class="st0" d="M71.66866,9.83614l0.18771,0.03754l-0.18771,0.03754V9.83614z"/>
	<path class="st0" d="M76.77444,9.83614l9.12283,0.03754l-9.12283,0.03754V9.83614z"/>
	<path class="st0" d="M134.21449,9.83614l6.41977,0.03754l-6.41977,0.03754V9.83614z"/>
	<path class="st0" d="M154.33728,9.83614l9.49825,0.03754l-9.49825,0.03754V9.83614z"/>
	<path class="st0" d="M170.55563,9.83614l9.3481,0.03754l-9.3481,0.03754V9.83614z"/>
	<path class="st0" d="M127.68209,12.16377l-0.07509,0.15017L127.68209,12.16377z"/>
	<path class="st0" d="M49.06807,12.23886l-0.15017,0.22526L49.06807,12.23886z"/>
	<path class="st0" d="M146.97894,12.23886l0.15016,0.22526L146.97894,12.23886z"/>
	<path class="st0" d="M48.54247,12.76445l-0.15017,0.22526L48.54247,12.76445z"/>
	<path class="st0" d="M147.57962,12.83954l0.07509,0.15017L147.57962,12.83954z"/>
	<path class="st0" d="M126.85616,12.98971l-0.07509,0.15017L126.85616,12.98971z"/>
	<path class="st0" d="M134.28957,16.21837l0.03755,6.11943h-0.07509L134.28957,16.21837z"/>
	<path class="st0" d="M124.52852,18.47092l0.03754,0.2628h-0.07509L124.52852,18.47092z"/>
	<path class="st0" d="M45.98958,18.69617l0.03754,0.18771h-0.07508L45.98958,18.69617z"/>
	<path class="st0" d="M150.05743,18.92143l0.03754,9.87368h-0.07509L150.05743,18.92143z"/>
	<path class="st0" d="M134.28957,29.05791l0.03755,4.16722h-0.07509L134.28957,29.05791z"/>
	<path class="st0" d="M154.33728,30.18418l0.03754,0.48805h-0.07509L154.33728,30.18418z"/>
	<path class="st0" d="M45.98958,30.63469l0.03754,0.18771h-0.07508L45.98958,30.63469z"/>
	<path class="st0" d="M124.52852,30.78486l0.03754,0.18771h-0.07509L124.52852,30.78486z"/>
	<path class="st0" d="M126.55582,36.1159l0.07508,0.15017L126.55582,36.1159z"/>
	<path class="st0" d="M24.96577,36.64149l-0.07509,0.15017L24.96577,36.64149z"/>
	<path class="st0" d="M24.21492,37.39234l-0.07508,0.15017L24.21492,37.39234z"/>
	<path class="st0" d="M146.6786,39.56981l0.26279,0.03754l-0.26279,0.03754V39.56981z"/>
	<path class="st0" d="M55.37521,50.30697l16.10574,0.03754l-16.10574,0.03754V50.30697z"/>
	<path class="st0" d="M164.02324,50.30697l15.88049,0.03754l-15.88049,0.03754V50.30697z"/>
	<path class="st0" d="M31.94868,0l0.03754,6.2696h-0.07508L31.94868,0z"/>
	<path class="st0" d="M76.62427,0l0.03754,6.2696h-0.07508L76.62427,0z"/>
	<path class="st0" d="M19.10914,0.07509l0.18771,0.03754l-0.18771,0.03754V0.07509z"/>
	<path class="st0" d="M86.16007,0.07509l0.03754,6.11943h-0.07508L86.16007,0.07509z"/>
	<path class="st0" d="M19.63474,0.15017l0.18771,0.03754l-0.18771,0.03754V0.15017z"/>
	<path class="st0" d="M112.13949,0.75085l-0.03754,0.11263l-0.7133,1.38907l0.03754-0.11263L112.13949,0.75085z"/>
	<path class="st0" d="M23.16373,1.35153l0.07509,0.15017L23.16373,1.35153z"/>
	<path class="st0" d="M23.8395,1.80204l0.07508,0.15017L23.8395,1.80204z"/>
	<path class="st0" d="M24.13984,2.0273l0.15017,0.22526L24.13984,2.0273z"/>
	<path class="st0" d="M24.66543,2.47781l0.30034,0.37543L24.66543,2.47781z"/>
	<path class="st0" d="M121.97562,2.85323l-0.03754,0.11263l-0.03754,0.11263L121.863,2.96586L121.97562,2.85323z"/>
	<path class="st0" d="M25.19103,3.07849l0.22526,0.30034L25.19103,3.07849z"/>
	<path class="st0" d="M25.49137,3.45391l0.15017,0.22526L25.49137,3.45391z"/>
	<path class="st0" d="M121.67529,3.45391l-0.07508,0.15017L121.67529,3.45391z"/>
	<path class="st0" d="M25.71662,3.75425l0.07509,0.15017L25.71662,3.75425z"/>
	<path class="st0" d="M110.56271,3.82934l-0.03754,0.11263l-0.71331,1.38907l0.03754-0.11263L110.56271,3.82934z"/>
	<path class="st0" d="M25.86679,3.97951l0.07508,0.15017L25.86679,3.97951z"/>
	<path class="st0" d="M26.09205,4.35493l0.33788,0.63822h-0.07508L26.09205,4.35493z"/>
	<path class="st0" d="M26.54256,5.25595l0.11263,0.2628H26.5801L26.54256,5.25595z"/>
	<path class="st0" d="M26.8429,6.08189l0.03754,0.18771h-0.07508L26.8429,6.08189z"/>
	<path class="st0" d="M26.91798,6.38223l0.03754,0.18771h-0.07508L26.91798,6.38223z"/>
	<path class="st0" d="M120.17358,6.38223l-0.03754,0.11263l-0.03754,0.11263l-0.03754-0.11263L120.17358,6.38223z"/>
	<path class="st0" d="M26.99307,6.68257l0.03754,0.18771h-0.07509L26.99307,6.68257z"/>
	<path class="st0" d="M119.94833,6.75765l0.03754,0.11263l-0.15017,0.07509L119.94833,6.75765z"/>
	<path class="st0" d="M108.98592,6.90782l-0.03754,0.11263l-0.7133,1.38907l0.03754-0.11263L108.98592,6.90782z"/>
	<path class="st0" d="M27.06815,7.05799l0.03754,0.2628h-0.07508L27.06815,7.05799z"/>
	<path class="st0" d="M119.79816,7.05799l0.03754,0.11263l-0.18771,0.2628l0.03754-0.11263L119.79816,7.05799z"/>
	<path class="st0" d="M27.14324,7.5085l0.03754,0.33788H27.1057L27.14324,7.5085z"/>
	<path class="st0" d="M27.21832,8.33444l0.03754,22.3378h-0.07508L27.21832,8.33444z"/>
	<path class="st0" d="M118.82205,9.0102l-0.03754,0.11263l-0.11263,0.2628L118.63435,9.273L118.82205,9.0102z"/>
	<path class="st0" d="M118.5968,9.46071l-0.03754,0.11263l-0.11263,0.18771l0.03754-0.11263L118.5968,9.46071z"/>
	<path class="st0" d="M31.94868,9.83614l0.03754,29.77121h-0.07508L31.94868,9.83614z"/>
	<path class="st0" d="M54.69944,9.83614l0.78839,0.03754l-0.78839,0.03754V9.83614z"/>
	<path class="st0" d="M76.62427,9.83614l0.03754,29.77121h-0.07508L76.62427,9.83614z"/>
	<path class="st0" d="M118.37154,9.83614l0.03754,0.11263l-0.33788,0.56314l0.03754-0.11263L118.37154,9.83614z"/>
	<path class="st0" d="M133.23839,9.83614l0.7133,0.03754l-0.7133,0.03754V9.83614z"/>
	<path class="st0" d="M140.6718,9.83614l0.7133,0.03754l-0.7133,0.03754V9.83614z"/>
	<path class="st0" d="M54.02368,9.91122l0.2628,0.03754l-0.2628,0.03754V9.91122z"/>
	<path class="st0" d="M86.16007,9.91122l0.03754,29.62104h-0.07508L86.16007,9.91122z"/>
	<path class="st0" d="M132.56262,9.91122l0.26279,0.03754l-0.26279,0.03754V9.91122z"/>
	<path class="st0" d="M141.79808,9.91122l0.26279,0.03754l-0.26279,0.03754V9.91122z"/>
	<path class="st0" d="M107.40913,9.98631l-0.03754,0.11263l-0.71331,1.38907l0.03754-0.11263L107.40913,9.98631z"/>
	<path class="st0" d="M132.11211,9.98631l0.18771,0.03754l-0.18771,0.03754V9.98631z"/>
	<path class="st0" d="M142.32367,9.98631l0.18771,0.03754l-0.18771,0.03754V9.98631z"/>
	<path class="st0" d="M50.56977,11.11258l-0.07508,0.15017L50.56977,11.11258z"/>
	<path class="st0" d="M145.47723,11.11258l0.07509,0.15017L145.47723,11.11258z"/>
	<path class="st0" d="M128.95854,11.18767l-0.07509,0.15017L128.95854,11.18767z"/>
	<path class="st0" d="M128.73328,11.33784l-0.07509,0.15017L128.73328,11.33784z"/>
	<path class="st0" d="M128.50803,11.48801l-0.07509,0.15017L128.50803,11.48801z"/>
	<path class="st0" d="M49.66875,11.71326l-0.07508,0.15017L49.66875,11.71326z"/>
	<path class="st0" d="M128.20769,11.71326l-0.07509,0.15017L128.20769,11.71326z"/>
	<path class="st0" d="M146.37827,11.71326l0.07507,0.15017L146.37827,11.71326z"/>
	<path class="st0" d="M127.90734,11.93852l-0.15017,0.22526L127.90734,11.93852z"/>
	<path class="st0" d="M49.29332,12.0136l-0.15017,0.22526L49.29332,12.0136z"/>
	<path class="st0" d="M146.75369,12.0136l0.15016,0.22526L146.75369,12.0136z"/>
	<path class="st0" d="M117.24527,12.08869l-0.03754,0.11263l-0.18771,0.41297l-0.03754-0.11263L117.24527,12.08869z"/>
	<path class="st0" d="M116.94493,12.68937l-0.03754,0.11263l-0.41296,0.78839l0.03754-0.11263L116.94493,12.68937z"/>
	<path class="st0" d="M48.31721,12.98971l-0.22525,0.30034L48.31721,12.98971z"/>
	<path class="st0" d="M147.7298,12.98971l0.22525,0.30034L147.7298,12.98971z"/>
	<path class="st0" d="M126.70599,13.13988l-0.15017,0.22526L126.70599,13.13988z"/>
	<path class="st0" d="M47.94179,13.44022l-0.07508,0.15017L47.94179,13.44022z"/>
	<path class="st0" d="M148.10521,13.44022l0.07509,0.15017L148.10521,13.44022z"/>
	<path class="st0" d="M126.40565,13.5153l-0.07509,0.15017L126.40565,13.5153z"/>
	<path class="st0" d="M47.71653,13.74056l-0.07508,0.15017L47.71653,13.74056z"/>
	<path class="st0" d="M148.33047,13.74056l0.07509,0.15017L148.33047,13.74056z"/>
	<path class="st0" d="M105.45692,13.81565l-0.03754,0.11263l-0.33788,0.63822l0.03754-0.11263L105.45692,13.81565z"/>
	<path class="st0" d="M126.18039,13.81565l-0.07509,0.15017L126.18039,13.81565z"/>
	<path class="st0" d="M47.56636,13.96581l-0.07508,0.15017L47.56636,13.96581z"/>
	<path class="st0" d="M148.48064,13.96581l0.07509,0.15017L148.48064,13.96581z"/>
	<path class="st0" d="M126.03022,14.0409l-0.07509,0.15017L126.03022,14.0409z"/>
	<path class="st0" d="M47.41619,14.19107l-0.07508,0.15017L47.41619,14.19107z"/>
	<path class="st0" d="M148.63081,14.19107l0.07509,0.15017L148.63081,14.19107z"/>
	<path class="st0" d="M125.80496,14.41633l-0.07508,0.15017L125.80496,14.41633z"/>
	<path class="st0" d="M148.93115,14.71667l0.33788,0.63822h-0.07507L148.93115,14.71667z"/>
	<path class="st0" d="M115.66849,15.16718l-0.03754,0.11263l-0.78839,1.53924l0.03754-0.11263L115.66849,15.16718z"/>
	<path class="st0" d="M55.82572,16.0682l6.41977,0.03754l-6.41977,0.03754V16.0682z"/>
	<path class="st0" d="M134.36465,16.0682l6.49486,0.03754l-6.49486,0.03754l-0.07509,0.07509L134.36465,16.0682z"/>
	<path class="st0" d="M62.35812,16.29345l0.03754,16.85659h-0.07508L62.35812,16.29345z"/>
	<path class="st0" d="M103.88013,16.89413l-0.07508,0.15017L103.88013,16.89413z"/>
	<path class="st0" d="M114.76746,16.89413l0.03754,0.11263l-0.2628,0.41297l0.03754-0.11263L114.76746,16.89413z"/>
	<path class="st0" d="M103.72997,17.11939l0.03754,0.11263l-0.2628,0.41297l0.03754-0.11263L103.72997,17.11939z"/>
	<path class="st0" d="M46.13975,17.34464l0.03754,0.18771h-0.07508L46.13975,17.34464z"/>
	<path class="st0" d="M149.90726,17.34464l0.03754,0.18771h-0.07507L149.90726,17.34464z"/>
	<path class="st0" d="M124.6036,17.64498l0.03754,0.18771h-0.07508L124.6036,17.64498z"/>
	<path class="st0" d="M149.98235,17.72007l0.03754,0.33788h-0.07509L149.98235,17.72007z"/>
	<path class="st0" d="M46.06466,17.79515l0.03754,0.18771h-0.07508L46.06466,17.79515z"/>
	<path class="st0" d="M124.52852,18.17058l0.03754,0.2628h-0.07509L124.52852,18.17058z"/>
	<path class="st0" d="M114.0917,18.24566l-0.03754,0.11263l-0.63822,1.2389l0.03754-0.11263L114.0917,18.24566z"/>
	<path class="st0" d="M150.05743,18.24566l0.03754,0.63822h-0.07509L150.05743,18.24566z"/>
	<path class="st0" d="M45.98958,18.39583l0.03754,0.2628h-0.07508L45.98958,18.39583z"/>
	<path class="st0" d="M124.45343,19.14668l0.03754,11.22521h-0.07508L124.45343,19.14668z"/>
	<path class="st0" d="M102.5286,19.52211l0.11263,0.18771l-0.15017-0.07508L102.5286,19.52211z"/>
	<path class="st0" d="M113.49102,19.67228l0.48805,0.86348l-0.15017-0.07508L113.49102,19.67228z"/>
	<path class="st0" d="M103.65488,21.77466l0.41297,0.71331l-0.15017-0.07509L103.65488,21.77466z"/>
	<path class="st0" d="M114.69238,21.99991l0.26279,0.48805h-0.07509L114.69238,21.99991z"/>
	<path class="st0" d="M134.28957,22.52551l0.07509,0.07508l6.49486,0.03754l-6.49486,0.03754L134.28957,22.52551z"/>
	<path class="st0" d="M114.99272,22.60059l0.41296,0.71331l-0.15017-0.07508L114.99272,22.60059z"/>
	<path class="st0" d="M115.44323,23.42653l0.11263,0.18771l-0.15017-0.07508L115.44323,23.42653z"/>
	<path class="st0" d="M105.0815,24.5528l0.41296,0.71331l-0.15017-0.07508L105.0815,24.5528z"/>
	<path class="st0" d="M116.41933,25.37874l0.48805,0.86348l-0.15017-0.07508L116.41933,25.37874z"/>
	<path class="st0" d="M106.50811,27.33095l0.41297,0.71331l-0.15017-0.07508L106.50811,27.33095z"/>
	<path class="st0" d="M117.84595,28.15689l0.48805,0.86348l-0.15017-0.07508L117.84595,28.15689z"/>
	<path class="st0" d="M107.03371,28.30705l0.18771,0.33788l-0.15017-0.07508L107.03371,28.30705z"/>
	<path class="st0" d="M150.05743,28.83265l-0.07509,0.15017L150.05743,28.83265z"/>
	<path class="st0" d="M107.93473,30.1091l0.7133,1.31399l-0.15017-0.07508L107.93473,30.1091z"/>
	<path class="st0" d="M154.33728,30.70978l0.03754,0.56314h-0.07509L154.33728,30.70978z"/>
	<path class="st0" d="M45.98958,30.85995l0.03754,0.2628h-0.07508L45.98958,30.85995z"/>
	<path class="st0" d="M124.52852,31.01012l0.03754,0.33788h-0.07509L124.52852,31.01012z"/>
	<path class="st0" d="M27.14324,31.0852l0.03754,0.48805H27.1057L27.14324,31.0852z"/>
	<path class="st0" d="M119.34765,31.0852l0.2628,0.48805h-0.07509L119.34765,31.0852z"/>
	<path class="st0" d="M154.41235,31.46063l0.03755,0.33788h-0.07509L154.41235,31.46063z"/>
	<path class="st0" d="M46.06466,31.53571l0.03754,0.18771h-0.07508L46.06466,31.53571z"/>
	<path class="st0" d="M124.6036,31.6108l0.03754,0.18771h-0.07508L124.6036,31.6108z"/>
	<path class="st0" d="M119.64799,31.68588l0.07509,0.15017L119.64799,31.68588z"/>
	<path class="st0" d="M27.06815,31.83605l0.03754,0.2628h-0.07508L27.06815,31.83605z"/>
	<path class="st0" d="M154.48744,31.91114l0.03754,0.2628h-0.07507L154.48744,31.91114z"/>
	<path class="st0" d="M46.13975,31.98622l0.03754,0.18771h-0.07508L46.13975,31.98622z"/>
	<path class="st0" d="M124.67869,32.06131l0.03754,0.18771h-0.07509L124.67869,32.06131z"/>
	<path class="st0" d="M26.99307,32.28656l0.03754,0.2628h-0.07509L26.99307,32.28656z"/>
	<path class="st0" d="M154.56253,32.28656l0.03754,0.2628h-0.07509L154.56253,32.28656z"/>
	<path class="st0" d="M26.91798,32.66199l0.03754,0.18771h-0.07508L26.91798,32.66199z"/>
	<path class="st0" d="M109.36134,32.88724l0.78839,1.46416l-0.15017-0.07508L109.36134,32.88724z"/>
	<path class="st0" d="M154.71269,32.88724l0.2628,0.78839h-0.07509l-0.22525-0.60068L154.71269,32.88724z"/>
	<path class="st0" d="M26.8429,32.96233l0.03754,0.18771h-0.07508L26.8429,32.96233z"/>
	<path class="st0" d="M62.35812,33.26267l-0.07508,0.15017l-6.49486-0.03754l6.49486-0.03754L62.35812,33.26267z"/>
	<path class="st0" d="M134.28957,33.26267l0.07509,0.07508h12.68938l0.11263,0.11263l-0.03755,6.11943l-0.03754-6.15697h-12.72691
		L134.28957,33.26267z"/>
	<path class="st0" d="M163.94815,33.33775l6.41977,0.03754l-6.41977,0.03754V33.33775z"/>
	<path class="st0" d="M155.01305,33.78826l0.11263,0.2628h-0.07509L155.01305,33.78826z"/>
	<path class="st0" d="M120.77427,33.86335l0.11263,0.18771h-0.07509L120.77427,33.86335z"/>
	<path class="st0" d="M26.46747,34.16369l0.03754,0.11263l-0.11263,0.18771l-0.03754-0.11263L26.46747,34.16369z"/>
	<path class="st0" d="M155.2383,34.31386l0.18771,0.33788l-0.15018-0.07508L155.2383,34.31386z"/>
	<path class="st0" d="M121.07461,34.46403l0.07508,0.15017L121.07461,34.46403z"/>
	<path class="st0" d="M125.57971,34.68928l0.07508,0.15017L125.57971,34.68928z"/>
	<path class="st0" d="M26.16713,34.83945l0.03754,0.11263l-0.18771,0.2628l0.03754-0.11263L26.16713,34.83945z"/>
	<path class="st0" d="M155.53864,34.91454l0.18771,0.26279l-0.15018-0.07508L155.53864,34.91454z"/>
	<path class="st0" d="M47.26603,35.06471l0.07508,0.15017L47.26603,35.06471z"/>
	<path class="st0" d="M125.88005,35.21488l0.07508,0.15017L125.88005,35.21488z"/>
	<path class="st0" d="M155.76389,35.28996l0.07509,0.15017L155.76389,35.28996z"/>
	<path class="st0" d="M25.86679,35.44013l-0.03754,0.11263l-0.11263,0.18771l0.03754-0.11263L25.86679,35.44013z"/>
	<path class="st0" d="M126.03022,35.44013l0.07508,0.15017L126.03022,35.44013z"/>
	<path class="st0" d="M155.91406,35.51522l0.07509,0.15017L155.91406,35.51522z"/>
	<path class="st0" d="M110.78796,35.66539l0.78839,1.46416l-0.15017-0.07508L110.78796,35.66539z"/>
	<path class="st0" d="M126.18039,35.66539l0.07508,0.15017L126.18039,35.66539z"/>
	<path class="st0" d="M47.71653,35.74047l0.07508,0.15017L47.71653,35.74047z"/>
	<path class="st0" d="M156.06422,35.74047l0.41298,0.48805l-0.30035-0.22526L156.06422,35.74047z"/>
	<path class="st0" d="M25.64154,35.81556l-0.07508,0.15017L25.64154,35.81556z"/>
	<path class="st0" d="M126.40565,35.96573l0.07508,0.15017L126.40565,35.96573z"/>
	<path class="st0" d="M25.49137,36.04081l-0.15017,0.22525L25.49137,36.04081z"/>
	<path class="st0" d="M47.94179,36.04081l0.15017,0.22525L47.94179,36.04081z"/>
	<path class="st0" d="M25.26611,36.34115l-0.22525,0.30034L25.26611,36.34115z"/>
	<path class="st0" d="M126.78107,36.41624l0.82594,0.90102L126.78107,36.41624z"/>
	<path class="st0" d="M156.58983,36.41624l0.82593,0.90102L156.58983,36.41624z"/>
	<path class="st0" d="M48.31721,36.49132l0.67577,0.75085L48.31721,36.49132z"/>
	<path class="st0" d="M24.89069,36.79166l-0.52559,0.60068L24.89069,36.79166z"/>
	<path class="st0" d="M122.50122,37.24217l0.07509,0.15017L122.50122,37.24217z"/>
	<path class="st0" d="M157.64102,37.39234l0.22525,0.30034L157.64102,37.39234z"/>
	<path class="st0" d="M49.3684,37.46743l0.15017,0.22525L49.3684,37.46743z"/>
	<path class="st0" d="M127.90734,37.46743l0.15017,0.22525L127.90734,37.46743z"/>
	<path class="st0" d="M24.06475,37.54251l-0.15017,0.22525L24.06475,37.54251z"/>
	<path class="st0" d="M49.66875,37.69268l0.07508,0.15017L49.66875,37.69268z"/>
	<path class="st0" d="M158.01643,37.69268l0.15018,0.22525L158.01643,37.69268z"/>
	<path class="st0" d="M128.28278,37.76777l0.07507,0.15017L128.28278,37.76777z"/>
	<path class="st0" d="M23.68933,37.84285l-0.07509,0.15017L23.68933,37.84285z"/>
	<path class="st0" d="M49.96909,37.91794l0.07508,0.15017L49.96909,37.91794z"/>
	<path class="st0" d="M158.31677,37.91794l0.07509,0.15017L158.31677,37.91794z"/>
	<path class="st0" d="M23.46407,37.99302l-0.07508,0.15017L23.46407,37.99302z"/>
	<path class="st0" d="M128.73328,38.06811l0.07509,0.15017L128.73328,38.06811z"/>
	<path class="st0" d="M23.23882,38.14319l-0.07509,0.15017L23.23882,38.14319z"/>
	<path class="st0" d="M129.1087,38.29337l0.07509,0.15017L129.1087,38.29337z"/>
	<path class="st0" d="M22.86339,38.36845l-0.07509,0.15017L22.86339,38.36845z"/>
	<path class="st0" d="M50.71994,38.36845l0.07508,0.15017L50.71994,38.36845z"/>
	<path class="st0" d="M112.21458,38.44353l0.63822,1.16382l-0.15017-0.07508L112.21458,38.44353z"/>
	<path class="st0" d="M20.16033,39.34455l0.18771,0.03754l-0.18771,0.03754V39.34455z"/>
	<path class="st0" d="M19.18423,39.49472l0.2628,0.03754l-0.2628,0.03754V39.49472z"/>
	<path class="st0" d="M54.02368,39.49472l0.18771,0.03754l-0.18771,0.03754V39.49472z"/>
	<path class="st0" d="M132.48753,39.49472l0.2628,0.03754l-0.2628,0.03754V39.49472z"/>
	<path class="st0" d="M162.29628,39.49472l0.2628,0.03754l-0.2628,0.03754V39.49472z"/>
	<path class="st0" d="M54.62436,39.56981l0.56314,0.03754l-0.56314,0.03754V39.56981z"/>
	<path class="st0" d="M133.1633,39.56981l0.48805,0.03754l-0.48805,0.03754V39.56981z"/>
	<path class="st0" d="M162.97205,39.56981l0.48805,0.03754l-0.48805,0.03754V39.56981z"/>
	<path class="st0" d="M170.7809,39.64489l0.03754,4.39248h-0.07509L170.7809,39.64489z"/>
	<path class="st0" d="M163.42256,44.07491l0.03754,6.2696h-0.07507L163.42256,44.07491z"/>
	<path class="st0" d="M71.66866,50.30697l0.18771,0.03754l-0.18771,0.03754V50.30697z"/>
	<path class="st0" d="M91.19077,0.07509l0.03754,39.45718h-0.07509L91.19077,0.07509z"/>
	<path class="st0" d="M24.51526,2.32764l0.07508,0.15017L24.51526,2.32764z"/>
	<path class="st0" d="M25.04086,2.85323l0.07508,0.15017L25.04086,2.85323z"/>
	<path class="st0" d="M71.89391,9.91122l0.03754,40.3582h-0.07509L71.89391,9.91122z"/>
	<path class="st0" d="M127.45683,12.31394l-0.30034,0.37542L127.45683,12.31394z"/>
	<path class="st0" d="M127.00632,12.76445l-0.07509,0.15017L127.00632,12.76445z"/>
	<path class="st0" d="M134.36465,28.90774l15.58014,0.03754l-15.58014,0.03754V28.90774z"/>
	<path class="st0" d="M49.06807,37.24217l0.07508,0.15017L49.06807,37.24217z"/>
	<path class="st0" d="M62.58337,39.94524l0.03754,4.09213h-0.07508L62.58337,39.94524z"/>
	<path class="st0" d="M27.10569,8.07164V7.47095l-0.15017-0.82594l-0.52559-1.57679L26.0545,4.31738l-0.9761-1.35153
		l-1.31399-1.16382l-1.57679-0.90102L20.3105,0.30033l-1.35153-0.15017l-0.07508-0.07509H0v39.56981h17.60744l0.07508-0.07508
		l0.18771,0.03754l-0.04693,0.00939l0.08447,0.02816l0.15017-0.07508l1.57679-0.07508l2.0273-0.5256l1.42661-0.67577
		l1.20136-0.90102l1.01365-1.08873l1.05119-1.80204l0.60068-1.95221l0.15017-0.82594v-0.67577l0.07509-0.07508V8.14672
		L27.10569,8.07164z M17.11939,6.68256v26.42993h-0.11263h-6.79519h-0.03754v-0.01877l-0.11263-0.05631l0.07508-0.07508V6.75765
		V6.60748h6.87028h0.11263V6.68256z"/>
</g>
</svg>
