<?xml version="1.0" encoding="utf-8"?>
<!-- Generator: Adobe Illustrator 26.0.0, SVG Export Plug-In . SVG Version: 6.00 Build 0)  -->
<svg version="1.1" id="Layer_1" xmlns="http://www.w3.org/2000/svg" xmlns:xlink="http://www.w3.org/1999/xlink" x="0px" y="0px"
	 viewBox="0 0 256.90897 59.34097" style="enable-background:new 0 0 256.90897 59.34097;" xml:space="preserve">
<style type="text/css">
	.st0{fill:#FFFFFF;}
</style>
<g>
	<g id="g46_00000156581150079534506180000003800803234156238735_" transform="translate(136.4103,59.3614)">
		<path id="path48_00000174561515000039192100000016037148832627950755_" class="st0" d="M-38.48355-19.17604l-1.50486-18.84983
			h-0.06198l-5.81214,15.0506c-0.53854,1.40223-1.7284,2.55145-3.39584,2.55145c-1.6654,0-2.98533-1.38597-3.39482-2.55145
			l-5.68411-14.86161h-0.06097l-1.6339,18.66084l-5.54491-0.00406l2.8319-26.57124c0.18595-1.46726,1.38902-3.13774,3.02496-3.13774
			c2.50776,0,3.51167,1.46726,4.0116,2.93452l6.41977,16.13377h0.06199l6.41876-16.13377
			c0.56496-1.46726,1.53737-2.93452,4.01363-2.93452c1.63593,0,2.83901,1.67048,3.02394,3.48017l2.8065,26.22881L-38.48355-19.17604
			z"/>
	</g>
	<path id="path50_00000183950236721757861580000002780007388310022075_" class="st0" d="M106.37946,17.71148h5.16792v22.47124
		h-5.16792V17.71148z"/>
	<path id="path52_00000169554942978341382860000014465948530526904496_" class="st0" d="M228.61835,17.71148h5.16792v22.47124
		h-5.16792V17.71148z"/>
	<g id="g54_00000157276847688772603630000001411458744885036175_" transform="translate(152.631,73.7207)">
		<path id="path56_00000091726437385393402480000015670263582429268121_" class="st0" d="M-38.22225-48.12596
			c0-6.58032,2.51894-8.13192,6.75103-8.13192h5.52255c6.68701,0,7.55578-0.43489,7.51209,5.92798l-12.111-0.02032
			c-2.47626,0-2.84917,1.57192-2.84917,4.36622v2.42037c0,3.25866,0.46538,4.50035,2.68761,4.50035l12.46257-0.01016
			c0,3.78602-0.04979,5.78369-4.76758,5.78369h-8.45707c-4.23209,0-6.75103-1.55262-6.75103-8.13293V-48.12596z"/>
	</g>
	<g id="g58_00000010310282148360401740000010625755346696427650_" transform="translate(194.3738,73.507)">
		<path id="path60_00000170974873349075161110000004703517058057769653_" class="st0" d="M-37.54983-47.69511v-1.42764
			c0-4.03497-0.97242-6.6738-4.59078-6.6738h-15.01707v22.47124h4.69849v-5.83551h8.22337
			c1.46015,0,1.92451,0.77732,1.92451,3.13571v2.6998h4.6995v-3.81651c0-3.69355-1.16446-4.59383-2.56161-4.96775v-0.06097
			C-38.01419-42.91636-37.54983-44.6854-37.54983-47.69511 M-42.12029-47.10476c0,1.61256-0.46538,2.35839-1.73552,2.35839h-8.60339
			v-5.46362h8.18069c1.48149,0,2.15822,0.37393,2.15822,2.35941V-47.10476z"/>
	</g>
	<g id="g62_00000176002433642410524220000000810611832522986679_" transform="translate(197.1631,73.7207)">
		<path id="path64_00000034778060700062463220000003783452803453581757_" class="st0" d="M-37.5049-48.12596
			c0-6.58032,2.51792-8.13192,6.75001-8.13192h7.53343c4.23209,0,6.75001,1.5516,6.75001,8.13192v6.70327
			c0,6.58032-2.51792,8.13293-6.75001,8.13293h-7.53343c-4.23209,0-6.75001-1.55262-6.75001-8.13293V-48.12596 M-32.68041-43.56363
			c0,3.25866,0.46639,4.50035,2.68761,4.50035h6.01028c2.22121,0,2.68659-1.24169,2.68659-4.50035V-45.984
			c0-2.7943-0.46538-4.50136-2.94163-4.50136h-5.50121c-2.47524,0-2.94164,1.70706-2.94164,4.50136V-43.56363z"/>
	</g>
	<g id="g66_00000088821298155327339010000011238375556244044211_" transform="translate(242.7647,81.4795)">
		<path id="path68_00000043428648268880916180000004827396073047166881_" class="st0" d="M-36.77031-63.76854h4.69645v8.00795
			h9.90503v-8.00795h4.69747v22.47124h-4.69747v-8.50483h-9.90503v8.50483h-4.69645V-63.76854z"/>
	</g>
	<g id="g70_00000057107573764407239500000000549861744611909025_" transform="translate(287.4161,81.4795)">
		<path id="path72_00000164510985289968400550000001255979843010725796_" class="st0" d="M-36.05104-63.76854h-14.52121v22.47124
			h4.69747v-5.64855h11.05018c3.32369,0,4.31745-3.85004,4.31745-7.20015v-1.92553
			C-30.50715-60.47837-31.58626-63.76854-36.05104-63.76854 M-35.33163-54.92331c0,1.33517-0.4227,2.38989-1.52416,2.38989h-9.01898
			v-5.64855h8.61762c1.41747,0,1.92553,0.86877,1.92553,2.38989V-54.92331z"/>
	</g>
	<g id="g74_00000000208656624354836310000009171551866810056634_" transform="translate(220.3734,73.687)">
		<path id="path76_00000178176158036697514390000000986151702320289664_" class="st0" d="M-37.13101-48.058
			c0-6.58032,2.51792-8.13192,6.75001-8.13192h5.52357c6.68701,0,7.52632-0.43591,7.48364,5.92798l-12.08255-0.02134
			c-2.47727,0-2.85019,1.57294-2.85019,4.36622v2.42037c0,3.25968,0.46639,4.50035,2.68761,4.50035l12.46359-0.01016
			c0,3.78704-0.04877,5.78471-4.76758,5.78471H-30.381c-4.23209,0-6.75001-1.55261-6.75001-8.13395V-48.058z"/>
	</g>
	<g id="g82_00000153700931981341717530000014181392443846165636_" transform="translate(83.6022,96.0287)">
		<path id="path84_00000101804613895249538900000014942993469247906192_" class="st0" d="M-39.33421-93.1013
			c-4.01973-1.89708-7.73665-2.838-12.52049-2.92233c-17.24438-0.29975-31.45669,12.73794-31.74323,29.12066
			c-0.04877,2.83698,0.32211,5.58759,1.0598,8.2l8.91432-12.49712l6.03568,9.44676c0,0,1.81375,2.0566,0.43794,4.13658
			c-0.08535,0.13006-8.18882,11.32351-8.18882,11.32351c5.59673,5.86396,13.47055,9.44371,22.44991,9.60019
			c8.7111,0.15343,16.48738-3.02394,22.24567-8.39001l-18.96059-29.92846c0,0,2.99041-4.19653,5.32847-7.52225
			c2.57482-3.66003,4.89257-1.10452,5.66582,0.10567c5.55913,8.71618,15.9905,25.24725,15.9905,25.24725l0.00508-0.09552
			c1.06895-2.45797,1.61663-3.20277,1.73145-6.7429L-39.33421-93.1013 M-43.83253-57.26417c0,0-5.04701,7.36069-5.56421,8.06282
			c-3.08795,4.19551-5.35896-0.64828-5.35896-0.64828l-16.06061-25.24623c0,0,2.98939-4.19552,5.32949-7.52124
			c2.5738-3.66104,4.89154-1.10451,5.66481,0.10567C-54.26288-73.79626-43.83252-57.26417-43.83253-57.26417"/>
	</g>
</g>
</svg>
