<?xml version="1.0" encoding="utf-8"?>
<!-- Generator: Adobe Illustrator 26.0.0, SVG Export Plug-In . SVG Version: 6.00 Build 0)  -->
<svg version="1.1" id="Layer_1" xmlns="http://www.w3.org/2000/svg" xmlns:xlink="http://www.w3.org/1999/xlink" x="0px" y="0px"
	 viewBox="0 0 947.3924 1085.46838" style="enable-background:new 0 0 947.3924 1085.46838;" xml:space="preserve">
<style type="text/css">
	.st0{fill:none;}
	.st1{fill:#FFFFFF;}
</style>
<g>
	<g>
		<path vector-effect="non-scaling-stroke" class="st0" d="M291.9014,460.02988
			c4.26001,20.22662,10.35669,39.91333,18.28998,59.06003c0.63336,1.53333,1.56671,2.8833,2.80005,4.04999
			c31.67999,29.97003,60.78998,62.29999,92.88,91.87c6.90997,6.37,14.25995,12.72998,22.41998,17.47998
			c0.29114,0.1684,0.63336,0.23187,0.96997,0.18005c16.94672-2.55334,33.4267-6.88666,49.44-13
			c24.3067-9.26007,47.86661-20.10333,70.67996-32.53003c36.16003-19.67999,70.5-41.42999,102.94-66.81
			c18.48999-14.46005,36.97003-31.01004,50.55005-50.30002c1.32001-1.86664,2.09662-3.53998,2.32996-5.02002
			c4.29999-27.20667,7.3067-54.54333,9.02002-82.01001c1.63-26.28998,1.32001-52.92999,0.08002-79.23999
			c-3.22003-68.19998-26.86005-132.91-61.67999-191.45999c-19.02002-31.98001-42.58002-63.94001-70.94-88.42999
			c-5.61005-4.84001-13.83002-10.93001-21.28003-12.10001c-0.33337-0.05334-0.65332-0.00667-0.96002,0.14
			c-39.47998,18.74001-79.24997,36.85001-117.86996,57.33001c-58.46997,31.01999-113.54999,72.54-136.39996,137.12
			c-0.12238,0.3555-0.51257,0.54102-0.87164,0.41443c-0.1156-0.0408-0.21857-0.11133-0.2984-0.20444
			c-14.87-17.62-34.10999-24.87-56.61998-25.53c-27.55002-0.81-57.84,12.36002-70.32001,37.96002
			c-5.76666,11.83334-6.35333,24.14999-1.76001,36.94998c0.88,2.46664,3.05002,6.74667,6.51001,12.84
			c3.42664,6.02667,4.9133,13.26334,4.45999,21.71002c-0.84,15.59998-7.91666,27.18997-21.22998,34.76999
			c-0.32669,0.18671-0.49667,0.46674-0.51001,0.84003l-0.04001,2.14996c-0.01331,0.44666,0.17334,0.78333,0.56,1.01001
			c13.38669,7.65332,20.45667,19.33002,21.21002,35.03003c0.47,9.65997-1.95001,17.42999-6.87003,25.60999
			c-12.26999,20.38-7.97998,42.52997,7.17001,59.42999c21.14999,23.57001,56.92999,28.96002,86.35002,19.96997
			c6.64661-2.03333,12.74664-5.20996,18.29999-9.52997c0.1947-0.14502,0.46912-0.10907,0.61292,0.08026
			C291.8624,459.91025,291.8887,459.96823,291.9014,460.02988"/>
		<path vector-effect="non-scaling-stroke" class="st0" d="M469.38138,760.79993l27.16003-0.01001
			c0.38,0,0.57001-0.18671,0.57001-0.56v-24.51001c0-0.32031-0.25519-0.58002-0.57001-0.58002l0,0l-27.35004-0.03998
			c-0.19885,0-0.35999-0.15674-0.35999-0.35004l0,0v-29.82996c0-0.40002-0.19672-0.60004-0.58997-0.60004l-31.01001,0.03003
			c-0.35339,0-0.52997,0.17664-0.53003,0.52997l-0.01001,29.67999c-0.00006,0.3667-0.18329,0.55005-0.54999,0.55005
			l-19.26001,0.00995c-0.41333-0.00006-0.62,0.20331-0.62,0.61005l-0.01001,24.50995c0,0.37335,0.18665,0.56006,0.56,0.56006
			l19.28003-0.02002c0.38007,0,0.57001,0.19,0.57001,0.57001c0.02667,12.93335,0.04327,25.86658,0.04999,38.79999
			c0.01331,9.60663,0.24005,15.5033,0.67999,17.69c5.29999,26.19,39.41998,26.34003,59.29004,20.48004
			c0.28003-0.08667,0.41998-0.28003,0.41998-0.58008l0.02002-25.72998c0-0.37329-0.17334-0.48663-0.52002-0.33997
			c-5.11334,2.14667-10.44995,2.91998-16.01001,2.31995c-10.65002-1.15997-11.62-9.83997-11.72998-18.46997
			c-0.12665-9.45996-0.11334-20.87665,0.03998-34.25C468.90805,760.9566,469.06802,760.79993,469.38138,760.79993"/>
		<path vector-effect="non-scaling-stroke" class="st0" d="M865.14142,747.7699V704.8399c0-0.31335-0.16003-0.47009-0.4801-0.47003
			l-31.38,0.02002c-0.28662-0.00006-0.42993,0.14667-0.42993,0.44l-0.01001,133.32001c0,0.41333,0.20996,0.62,0.63,0.62h31.10999
			c0.38,0,0.57007-0.18994,0.57007-0.56995c0.0199-15.8067-0.05676-31.61676-0.2301-47.43005
			c-0.16992-15.34003,2.38-32.37,22.56006-29.48999c11.90002,1.70001,13.10999,13.89996,13.09998,23.75
			c-0.00671,17.72662,0,35.47662,0.02002,53.25c0,0.33337,0.17004,0.5,0.51001,0.5h31.20996
			c0.34668,0,0.52002-0.17664,0.52002-0.53003c0.03333-20.58002-0.02002-41.15332-0.16003-61.71997
			c-0.18994-27.91003-10.77002-45.35999-40.81995-43.91998c-11.58667,0.55328-20.40002,5.6333-26.44006,15.23999
			C865.2348,748.1366,865.14142,748.10992,865.14142,747.7699"/>
		<path vector-effect="non-scaling-stroke" class="st0" d="M45.56139,747.99988l0.03-12.25c0-0.41998-0.20999-0.63007-0.63-0.63
			l-29.92999-0.00995c-0.32001,0-0.48001,0.15662-0.48001,0.46997L14.5414,838.24988c0,0.34668,0.17667,0.52332,0.53,0.53003
			l31.22998,0.01001c0.32666,0,0.49002-0.16003,0.49002-0.47998c0.02664-17.20673,0.02997-34.40674,0.00998-51.60004
			c-0.00998-10.20001,1.38-21.95001,13.03-25.13c15.30002-4.16998,22.20001,6.56,22.22,20.19
			c0.01999,18.82001,0.00668,37.63007-0.03998,56.43005c0.00003,0.31482,0.25522,0.56995,0.56998,0.56995l31.46002,0.01001
			c0.28665,0,0.42999-0.14331,0.42999-0.43005c0.12-19.7533,0.08667-39.50665-0.10001-59.25995
			c-0.25-26.87-7.60001-46.97003-38.76999-46.59003c-12.82669,0.15997-22.73001,5.36005-29.71002,15.60004
			C45.67138,748.41986,45.56139,748.3866,45.56139,747.99988"/>
		<path vector-effect="non-scaling-stroke" class="st0" d="M248.67137,789.04993
			c2.09003-73.66003-112.78998-76.15002-115.31-3.66003c-0.23999,6.90002,0.66669,13.37335,2.72,19.41998
			C154.88139,860.34985,246.92137,850.83984,248.67137,789.04993"/>
		<path vector-effect="non-scaling-stroke" class="st0" d="M380.95139,735.72992c-24.81-7.92004-65.83997-2.32001-65.08997,32.52997
			c0.57001,26.45001,25.16998,28.54999,44.88,33.08002c3.38995,0.77997,8.04999,3.27997,8.77997,6.95001
			c1.16003,5.88995-6.23999,7.82001-10.45001,8.21997c-10.75995,1.01337-19.3833-2.60327-25.87-10.84998
			c-0.16351-0.20862-0.46527-0.24524-0.67389-0.08167c-0.02002,0.01569-0.03882,0.03296-0.05609,0.05164l-18.85999,20.89001
			c-0.31573,0.35138-0.28894,0.8916,0.06,1.21002c5.94666,5.48663,12.92664,9.21332,20.94,11.17999
			c25.37,6.21997,72.71997,1.5,66.91998-37.17999c-3.46002-23.08002-27.28003-24.49005-45.09998-29.10004
			c-3.28003-0.84998-7.25-2.57001-8.16003-6.06c-1.26001-4.83002,3.69-8.62,7.84003-9.23999
			c8.59998-1.27997,15.78662,1.42334,21.56,8.10999c0.26666,0.31335,0.54663,0.32666,0.83997,0.04004l19.19-18.92004
			c0.27338-0.2666,0.27338-0.52997,0-0.78998C392.87473,741.10321,387.29141,737.75653,380.95139,735.72992"/>
		<path vector-effect="non-scaling-stroke" class="st0" d="M583.72137,826.52991l0.02002,11.68994
			c0.00006,0.37341,0.18329,0.56006,0.54999,0.56006h28.53998c0.36664,0,0.55328-0.18665,0.56-0.56006
			c0.12671-20.23334,0-40.46332-0.38-60.68994c-0.42999-22.25-8.45996-39.06-31.60999-43.65002
			c-20.65002-4.08997-44.75,0.14001-60.72998,14.90002c-0.31335,0.28668-0.32001,0.58331-0.02002,0.89001l16.54999,16.98999
			c0.25995,0.26666,0.50995,0.25665,0.75-0.03003c6.39337-7.35999,14.23669-11.34662,23.53003-11.95996
			c10.90997-0.72003,21.87,5.47998,22.20996,17.5c0.01105,0.28143-0.20367,0.51874-0.47961,0.52997
			c-0.01343,0.00055-0.02692,0.00055-0.04034,0c-21.46002-0.52002-61.98004,0.46002-68.40002,27.47003
			c-4.14993,17.44,3.62,32.55994,20.08002,38.42993c16.12,5.73999,38.14996,2.91003,48.39996-12.21997
			c0.08459-0.11603,0.24725-0.14148,0.36328-0.05682C583.68079,826.37134,583.72034,826.448,583.72137,826.52991"/>
		<path vector-effect="non-scaling-stroke" class="st0" d="M668.45135,750.63989l0.01001-14.95001
			c-0.00006-0.38-0.19-0.57007-0.57001-0.57001h-30.96997c-0.38666-0.00006-0.58002,0.19-0.58002,0.57001v102.59003
			c0,0.33997,0.16998,0.51001,0.51001,0.51001h31c0.39996,0,0.60327-0.20007,0.60999-0.59998
			c0.04669-14.06,0.03333-28.11664-0.03998-42.17004c-0.07001-13.31,0.95001-29.29999,15.45996-33.66998
			c7.47003-2.25,17.03003-1.92004,24.77002,0.60999c0.24597,0.08282,0.51257-0.04938,0.59546-0.29541
			c0.01672-0.0498,0.02502-0.10205,0.02454-0.1546l0.01001-28.27997c0-0.40674-0.19666-0.65338-0.59003-0.74005
			c-17.89996-3.85992-31.09662,1.91333-39.58997,17.32001C668.66803,751.59656,668.45142,751.53992,668.45135,750.63989"/>
		<path vector-effect="non-scaling-stroke" class="st0" d="M769.75134,812.2699c-28.22998-6.90997-24.12994-52.09998,6.44-51.32001
			c6.44006,0.16998,11.52002,2.64001,15.54004,7.46002c0.23999,0.28668,0.48657,0.29669,0.73999,0.02997l20.5-21.57001
			c0.2666-0.28668,0.26001-0.56659-0.02002-0.83997c-14.80994-14.53003-39.08997-16.57001-57.72998-10.25
			c-25.16003,8.53998-38.70001,30.63-36.22003,56.96997c1.59338,16.94,9.41333,29.97003,23.46002,39.08997
			c21.15002,13.72009,51.51001,12.99011,70.70996-4.02997c0.1792-0.15588,0.198-0.42749,0.04211-0.60663
			c-0.00391-0.00458-0.00793-0.00903-0.01208-0.01337l-20.67004-21.83997c-0.2467-0.25336-0.48999-0.25336-0.72998,0
			C785.38129,811.98987,778.03131,814.29657,769.75134,812.2699"/>
		<path vector-effect="non-scaling-stroke" class="st0" d="M803.90143,949.55994c0-13.9231-11.44348-25.21008-25.55994-25.21008
			h-0.00012c-14.11639,0-25.56,11.28687-25.56,25.20996c0,0.00012,0,0.00012,0,0.00012c0,13.9231,11.4436,25.20996,25.56,25.20996
			C792.45782,974.7699,803.90143,963.48303,803.90143,949.55994L803.90143,949.55994"/>
		<path vector-effect="non-scaling-stroke" class="st0" d="M242.2914,1032.92993c8.75,10.42993,22.06001,13.43994,35.36,12.59998
			c18.65002-1.18005,33.29999-13.82007,39.77002-30.95996c12.38995-32.82007-0.81-73.01001-39.83002-77.51001
			c-15.51334-1.78674-28.25334,3.25989-38.22002,15.14001c-0.35333,0.42651-0.53,0.36328-0.53-0.19006l-0.04999-12.15002
			c0.00003-0.40002-0.20334-0.60327-0.61002-0.60999l-28.59-0.01001c-0.16016,0-0.29001,0.12537-0.29001,0.28003l0,0v133.82996
			c0,0.19885,0.16565,0.35999,0.37,0.35999l31.21002,0.01001c0.32666,0,0.48999-0.16333,0.48999-0.48999v-39.96997
			C241.37138,1032.30664,241.67805,1032.19666,242.2914,1032.92993"/>
		<path vector-effect="non-scaling-stroke" class="st0" d="M373.63138,954.99988l0.01001-15.19995
			c0-0.34668-0.17334-0.52002-0.51996-0.52002l-31.14001-0.01001c-0.40002,0-0.60004,0.20325-0.60004,0.60999v102.71997
			c0,0.3667,0.17999,0.55005,0.54004,0.55005l31.13-0.04004c0.35327,0,0.52997-0.17664,0.52997-0.52991
			c0.03998-16.09998,0.13995-32.20337,0.29999-48.31006c0.20001-19.92004,7.73004-29.65002,28.16003-29.03003
			c4.06665,0.12,8.07001,0.81677,12.01001,2.09009c0.27997,0.08655,0.41998-0.01672,0.41998-0.31006v-28.71997
			c0-0.33997-0.16669-0.54333-0.5-0.60999c-14.22003-2.97009-28.06,0-36.64001,12.54993c-1.10663,1.62-2.2066,3.2467-3.29999,4.88
			C373.76474,955.5199,373.63138,955.47986,373.63138,954.99988"/>
		<path vector-effect="non-scaling-stroke" class="st0" d="M455.5914,1001.2699h72.76999c0.41333,0,0.62994-0.20667,0.64996-0.62
			c0.47333-8.88-0.22662-17.73999-2.09998-26.57996c-6.97003-32.82007-38.84-44.13-68.16995-33.82007
			c-25.15002,8.83008-38.66003,31.21997-35.70001,57.83008c5.5,49.32996,70.32001,63.38989,100.77994,27.44995
			c0.22522-0.26526,0.19635-0.66003-0.06445-0.88196c-0.01141-0.00977-0.02332-0.01917-0.03552-0.02808l-21.34-15.65002
			c-0.56598-0.41431-1.3606-0.29138-1.77496,0.27454c-0.00854,0.01172-0.01691,0.02356-0.02502,0.03552
			c-12.39001,18.41003-39.71997,14.90002-45.45001-7.41003c-0.06628-0.25671,0.08807-0.51843,0.34479-0.58472
			C455.51382,1001.27539,455.55252,1001.27026,455.5914,1001.2699"/>
		<path vector-effect="non-scaling-stroke" class="st0" d="M598.64136,1017.12988c-0.82001,1.16003-1.70331,1.88672-2.64996,2.18005
			c-13.1134,4.03992-23.97333,0.95667-32.58002-9.25c-0.25336-0.30676-0.51337-0.31006-0.78003-0.01001l-18.92999,21.02002
			c-0.23334,0.2533-0.22327,0.5,0.03003,0.73999c14.26996,13.51001,36.52997,15.81995,55.10999,12.58997
			c17.45001-3.02002,33.29999-12.26001,33.32001-32.18005c0.01001-16.91992-9.21002-26.41992-25.33002-30.3999
			c-6.65997-1.64673-13.31-3.30347-19.95001-4.97009c-3.6333-0.91333-6.01331-2.07007-7.13995-3.46997
			c-2.51001-3.10999-1.19-7.62,1.75-9.76001c1.3866-1.00671,3.38995-1.68005,6.00995-2.02002
			c8.03998-1.02661,14.74335,1.60669,20.11005,7.90002c0.37708,0.44067,1.04309,0.48901,1.48761,0.10803
			c0.01801-0.01538,0.03546-0.03137,0.05237-0.04797l18.66998-18.60999c0.32666-0.32007,0.3233-0.64343-0.01001-0.97009
			c-13.14996-12.70996-34.34998-15.37-51.44995-11.92993c-13.80005,2.77002-26.90002,11.94995-29.55005,26.45996
			c-5.16998,28.32007,15.42004,35.42004,37.77002,39.56006C589.73138,1005.02991,604.6214,1008.63989,598.64136,1017.12988"/>
		<path vector-effect="non-scaling-stroke" class="st0" d="M704.61139,1017.13989c-0.84003,1.15991-1.72003,1.88-2.64001,2.16003
			c-13.12665,4.05994-23.98334,0.97327-32.57001-9.26001c-0.25336-0.30664-0.51331-0.30994-0.77997-0.01001l-18.73004,20.78003
			c-0.26001,0.27991-0.27002,0.56995-0.02997,0.87c5.65997,7.19995,19.01001,11.80994,27.72998,13.07996
			c17.84998,2.59998,46.07001,0.52002,56.46002-17.38c4.2666-7.33997,5.27332-15.55334,3.01996-24.64001
			c-4.88-19.70996-27.29999-21.41992-43.46997-25.53992c-5.27002-1.34009-11.01001-4.13-8.85004-9.96008
			c0.91003-2.43994,3.84003-4.87,6.33002-5.32996c9.25336-1.73328,16.8067,0.84338,22.66003,7.72998
			c0.29938,0.34705,0.82031,0.38892,1.16345,0.09338c0.01605-0.01392,0.03156-0.02832,0.04651-0.04333l19.01001-18.8501
			c0.21814-0.21924,0.22058-0.5708,0.00543-0.78516c-0.005-0.005-0.01019-0.01001-0.01544-0.01477
			c-13.82996-12.87-34.33997-15.45996-51.59998-11.93005c-14.91003,3.04004-27.44,12.47009-29.77002,27.83008
			c-4.83997,31.87,22.47003,34.25,44.47998,39.92993C701.90137,1007.11987,708.99139,1011.08984,704.61139,1017.13989"/>
		<path vector-effect="non-scaling-stroke" class="st0" d="M497.75137,157.44986
			c-35.47998,80.71332-53.5733,165.15668-54.27997,253.33002c-0.04669,6.12665,0.05334,12.78998,0.29999,19.98999
			c0.91333,26.63336,2.72668,54.79999,5.44,84.50003c1.89337,20.74664,5.18341,40.40668,9.87,58.97998
			c0.48004,1.91998,1.40668,4.61334,2.78003,8.08002c0.12665,0.33997,0.36328,0.45667,0.70996,0.34998
			c49.33002-14.65997,97.03-39.69,139.82999-67.77997c19.67334-12.91342,37.80005-26.56003,54.38-40.94003
			c5.5-4.77332,11.17993-10.44,17.03998-17c1.08002-1.22003,1.30005-2.90002,1.51001-4.44
			c6.02667-44.06665,8.48999-88.32001,7.39001-132.76001c-0.53003-21.63998-1.87-43.78998-6.33002-64.03
			c-13.18665-59.76666-38.51331-114.47333-75.97998-164.12c-9.78998-12.98001-21.76001-26.88998-35.41998-35.51999
			c-0.7561-0.48099-1.73846-0.41629-2.43005,0.15999c-4.13995,3.49001-8.02997,7.15001-11.56995,11.41002
			C529.30139,93.78986,511.73141,125.64988,497.75137,157.44986"/>
		<path vector-effect="non-scaling-stroke" class="st0" d="M211.41139,327.61984c13.22998,1.93005,22.66,12.16003,28,23.61005
			c4.85999,10.40997,4.66998,22.52997,2.39999,33.78998c-1.95999,9.78003-5.59,20.58002,3.09,27.95001
			c10.20999,8.67999,27.21004,7.37,39.06001,3.69c0.36664-0.11334,0.52667-0.36005,0.47998-0.73999
			c-6.94995-57.79004-4.34998-117.11002,9.47003-173.74002c0.08667-0.34003-0.03003-0.58002-0.35004-0.72
			c-8.78668-4.02667-18.02667-6.16669-27.71997-6.42001c-11.59001-0.28998-25.81001,5.30002-26.65001,18.25
			c-0.11334,1.81335,0.46332,5.58667,1.72998,11.32001c3.22,14.55002,4.26001,30.11002-3.75,43.11002
			c-6.22998,10.10999-13.97,17.09998-25.76999,19.21997c-0.18726,0.04016-0.31094,0.22382-0.27628,0.41016
			C211.15184,327.49338,211.26662,327.60159,211.41139,327.61984"/>
		<path vector-effect="non-scaling-stroke" class="st0" d="M507.7814,344.67984c-0.04529,0.21057,0.08875,0.41797,0.29932,0.46326
			c0.03961,0.00848,0.08032,0.0108,0.12067,0.00677l49.89999-5.62c0.21423-0.02258,0.40613,0.13281,0.42871,0.34698
			c0.0069,0.06573-0.00299,0.13214-0.02875,0.19299l-31.19995,69.85004c-0.08533,0.19336-0.00104,0.41956,0.19,0.50995
			l22.94,11.23004c0.19464,0.09216,0.42719,0.00909,0.51941-0.18555c0.00378-0.00806,0.00732-0.01617,0.01056-0.02448
			l27.39001-71.84998c0.07526-0.20184,0.2998-0.30444,0.50165-0.22925c0.0769,0.02869,0.14282,0.08093,0.18835,0.14923
			l29.59998,43.53998c0.11908,0.1795,0.36108,0.22852,0.54059,0.10944c0.0434-0.02881,0.08063-0.06598,0.10944-0.10944
			l22.08997-33.28998c0.09637-0.14569,0.08417-0.33771-0.02997-0.46997l-33.16003-38.55005
			c-0.13416-0.16144-0.11646-0.40009,0.04004-0.53998l49.89996-43.26999c0.11438-0.103,0.15747-0.26358,0.11005-0.41
			l-9.67004-31.20001c-0.06317-0.2059-0.28131-0.32162-0.48724-0.25842c-0.06152,0.01886-0.11743,0.05267-0.16272,0.09842
			l-47.51001,47.20999c-0.1554,0.14914-0.40228,0.14404-0.55145-0.01135c-0.06934-0.07227-0.10822-0.16849-0.10858-0.26865
			l0.63-69.16998c-0.00055-0.21539-0.1756-0.38956-0.39099-0.38901c-0.05853,0.00015-0.11633,0.01349-0.16901,0.039l-27.54999,13.41
			c-0.14093,0.06802-0.22754,0.21371-0.21997,0.37l3.64996,68.16c0.01105,0.21512-0.15436,0.39844-0.36951,0.40948
			c-0.00684,0.00037-0.01367,0.00052-0.02051,0.00052l-49.01996-0.42999c-0.1839,0.00079-0.34229,0.12997-0.38,0.31
			L507.7814,344.67984"/>
		<path vector-effect="non-scaling-stroke" class="st0" d="M216.14119,783.89227c-0.0441-12.64172-10.32797-22.85406-22.9697-22.81
			l-4.44,0.0155c-12.64172,0.04413-22.8541,10.328-22.81,22.96973c0,0.00006,0,0.00006,0,0.00012l0.02008,5.73987
			c0.0441,12.64172,10.32797,22.85406,22.9697,22.81l4.44-0.0155c12.64172-0.04413,22.8541-10.328,22.81-22.96973v-0.00006
			L216.14119,783.89227"/>
		<path vector-effect="non-scaling-stroke" class="st0" d="M572.79138,816.13989c9.03333-4.58661,12.58002-12.04333,10.64001-22.37
			c-0.06-0.32001-0.25-0.47998-0.57001-0.47998c-5.35333-0.06671-10.69336,0.08331-16.02002,0.44995
			c-6.63,0.46002-16.72998,2.49005-20.53998,8.87006c-4.53003,7.59998,1.13995,14.71997,8.77997,16.17999
			C561.13464,819.94324,567.03809,819.05994,572.79138,816.13989"/>
		<path vector-effect="non-scaling-stroke" class="st0" d="M778.36456,968.59985
			c10.18958-0.01782,18.43506-8.55664,18.41675-19.07214c-0.01843-10.5155-8.29346-19.02551-18.48315-19.00781
			c-10.18964,0.0177-18.43512,8.55664-18.41681,19.07214l0,0c0.01831,10.5155,8.29352,19.02551,18.48309,19.00781H778.36456"/>
		<path vector-effect="non-scaling-stroke" class="st0" d="M775.73138,952.58984c0.00854-0.30359,0.26147-0.54285,0.56519-0.53442
			c0.18665,0.00525,0.35791,0.10486,0.45483,0.26453l5.66992,9.66992c0.1991,0.34143,0.56104,0.5509,0.95007,0.55005
			l5.97998,0.04004c0.26514,0.00171,0.48145-0.21167,0.48315-0.47681c0.00061-0.09741-0.02832-0.19263-0.08313-0.27319
			l-5.97009-8.79004c-0.20483-0.2948-0.13196-0.69983,0.16284-0.90466c0.06287-0.04382,0.13306-0.07605,0.20728-0.09534
			c4.93994-1.28003,6.30994-6.20007,4.80994-10.59998c-2.63-7.72009-14.01001-5.8501-19.92999-5.7301
			c-0.29437,0.00549-0.53009,0.24561-0.53003,0.54004l-0.00995,25.60999c0.00006,0.45996,0.23004,0.69006,0.69,0.69006
			l5.92999-0.01001c0.35999,0,0.54333-0.18005,0.54993-0.54004L775.73138,952.58984"/>
		<path vector-effect="non-scaling-stroke" class="st0" d="M775.66132,941.44995v4.8999c0,0.34241,0.27759,0.62,0.62,0.62h2.58008
			c1.93298,0,3.5-1.28491,3.5-2.87v-0.3999c0-1.58508-1.56702-2.87-3.5-2.87h-2.58008
			C775.9389,940.82996,775.66132,941.10754,775.66132,941.44995"/>
		<path vector-effect="non-scaling-stroke" class="st0" d="M289.3613,988.4176
			c0.04419-12.64172-10.16815-22.92566-22.80988-22.96985c-0.00006,0-0.00006,0-0.00012,0l-4.43988-0.0155
			c-12.64174-0.04419-22.92567,10.16821-22.96983,22.80994v0.00012l-0.02011,5.75989
			c-0.04419,12.64172,10.16815,22.92566,22.80989,22.96985c0.00003,0,0.00009,0,0.00012,0l4.43994,0.0155
			c12.64172,0.04419,22.92566-10.16821,22.96979-22.80994v-0.00012L289.3613,988.4176"/>
		<path vector-effect="non-scaling-stroke" class="st0" d="M455.43143,979.38989l41.41998-0.28003
			c0.02209,0.00073,0.04053-0.01672,0.0412-0.0387c0.00012-0.00378-0.00031-0.00757-0.00122-0.01123v-0.04004
			c-0.07703-10.53735-9.35315-19.01257-20.71887-18.93005c-0.00037,0-0.00073,0-0.0011,0h-0.34003
			c-11.36194,0.08252-20.51172,8.68628-20.44,19.22009v0.03992c0,0.02209,0.01788,0.04004,0.03998,0.04004H455.43143"/>
	</g>
	<path class="st1" d="M291.9014,460.02988c-0.04791-0.23291-0.27899-0.38013-0.5163-0.32892
		c-0.06281,0.01361-0.12213,0.04053-0.17371,0.07892c-5.55334,4.32001-11.65338,7.49664-18.29999,9.52997
		c-29.42003,8.99005-65.20003,3.60004-86.35002-19.96997c-15.14999-16.90002-19.44-39.04999-7.17001-59.42999
		c4.92001-8.17999,7.34003-15.95001,6.87003-25.60999c-0.75336-15.70001-7.82333-27.37671-21.21002-35.03003
		c-0.38666-0.22668-0.5733-0.56335-0.56-1.01001l0.04001-2.14996c0.01334-0.37329,0.18332-0.65332,0.51001-0.84003
		c13.31332-7.58002,20.38998-19.17001,21.22998-34.76999c0.45331-8.44669-1.03336-15.68335-4.45999-21.71002
		c-3.45999-6.09332-5.63-10.37335-6.51001-12.84c-4.59332-12.79999-4.00665-25.11664,1.76001-36.94998
		c12.48001-25.60001,42.76999-38.77002,70.32001-37.96002c22.50999,0.66,41.74998,7.91,56.61998,25.53
		c0.2478,0.28906,0.68146,0.32672,0.96863,0.08417c0.09247-0.07812,0.16199-0.17969,0.20142-0.29416
		c22.84998-64.57999,77.92999-106.1,136.39996-137.12c38.62-20.48,78.38998-38.59,117.86996-57.33001
		c0.3067-0.14667,0.62665-0.19334,0.96002-0.14c7.45001,1.17,15.66998,7.25999,21.28003,12.10001
		c28.35999,24.48999,51.91998,56.44999,70.94,88.42999c34.81995,58.54998,58.45996,123.26,61.67999,191.45999
		c1.23999,26.31,1.54999,52.95001-0.08002,79.23999c-1.71332,27.46667-4.72003,54.80334-9.02002,82.01001
		c-0.23334,1.48004-1.00995,3.15338-2.32996,5.02002c-13.58002,19.28998-32.06006,35.83997-50.55005,50.30002
		c-32.44,25.38-66.77997,47.13-102.94,66.81c-22.81335,12.4267-46.37326,23.26996-70.67996,32.53003
		c-16.01331,6.11334-32.49329,10.44666-49.44,13c-0.33661,0.05182-0.67883-0.01166-0.96997-0.18005
		c-8.16003-4.75-15.51001-11.10999-22.41998-17.47998c-32.09003-29.57001-61.20001-61.89996-92.88-91.87
		c-1.23334-1.16669-2.16669-2.51666-2.80005-4.04999C302.25809,499.94321,296.16141,480.2565,291.9014,460.02988z
		 M497.75137,157.44986c-35.47998,80.71332-53.5733,165.15668-54.27997,253.33002
		c-0.04669,6.12665,0.05334,12.78998,0.29999,19.98999c0.91333,26.63336,2.72668,54.79999,5.44,84.50003
		c1.89337,20.74664,5.18341,40.40668,9.87,58.97998c0.48004,1.91998,1.40668,4.61334,2.78003,8.08002
		c0.12665,0.33997,0.36328,0.45667,0.70996,0.34998c49.33002-14.65997,97.03-39.69,139.82999-67.77997
		c19.67334-12.91342,37.80005-26.56003,54.38-40.94003c5.5-4.77332,11.17993-10.44,17.03998-17
		c1.08002-1.22003,1.30005-2.90002,1.51001-4.44c6.02667-44.06665,8.48999-88.32001,7.39001-132.76001
		c-0.53003-21.63998-1.87-43.78998-6.33002-64.03c-13.18665-59.76666-38.51331-114.47333-75.97998-164.12
		c-9.78998-12.98001-21.76001-26.88998-35.41998-35.51999c-0.7561-0.48099-1.73846-0.41629-2.43005,0.15999
		c-4.13995,3.49001-8.02997,7.15001-11.56995,11.41002C529.30139,93.78986,511.73141,125.64988,497.75137,157.44986z
		 M211.41139,327.61984c13.22998,1.93005,22.66,12.16003,28,23.61005c4.85999,10.40997,4.66998,22.52997,2.39999,33.78998
		c-1.95999,9.78003-5.59,20.58002,3.09,27.95001c10.20999,8.67999,27.21004,7.37,39.06001,3.69
		c0.36664-0.11334,0.52667-0.36005,0.47998-0.73999c-6.94995-57.79004-4.34998-117.11002,9.47003-173.74002
		c0.08667-0.34003-0.03003-0.58002-0.35004-0.72c-8.78668-4.02667-18.02667-6.16669-27.71997-6.42001
		c-11.59001-0.28998-25.81001,5.30002-26.65001,18.25c-0.11334,1.81335,0.46332,5.58667,1.72998,11.32001
		c3.22,14.55002,4.26001,30.11002-3.75,43.11002c-6.22998,10.10999-13.97,17.09998-25.76999,19.21997
		c-0.18726,0.04016-0.31094,0.22382-0.27628,0.41016C211.15184,327.49338,211.26662,327.60159,211.41139,327.61984z"/>
	<path class="st1" d="M507.7814,344.67984l8.12997-39.86996c0.03772-0.18002,0.19611-0.3092,0.38-0.31l49.01996,0.42999
		c0.21539,0.00031,0.39026-0.17407,0.3905-0.38947c0.00006-0.00687-0.00012-0.0137-0.00049-0.02054l-3.64996-68.16
		c-0.00757-0.15628,0.07904-0.30197,0.21997-0.37l27.54999-13.41c0.19385-0.0939,0.42712-0.01285,0.521,0.181
		c0.02551,0.0527,0.03888,0.11044,0.039,0.16901l-0.63,69.16998c0.00079,0.21539,0.17603,0.38937,0.39142,0.38861
		c0.10016-0.00037,0.19635-0.03925,0.26862-0.10861l47.51001-47.20999c0.15155-0.15305,0.3985-0.15427,0.55151-0.00272
		c0.04578,0.04529,0.07959,0.1012,0.09845,0.16272l9.67004,31.20001c0.04742,0.14642,0.00433,0.30701-0.11005,0.41
		l-49.89996,43.26999c-0.15649,0.13989-0.17419,0.37854-0.04004,0.53998l33.16003,38.55005
		c0.11414,0.13226,0.12634,0.32428,0.02997,0.46997l-22.08997,33.28998c-0.11908,0.1795-0.36108,0.22852-0.54059,0.10944
		c-0.0434-0.02881-0.08063-0.06598-0.10944-0.10944l-29.59998-43.53998c-0.11945-0.17926-0.36157-0.22778-0.54077-0.10834
		c-0.06836,0.04553-0.12054,0.11145-0.14923,0.18835l-27.39001,71.84998c-0.07867,0.2005-0.30499,0.29926-0.50549,0.22058
		c-0.0083-0.00323-0.01642-0.00677-0.02448-0.01056l-22.94-11.23004c-0.19104-0.09039-0.27533-0.31659-0.19-0.50995
		l31.19995-69.85004c0.08405-0.1983-0.00867-0.42725-0.20697-0.51123c-0.06085-0.02576-0.12726-0.03564-0.19299-0.02875
		l-49.89999,5.62c-0.21436,0.02136-0.4054-0.13507-0.42676-0.34937C507.7706,344.76016,507.77286,344.71945,507.7814,344.67984z"/>
	<path class="st1" d="M468.9014,761.2699c-0.15332,13.37335-0.16663,24.79004-0.03998,34.25
		c0.10999,8.63,1.07996,17.31,11.72998,18.46997c5.56006,0.60004,10.89667-0.17328,16.01001-2.31995
		c0.34668-0.14667,0.52002-0.03333,0.52002,0.33997l-0.02002,25.72998c0,0.30005-0.13995,0.49341-0.41998,0.58008
		c-19.87006,5.85999-53.99005,5.70996-59.29004-20.48004c-0.43994-2.18671-0.66669-8.08337-0.67999-17.69
		c-0.00671-12.93341-0.02332-25.86664-0.04999-38.79999c0-0.38-0.18994-0.57001-0.57001-0.57001l-19.28003,0.02002
		c-0.37335,0-0.56-0.18671-0.56-0.56006l0.01001-24.50995c0-0.40674,0.20667-0.61011,0.62-0.61005l19.26001-0.00995
		c0.3667,0,0.54993-0.18335,0.54999-0.55005l0.01001-29.67999c0.00006-0.35333,0.17664-0.52997,0.53003-0.52997l31.01001-0.03003
		c0.39325,0,0.58997,0.20001,0.58997,0.60004v29.82996c0,0.1933,0.16113,0.35004,0.35999,0.35004l0,0l27.35004,0.03998
		c0.31482,0,0.57001,0.25964,0.57001,0.58002l0,0v24.51001c0,0.37329-0.19,0.56-0.57001,0.56l-27.16003,0.01001
		C469.06802,760.79993,468.90805,760.9566,468.9014,761.2699z"/>
	<path class="st1" d="M865.42133,747.84991c6.04004-9.60669,14.85339-14.68671,26.44006-15.23999
		c30.04993-1.44,40.63,16.00995,40.81995,43.91998c0.14001,20.56665,0.19336,41.13995,0.16003,61.71997
		c0,0.35339-0.17334,0.53003-0.52002,0.53003h-31.20996c-0.33997,0-0.51001-0.16663-0.51001-0.5
		c-0.02002-17.77338-0.02673-35.52338-0.02002-53.25c0.01001-9.85004-1.19995-22.04999-13.09998-23.75
		c-20.18005-2.88-22.72998,14.14996-22.56006,29.48999c0.17334,15.81329,0.25,31.62335,0.2301,47.43005
		c0,0.38-0.19006,0.56995-0.57007,0.56995h-31.10999c-0.42004,0-0.63-0.20667-0.63-0.62l0.01001-133.32001
		c0-0.29333,0.14331-0.44006,0.42993-0.44l31.38-0.02002c0.32007-0.00006,0.4801,0.15668,0.4801,0.47003v42.92999
		C865.14142,748.10992,865.2348,748.1366,865.42133,747.84991z"/>
	<path class="st1" d="M45.89138,748.09991c6.98001-10.23999,16.88333-15.44006,29.71002-15.60004
		c31.16998-0.38,38.51999,19.72003,38.76999,46.59003c0.18668,19.7533,0.22,39.50665,0.10001,59.25995
		c0,0.28674-0.14334,0.43005-0.42999,0.43005l-31.46002-0.01001c-0.31476,0-0.56995-0.25513-0.56998-0.56995
		c0.04666-18.79999,0.05997-37.61005,0.03998-56.43005c-0.01999-13.63-6.91998-24.35999-22.22-20.19
		c-11.64999,3.17999-13.03998,14.92999-13.03,25.13c0.01999,17.1933,0.01666,34.39331-0.00998,51.60004
		c0,0.31995-0.16336,0.47998-0.49002,0.47998l-31.22998-0.01001c-0.35333-0.00671-0.53-0.18335-0.53-0.53003l0.00998-102.66998
		c0-0.31335,0.16-0.46997,0.48001-0.46997l29.92999,0.00995c0.42001-0.00006,0.63,0.21002,0.63,0.63l-0.03,12.25
		C45.56139,748.3866,45.67138,748.41986,45.89138,748.09991z"/>
	<path class="st1" d="M133.36137,785.38989c2.52002-72.48999,117.40002-70,115.31,3.66003
		c-1.75,61.78992-93.78998,71.29993-112.59,15.75995C134.02806,798.76324,133.12138,792.28992,133.36137,785.38989z
		 M216.14119,783.89227c-0.0441-12.64172-10.32797-22.85406-22.9697-22.81l-4.44,0.0155
		c-12.64172,0.04413-22.8541,10.328-22.81,22.96973c0,0.00006,0,0.00006,0,0.00012l0.02008,5.73987
		c0.0441,12.64172,10.32797,22.85406,22.9697,22.81l4.44-0.0155c12.64172-0.04413,22.8541-10.328,22.81-22.96973v-0.00006
		L216.14119,783.89227z"/>
	<path class="st1" d="M313.86142,768.25989c-0.75-34.84998,40.27997-40.45001,65.08997-32.52997
		c6.34003,2.02661,11.92334,5.37329,16.75,10.03998c0.27338,0.26001,0.27338,0.52338,0,0.78998l-19.19,18.92004
		c-0.29333,0.28662-0.5733,0.27332-0.83997-0.04004c-5.77338-6.68665-12.96002-9.38995-21.56-8.10999
		c-4.15002,0.62-9.10004,4.40997-7.84003,9.23999c0.91003,3.48999,4.88,5.21002,8.16003,6.06
		c17.81995,4.60999,41.63995,6.02002,45.09998,29.10004c5.79999,38.67999-41.54999,43.39996-66.91998,37.17999
		c-8.01337-1.96667-14.99335-5.69336-20.94-11.17999c-0.34894-0.31842-0.37573-0.85864-0.06-1.21002l18.85999-20.89001
		c0.18011-0.19452,0.48383-0.20618,0.67834-0.02606c0.01868,0.01727,0.03595,0.03607,0.05164,0.05609
		c6.48669,8.2467,15.11005,11.86334,25.87,10.84998c4.21002-0.39996,11.61005-2.33002,10.45001-8.21997
		c-0.72998-3.67004-5.39001-6.17004-8.77997-6.95001C339.0314,796.80988,314.43143,794.7099,313.86142,768.25989z"/>
	<path class="st1" d="M583.72137,826.52991c-0.00177-0.14355-0.11963-0.25854-0.26318-0.25677
		c-0.08191,0.00098-0.15857,0.04059-0.20685,0.10675c-10.25,15.13-32.27997,17.95996-48.39996,12.21997
		c-16.46002-5.87-24.22995-20.98993-20.08002-38.42993c6.41998-27.01001,46.94-27.99005,68.40002-27.47003
		c0.27594,0.01147,0.50873-0.2074,0.51996-0.48883c0.00055-0.01367,0.00055-0.0274,0-0.04114
		c-0.33997-12.02002-11.29999-18.22003-22.20996-17.5c-9.29333,0.61334-17.13666,4.59998-23.53003,11.95996
		c-0.24005,0.28668-0.49005,0.29669-0.75,0.03003l-16.54999-16.98999c-0.29999-0.3067-0.29333-0.60333,0.02002-0.89001
		c15.97998-14.76001,40.07996-18.98999,60.72998-14.90002c23.15002,4.59003,31.17999,21.40002,31.60999,43.65002
		c0.38,20.22662,0.50671,40.4566,0.38,60.68994c-0.00671,0.37341-0.19336,0.56006-0.56,0.56006h-28.53998
		c-0.3667,0-0.54993-0.18665-0.54999-0.56006L583.72137,826.52991z M572.79138,816.13989
		c9.03333-4.58661,12.58002-12.04333,10.64001-22.37c-0.06-0.32001-0.25-0.47998-0.57001-0.47998
		c-5.35333-0.06671-10.69336,0.08331-16.02002,0.44995c-6.63,0.46002-16.72998,2.49005-20.53998,8.87006
		c-4.53003,7.59998,1.13995,14.71997,8.77997,16.17999C561.13464,819.94324,567.03809,819.05994,572.79138,816.13989z"/>
	<path class="st1" d="M669.10138,750.80988c8.49335-15.40668,21.69-21.17993,39.58997-17.32001
		c0.39337,0.08667,0.59003,0.33331,0.59003,0.74005l-0.01001,28.27997c0.00256,0.25958-0.20581,0.47205-0.46539,0.47455
		c-0.05255,0.00055-0.1048-0.00775-0.1546-0.02454c-7.73999-2.53003-17.29999-2.85999-24.77002-0.60999
		c-14.50995,4.37-15.52997,20.35999-15.45996,33.66998c0.0733,14.05341,0.08667,28.11005,0.03998,42.17004
		c-0.00671,0.3999-0.21002,0.59998-0.60999,0.59998h-31c-0.34003,0-0.51001-0.17004-0.51001-0.51001V735.68988
		c0-0.38,0.19336-0.57007,0.58002-0.57001h30.96997c0.38-0.00006,0.56995,0.19,0.57001,0.57001l-0.01001,14.95001
		C668.45142,751.53992,668.66803,751.59656,669.10138,750.80988z"/>
	<path class="st1" d="M769.75134,812.2699c8.27997,2.02667,15.62994-0.28003,22.04999-6.91998
		c0.23999-0.25336,0.48328-0.25336,0.72998,0l20.67004,21.83997c0.16321,0.17249,0.15576,0.44464-0.01672,0.60791
		c-0.00427,0.00409-0.00879,0.00812-0.01331,0.01208c-19.19995,17.02008-49.55994,17.75006-70.70996,4.02997
		c-14.04669-9.11993-21.86664-22.14996-23.46002-39.08997c-2.47998-26.33997,11.06-48.42999,36.22003-56.96997
		c18.64001-6.32001,42.92004-4.28003,57.72998,10.25c0.28003,0.27338,0.28662,0.55328,0.02002,0.83997l-20.5,21.57001
		c-0.25342,0.26672-0.5,0.25671-0.73999-0.02997c-4.02002-4.82001-9.09998-7.29004-15.54004-7.46002
		C745.6214,760.16992,741.52136,805.35992,769.75134,812.2699z"/>
	<path class="st1" d="M803.90143,949.55994c0,13.9231-11.4436,25.20996-25.56006,25.20996l0,0
		c-14.11639,0-25.56-11.28687-25.56-25.20996c-0.00006-13.9231,11.44354-25.21008,25.55988-25.21008c0.00012,0,0.00012,0,0.00012,0
		c14.11646,0,25.56006,11.28687,25.56006,25.20996V949.55994z M778.36456,968.59985
		c10.18958-0.01782,18.43506-8.55664,18.41675-19.07214c-0.01843-10.5155-8.29346-19.02551-18.48315-19.00781
		c-10.18964,0.0177-18.43512,8.55664-18.41681,19.07214l0,0c0.01831,10.5155,8.29352,19.02551,18.48309,19.00781H778.36456z"/>
	<path class="st1" d="M775.73138,952.58984l-0.07007,9.41003c-0.00659,0.35999-0.18994,0.54004-0.54993,0.54004l-5.92999,0.01001
		c-0.45996,0-0.68994-0.2301-0.69-0.69006l0.00995-25.60999c-0.00006-0.29443,0.23566-0.53455,0.53003-0.54004
		c5.91998-0.12,17.29999-1.98999,19.92999,5.7301c1.5,4.3999,0.13,9.31995-4.80994,10.59998
		c-0.34741,0.09033-0.55579,0.44531-0.46545,0.79272c0.01929,0.07422,0.05164,0.14429,0.09534,0.20728l5.97009,8.79004
		c0.14917,0.21924,0.09229,0.5177-0.12683,0.66687c-0.08057,0.05481-0.17578,0.08374-0.27319,0.08313l-5.97998-0.04004
		c-0.38904,0.00085-0.75098-0.20862-0.95007-0.55005l-5.66992-9.66992c-0.15759-0.25964-0.49585-0.34253-0.75549-0.18494
		C775.83624,952.23181,775.73663,952.4032,775.73138,952.58984z M775.66132,941.44995v4.8999c0,0.34241,0.27759,0.62,0.62,0.62
		h2.58008c1.93298,0,3.5-1.28491,3.5-2.87v-0.3999c0-1.58508-1.56702-2.87-3.5-2.87h-2.58008
		C775.9389,940.82996,775.66132,941.10754,775.66132,941.44995z"/>
	<path class="st1" d="M242.2914,1032.92993c-0.61334-0.73328-0.92001-0.62329-0.92001,0.32996v39.96997
		c0,0.32666-0.16333,0.48999-0.48999,0.48999l-31.21002-0.01001c-0.20435,0-0.37-0.16113-0.37-0.35999V939.5199
		c-0.00003-0.15466,0.12982-0.28003,0.28998-0.28003h0.00003l28.59,0.01001c0.40668,0.00671,0.61005,0.20996,0.61002,0.60999
		l0.04999,12.15002c0,0.55334,0.17667,0.61658,0.53,0.19006c9.96667-11.88013,22.70668-16.92676,38.22002-15.14001
		c39.02002,4.5,52.21997,44.68994,39.83002,77.51001c-6.47003,17.13989-21.12,29.77991-39.77002,30.95996
		C264.35141,1046.36987,251.0414,1043.35986,242.2914,1032.92993z M289.3613,988.4176
		c0.04419-12.64172-10.16815-22.92566-22.80988-22.96985c-0.00006,0-0.00006,0-0.00012,0l-4.43988-0.0155
		c-12.64174-0.04419-22.92567,10.16821-22.96983,22.80994v0.00012l-0.02011,5.75989
		c-0.04419,12.64172,10.16815,22.92566,22.80989,22.96985c0.00003,0,0.00009,0,0.00012,0l4.43994,0.0155
		c12.64172,0.04419,22.92566-10.16821,22.96979-22.80994v-0.00012L289.3613,988.4176z"/>
	<path class="st1" d="M374.0314,955.11987c1.09338-1.6333,2.19336-3.26001,3.29999-4.88
		c8.58002-12.54993,22.41998-15.52002,36.64001-12.54993c0.33331,0.06665,0.5,0.27002,0.5,0.60999v28.71997
		c0,0.29333-0.14001,0.39661-0.41998,0.31006c-3.94-1.27332-7.94336-1.97009-12.01001-2.09009
		c-20.42999-0.62-27.96002,9.10999-28.16003,29.03003c-0.16003,16.10669-0.26001,32.21008-0.29999,48.31006
		c0,0.35327-0.1767,0.52991-0.52997,0.52991l-31.13,0.04004c-0.36005,0-0.54004-0.18335-0.54004-0.55005V939.87988
		c0-0.40674,0.20001-0.60999,0.60004-0.60999l31.14001,0.01001c0.34662,0,0.51996,0.17334,0.51996,0.52002l-0.01001,15.19995
		C373.63138,955.47986,373.76474,955.5199,374.0314,955.11987z"/>
	<path class="st1" d="M455.13138,1001.86987c5.73004,22.31006,33.06,25.82007,45.45001,7.41003
		c0.39471-0.57983,1.18469-0.72986,1.76453-0.33508c0.01196,0.00818,0.0238,0.01648,0.03546,0.02502l21.34,15.65002
		c0.27649,0.2019,0.33405,0.59314,0.12854,0.8739c-0.00909,0.01233-0.01862,0.02441-0.02856,0.03613
		c-30.45993,35.93994-95.27994,21.88-100.77994-27.44995c-2.96002-26.61011,10.54999-49,35.70001-57.83008
		c29.32996-10.30994,61.19992,1,68.16995,33.82007c1.87335,8.83997,2.5733,17.69995,2.09998,26.57996
		c-0.02002,0.41333-0.23663,0.62-0.64996,0.62H455.5914c-0.26508,0.00256-0.47784,0.2196-0.47522,0.48474
		C455.11655,1001.79346,455.12167,1001.83215,455.13138,1001.86987z M455.43143,979.38989l41.41998-0.28003
		c0.02209,0.00073,0.04053-0.01672,0.0412-0.0387c0.00012-0.00378-0.00031-0.00757-0.00122-0.01123v-0.04004
		c-0.07703-10.53735-9.35315-19.01257-20.71887-18.93005c-0.00037,0-0.00073,0-0.0011,0h-0.34003
		c-11.36194,0.08252-20.51172,8.68628-20.44,19.22009v0.03992c0,0.02209,0.01788,0.04004,0.03998,0.04004H455.43143z"/>
	<path class="st1" d="M598.64136,1017.12988c5.98004-8.48999-8.90997-12.09998-14.06-13.05994
		c-22.34998-4.14001-42.94-11.23999-37.77002-39.56006c2.65002-14.51001,15.75-23.68994,29.55005-26.45996
		c17.09998-3.44006,38.29999-0.78003,51.44995,11.92993c0.33331,0.32666,0.33667,0.65002,0.01001,0.97009l-18.66998,18.60999
		c-0.41827,0.40955-1.08649,0.40588-1.49249-0.00818c-0.01642-0.01672-0.03223-0.03406-0.04749-0.05188
		c-5.3667-6.29333-12.07007-8.92664-20.11005-7.90002c-2.62,0.33997-4.62335,1.01331-6.00995,2.02002
		c-2.94,2.14001-4.26001,6.65002-1.75,9.76001c1.12665,1.3999,3.50665,2.55664,7.13995,3.46997
		c6.64001,1.66663,13.29004,3.32336,19.95001,4.97009c16.12,3.97998,25.34003,13.47998,25.33002,30.3999
		c-0.02002,19.92004-15.87,29.16003-33.32001,32.18005c-18.58002,3.22998-40.84003,0.92004-55.10999-12.58997
		c-0.2533-0.23999-0.26337-0.48669-0.03003-0.73999l18.92999-21.02002c0.26666-0.30005,0.52667-0.29675,0.78003,0.01001
		c8.60669,10.20667,19.46661,13.28992,32.58002,9.25C596.93805,1019.0166,597.82135,1018.28992,598.64136,1017.12988z"/>
	<path class="st1" d="M704.61139,1017.13989c4.38-6.05005-2.71002-10.02002-7.55005-11.27002
		c-22.00995-5.67993-49.31995-8.05994-44.47998-39.92993c2.33002-15.35999,14.85999-24.79004,29.77002-27.83008
		c17.26001-3.52991,37.77002-0.93994,51.59998,11.93005c0.22357,0.20569,0.23474,0.55688,0.02509,0.78418
		c-0.00488,0.00537-0.00995,0.01062-0.01508,0.01575l-19.01001,18.8501c-0.31897,0.32153-0.841,0.32019-1.16614-0.00305
		c-0.0152-0.01501-0.02985-0.03076-0.04382-0.047c-5.85333-6.8866-13.40668-9.46326-22.66003-7.72998
		c-2.48999,0.45996-5.41998,2.89001-6.33002,5.32996c-2.15997,5.83008,3.58002,8.62,8.85004,9.96008
		c16.16998,4.12,38.58997,5.82996,43.46997,25.53992c2.25336,9.08667,1.24664,17.30005-3.01996,24.64001
		c-10.39001,17.90002-38.61005,19.97998-56.46002,17.38c-8.71997-1.27002-22.07001-5.88-27.72998-13.07996
		c-0.24005-0.30005-0.23004-0.59009,0.02997-0.87l18.73004-20.78003c0.26666-0.29993,0.52661-0.29663,0.77997,0.01001
		c8.58667,10.23328,19.44336,13.31995,32.57001,9.26001C702.89136,1019.0199,703.77136,1018.2998,704.61139,1017.13989z"/>
</g>
</svg>
