<svg xmlns="http://www.w3.org/2000/svg" width="113.696" height="91.298" viewBox="0 0 113.696 91.298">
  <g>
    <path d="M52.811,57.7c-33.51-3.646-32.265-36.4-27.23-44.68C25.755,26.333,35.825,48.905,52.811,57.7Z" fill="#fff"/>
    <path d="M52.811,57.7c-33.51-3.646-32.265-36.4-27.23-44.68C25.755,26.333,35.825,48.905,52.811,57.7Z" fill="#fff"/>
    <path d="M53.622,52.319C26.883,31.774,45.027,4.456,53.622,0,46.821,11.459,43.667,35.97,53.622,52.319Z" fill="#fff"/>
    <path d="M61.956,57.7c33.509-3.617,32.265-36.4,27.23-44.651C89.012,26.333,78.942,48.905,61.956,57.7Z" fill="#fff"/>
    <path d="M61.956,57.7c33.509-3.617,32.265-36.4,27.23-44.651C89.012,26.333,78.942,48.905,61.956,57.7Z" fill="#fff"/>
    <path d="M61.174,52.319c26.739-20.545,8.6-47.863,0-52.319C67.946,11.459,71.1,35.97,61.174,52.319Z" fill="#fff"/>
    <path d="M2.112,84.73a12.021,12.021,0,0,0,7.177,2.315c3.791,0,4.2-1.939,4.2-2.634S12.877,81.6,7.032,81.6A6.083,6.083,0,0,1,.579,75.3c0-4.688,3.559-6.569,8.073-6.569a11.363,11.363,0,0,1,7.9,2.981l-2.6,2.72A7.62,7.62,0,0,0,8.218,72.4c-1.36,0-3.617.405-3.617,2.576,0,1.273.405,2.72,5.18,2.72,5.585,0,7.553,3.617,7.553,6.829,0,3.357-2.373,6.366-8.1,6.366A13.585,13.585,0,0,1,0,87.913Z" fill="#fff"/>
    <path d="M24.626,81.749c0,3.444,3.964,5.5,7.177,5.5a6.871,6.871,0,0,0,5.527-2.315L40.166,88a11.909,11.909,0,0,1-8.19,2.893c-7.379,0-12.24-4.254-12.24-10.591s4.427-11.315,11-11.315c6.221,0,10.649,5.556,10.649,9.781,0,.782.058,2.46,0,2.836ZM37.359,77.9c.057-2.431-2.894-5.209-6.6-5.209A5.806,5.806,0,0,0,24.742,77.9Z" fill="#fff"/>
    <path d="M48.471,81.749c0,3.444,3.964,5.5,7.176,5.5a6.869,6.869,0,0,0,5.527-2.315L64.01,88a11.908,11.908,0,0,1-8.189,2.893c-7.379,0-12.241-4.254-12.241-10.591s4.428-11.315,11-11.315c6.222,0,10.65,5.556,10.65,9.781,0,.782.057,2.46,0,2.836Zm12.7-3.849c.058-2.431-2.893-5.209-6.6-5.209A5.807,5.807,0,0,0,48.557,77.9Z" fill="#fff"/>
    <path d="M72.865,81.749c0,3.444,3.965,5.5,7.177,5.5a6.871,6.871,0,0,0,5.527-2.315L88.405,88a11.909,11.909,0,0,1-8.19,2.893c-7.379,0-12.24-4.254-12.24-10.591s4.427-11.315,11-11.315c6.222,0,10.649,5.556,10.649,9.781,0,.782.058,2.46,0,2.836ZM85.6,77.9c.058-2.431-2.894-5.209-6.6-5.209A5.806,5.806,0,0,0,72.981,77.9Z" fill="#fff"/>
    <path d="M113.523,64.155l-4.63,1.939v6.742h-.087c-1.042-1.591-3.675-3.125-7.206-3.125-5.643,0-10.07,4.312-10.012,10.88,0,5.991,4.138,10.331,9.723,10.331,3.791,0,6.279-1.215,7.582-3.414l.173,3.79h4.63ZM102.237,86.726a6.222,6.222,0,1,1,6.221-6.221A6.212,6.212,0,0,1,102.237,86.726Z" fill="#fff"/>
  </g>
</svg>
