<?xml version="1.0" encoding="utf-8"?>
<!-- Generator: Adobe Illustrator 27.9.0, SVG Export Plug-In . SVG Version: 6.00 Build 0)  -->
<svg version="1.1" id="Layer_1" xmlns="http://www.w3.org/2000/svg" xmlns:xlink="http://www.w3.org/1999/xlink" x="0px" y="0px"
	 viewBox="0 0 86.5 40.9" style="enable-background:new 0 0 86.5 40.9;" xml:space="preserve">
<style type="text/css">
	.st0{fill:#8E6ABA;}
</style>
<g>
	<g>
		<g>
			<g>
				<path class="st0" d="M26.7,18.1H0.1C0,18.9,0,19.7,0,20.5l0,0c0,4.9,1.7,9.4,4.6,12.9c1.4-2.2,3-4.2,4.8-6
					c3.1-3.1,6.8-5.6,10.8-7.3C22.3,19.2,24.5,18.5,26.7,18.1z"/>
			</g>
			<g>
				<path class="st0" d="M20.5,0L20.5,0c-7,0-13.2,3.5-16.9,9h29.9v8.4v0.7v9.2c-8.9,0-16.7,4.9-20.9,12c2.4,1,5.1,1.6,7.9,1.6l0,0
					c11.3,0,20.5-9.2,20.5-20.5l0,0C40.9,9.2,31.8,0,20.5,0z"/>
			</g>
		</g>
	</g>
	<polygon class="st0" points="86.5,8.6 80.1,2.3 68.3,14.1 56.5,2.3 50.1,8.6 62,20.5 50.1,32.3 56.5,38.7 68.3,26.8 80.1,38.7 
		86.5,32.3 74.7,20.5 	"/>
</g>
</svg>
