<?xml version="1.0" encoding="utf-8"?>
<!-- Generator: Adobe Illustrator 25.4.1, SVG Export Plug-In . SVG Version: 6.00 Build 0)  -->
<svg version="1.1" id="Layer_1" xmlns="http://www.w3.org/2000/svg" xmlns:xlink="http://www.w3.org/1999/xlink" x="0px" y="0px"
	 viewBox="0 0 200 50" style="enable-background:new 0 0 200 50;" xml:space="preserve">
<style type="text/css">
	.st0{fill:#FFFFFF;}
</style>
<g>
	<path class="st0" d="M10.3,27.7c0.2,1.3,0.5,2.3,1.1,2.9c1,1.2,2.7,1.8,5.1,1.8c1.4,0,2.6-0.2,3.5-0.5c1.7-0.6,2.5-1.7,2.5-3.3
		c0-0.9-0.4-1.7-1.2-2.2c-0.8-0.5-2.1-0.9-3.9-1.3l-3.1-0.7c-3-0.7-5.1-1.4-6.2-2.2c-1.9-1.3-2.9-3.4-2.9-6.2c0-2.5,0.9-4.7,2.8-6.3
		c1.9-1.7,4.6-2.5,8.3-2.5c3,0,5.6,0.8,7.8,2.4c2.1,1.6,3.3,3.9,3.4,6.9h-5.7c-0.1-1.7-0.9-2.9-2.3-3.6c-1-0.5-2.1-0.7-3.5-0.7
		c-1.6,0-2.8,0.3-3.8,0.9s-1.4,1.5-1.4,2.6c0,1,0.5,1.8,1.4,2.3c0.6,0.3,1.9,0.7,3.8,1.2l5,1.2c2.2,0.5,3.8,1.2,4.9,2.1
		c1.7,1.3,2.5,3.3,2.5,5.8c0,2.6-1,4.8-3,6.5c-2,1.7-4.8,2.6-8.5,2.6c-3.7,0-6.7-0.8-8.8-2.5c-2.1-1.7-3.2-4-3.2-7H10.3z"/>
	<path class="st0" d="M35,15.5v12.7c0,1.2,0.1,2.1,0.4,2.7c0.5,1.1,1.5,1.6,2.9,1.6c1.9,0,3.1-0.8,3.8-2.3c0.4-0.8,0.5-1.9,0.5-3.3
		V15.5h5.6v21H43v-3c-0.1,0.1-0.2,0.3-0.4,0.6s-0.4,0.6-0.7,0.8c-0.9,0.8-1.7,1.3-2.5,1.6c-0.8,0.3-1.7,0.4-2.8,0.4
		c-3.1,0-5.2-1.1-6.3-3.4c-0.6-1.2-0.9-3.1-0.9-5.5V15.5H35z"/>
	<path class="st0" d="M68.2,17.7c1.7,1.8,2.6,4.5,2.6,8c0,3.7-0.8,6.5-2.5,8.5s-3.8,2.9-6.5,2.9c-1.7,0-3.1-0.4-4.2-1.3
		c-0.6-0.5-1.2-1.1-1.8-2v11h-5.4V15.5h5.3v3.1c0.6-0.9,1.2-1.6,1.9-2.2c1.2-0.9,2.7-1.4,4.4-1.4C64.4,15,66.5,15.9,68.2,17.7z
		 M64,21.7c-0.7-1.2-2-1.9-3.6-1.9c-2,0-3.4,0.9-4.2,2.8c-0.4,1-0.6,2.3-0.6,3.8c0,2.4,0.7,4.2,2,5.2c0.8,0.6,1.7,0.9,2.8,0.9
		c1.5,0,2.7-0.6,3.5-1.8c0.8-1.2,1.2-2.8,1.2-4.7C65.1,24.3,64.7,22.9,64,21.7z"/>
	<path class="st0" d="M87.6,15.9c1.5,0.7,2.7,1.7,3.6,3.1c0.9,1.2,1.4,2.7,1.7,4.3c0.1,1,0.2,2.4,0.2,4.2H77.7
		c0.1,2.1,0.8,3.6,2.2,4.4c0.8,0.5,1.9,0.8,3,0.8c1.3,0,2.3-0.3,3.1-1c0.4-0.3,0.8-0.8,1.1-1.4h5.6c-0.1,1.2-0.8,2.5-2,3.8
		c-1.9,2-4.5,3.1-7.9,3.1c-2.8,0-5.3-0.9-7.4-2.6s-3.2-4.5-3.2-8.4c0-3.6,1-6.4,2.9-8.4c1.9-1.9,4.4-2.9,7.5-2.9
		C84.5,14.9,86.1,15.2,87.6,15.9z M79.3,20.6c-0.8,0.8-1.3,1.9-1.5,3.3h9.5c-0.1-1.5-0.6-2.6-1.5-3.3s-2-1.1-3.3-1.1
		C81.2,19.4,80.1,19.8,79.3,20.6z"/>
	<path class="st0" d="M106,15c0.1,0,0.2,0,0.5,0v5.6c-0.3,0-0.7-0.1-0.9-0.1c-0.3,0-0.5,0-0.7,0c-2.2,0-3.7,0.7-4.5,2.2
		c-0.4,0.8-0.6,2.1-0.6,3.7v10.1h-5.5v-21h5.2v3.7c0.8-1.4,1.6-2.4,2.2-2.9c1-0.9,2.4-1.3,4-1.3C105.8,15,105.9,15,106,15z"/>
	<path class="st0" d="M120.6,23c-0.1-0.8-0.4-1.5-0.8-2.1c-0.6-0.8-1.6-1.3-2.9-1.3c-1.9,0-3.1,0.9-3.8,2.8c-0.4,1-0.5,2.3-0.5,3.9
		c0,1.5,0.2,2.8,0.5,3.7c0.7,1.7,1.9,2.6,3.7,2.6c1.3,0,2.2-0.3,2.7-1c0.5-0.7,0.9-1.6,1-2.7h5.6c-0.1,1.7-0.7,3.3-1.8,4.7
		c-1.7,2.4-4.3,3.6-7.7,3.6s-5.9-1-7.5-3c-1.6-2-2.4-4.6-2.4-7.8c0-3.6,0.9-6.4,2.6-8.4c1.8-2,4.2-3,7.3-3c2.6,0,4.8,0.6,6.5,1.8
		c1.7,1.2,2.7,3.3,3,6.3H120.6z"/>
	<path class="st0" d="M146,33.9c-1.8,2.2-4.5,3.3-8.1,3.3s-6.3-1.1-8.1-3.3s-2.7-4.8-2.7-7.9c0-3,0.9-5.7,2.7-7.9
		c1.8-2.2,4.5-3.3,8.1-3.3s6.3,1.1,8.1,3.3c1.8,2.2,2.7,4.9,2.7,7.9C148.7,29.1,147.8,31.7,146,33.9z M141.6,30.9
		c0.9-1.1,1.3-2.8,1.3-4.9c0-2.1-0.4-3.7-1.3-4.9c-0.9-1.1-2.1-1.7-3.7-1.7s-2.8,0.6-3.7,1.7s-1.3,2.8-1.3,4.9
		c0,2.1,0.4,3.7,1.3,4.9c0.9,1.1,2.1,1.7,3.7,1.7S140.7,32,141.6,30.9z"/>
	<path class="st0" d="M167.2,16.7c1.4,1.1,2.1,3,2.1,5.7v14.2h-5.6V23.7c0-1.1-0.1-2-0.4-2.5c-0.5-1.1-1.6-1.6-3.1-1.6
		c-1.9,0-3.1,0.8-3.8,2.4c-0.4,0.8-0.5,1.9-0.5,3.2v11.4h-5.5v-21h5.3v3.1c0.7-1.1,1.4-1.9,2-2.3c1.1-0.8,2.6-1.3,4.3-1.3
		C164,15,165.8,15.5,167.2,16.7z"/>
	<path class="st0" d="M171.1,30.7h5.8v5.8h-5.8V30.7z"/>
	<path class="st0" d="M191,15.6c0-0.5-0.2-0.9-0.5-1.5c-0.6-0.9-1.5-1.3-2.7-1.3c-1.8,0-3.1,1-3.8,3c-0.4,1.1-0.7,2.7-0.8,4.9
		c0.7-0.8,1.5-1.4,2.4-1.8s1.9-0.6,3.1-0.6c2.5,0,4.5,0.8,6.1,2.5c1.6,1.7,2.4,3.8,2.4,6.5c0,2.6-0.8,4.9-2.3,6.9c-1.6,2-4,3-7.3,3
		c-3.5,0-6.1-1.5-7.8-4.4c-1.3-2.3-1.9-5.3-1.9-8.9c0-2.1,0.1-3.9,0.3-5.2c0.3-2.4,0.9-4.4,1.9-5.9c0.8-1.4,1.8-2.4,3.1-3.3
		s2.8-1.2,4.6-1.2c2.6,0,4.7,0.7,6.2,2c1.5,1.3,2.4,3.1,2.6,5.3H191z M184.4,31.3c0.8,1,1.8,1.4,3.1,1.4c1.2,0,2.2-0.5,2.9-1.4
		s1.1-2.1,1.1-3.6c0-1.6-0.4-2.9-1.2-3.8c-0.8-0.9-1.8-1.3-2.9-1.3c-0.9,0-1.8,0.3-2.5,0.8c-1.1,0.8-1.6,2.2-1.6,4.1
		C183.2,29.1,183.6,30.4,184.4,31.3z"/>
</g>
</svg>
