<?xml version="1.0" encoding="utf-8"?>
<!-- Generator: Adobe Illustrator 25.4.1, SVG Export Plug-In . SVG Version: 6.00 Build 0)  -->
<svg version="1.1" id="Layer_1" xmlns="http://www.w3.org/2000/svg" xmlns:xlink="http://www.w3.org/1999/xlink" x="0px" y="0px"
	 viewBox="0 0 212.4 50" style="enable-background:new 0 0 212.4 50;" xml:space="preserve">
<style type="text/css">
	.st0{fill:#FFFFFF;}
	.st1{fill:#FFB123;}
</style>
<g>
	<path class="st0" d="M10,27c0.2,1.5,0.6,2.6,1.3,3.4c1.1,1.4,3.1,2,5.9,2c1.7,0,3-0.2,4.1-0.5c2-0.7,3-2,3-3.8
		c0-1.1-0.5-1.9-1.4-2.5c-1-0.6-2.5-1.1-4.6-1.5l-3.6-0.8c-3.5-0.8-5.9-1.6-7.3-2.5c-2.2-1.5-3.3-3.9-3.3-7.2c0-3,1.1-5.4,3.3-7.4
		c2.2-2,5.4-2.9,9.6-2.9c3.5,0,6.5,0.9,9,2.8c2.5,1.8,3.8,4.5,3.9,8h-6.6c-0.1-2-1-3.4-2.7-4.2c-1.1-0.6-2.5-0.8-4.1-0.8
		c-1.8,0-3.3,0.4-4.4,1.1c-1.1,0.7-1.6,1.7-1.6,3c0,1.2,0.5,2.1,1.6,2.6c0.7,0.4,2.2,0.8,4.4,1.4l5.8,1.4c2.5,0.6,4.5,1.4,5.7,2.4
		c2,1.6,3,3.8,3,6.8c0,3-1.2,5.5-3.5,7.5c-2.3,2-5.6,3-9.9,3c-4.4,0-7.8-1-10.3-3c-2.5-2-3.7-4.7-3.7-8.1H10z"/>
	<path class="st0" d="M38.8,12.7v14.7c0,1.4,0.2,2.4,0.5,3.1c0.6,1.2,1.7,1.9,3.4,1.9c2.2,0,3.7-0.9,4.5-2.6c0.4-1,0.6-2.2,0.6-3.8
		V12.7h6.5v24.5H48v-3.5c-0.1,0.1-0.2,0.3-0.4,0.7c-0.2,0.4-0.5,0.7-0.9,1c-1,0.9-2,1.5-2.9,1.8c-0.9,0.3-2,0.5-3.3,0.5
		c-3.6,0-6-1.3-7.3-3.9c-0.7-1.4-1.1-3.6-1.1-6.4V12.7H38.8z"/>
	<path class="st0" d="M77.4,15.4c2,2.1,3,5.2,3,9.3c0,4.3-1,7.6-2.9,9.9c-2,2.3-4.5,3.4-7.5,3.4c-2,0-3.6-0.5-4.9-1.5
		c-0.7-0.5-1.4-1.3-2.1-2.4v12.8h-6.3V12.7h6.1v3.6c0.7-1.1,1.4-1.9,2.2-2.5c1.4-1.1,3.1-1.6,5.1-1.6C72.9,12.2,75.4,13.3,77.4,15.4
		z M72.4,20c-0.9-1.5-2.3-2.2-4.2-2.2c-2.3,0-4,1.1-4.8,3.3c-0.5,1.2-0.7,2.6-0.7,4.4c0,2.8,0.8,4.8,2.3,6c0.9,0.7,2,1,3.2,1
		c1.8,0,3.2-0.7,4.1-2.1c0.9-1.4,1.4-3.2,1.4-5.5C73.8,23.1,73.3,21.4,72.4,20z"/>
	<path class="st0" d="M99.9,13.2c1.7,0.8,3.1,2,4.2,3.6c1,1.5,1.7,3.1,1.9,5.1c0.2,1.1,0.2,2.7,0.2,4.9H88.5c0.1,2.5,1,4.2,2.6,5.2
		c1,0.6,2.2,0.9,3.5,0.9c1.5,0,2.6-0.4,3.6-1.1c0.5-0.4,0.9-1,1.3-1.7h6.5c-0.2,1.5-1,2.9-2.4,4.4c-2.2,2.4-5.3,3.6-9.2,3.6
		c-3.3,0-6.1-1-8.6-3S82,29.8,82,25.2c0-4.2,1.1-7.5,3.4-9.8c2.2-2.3,5.2-3.4,8.7-3.4C96.3,12.1,98.2,12.5,99.9,13.2z M90.3,18.8
		c-0.9,0.9-1.5,2.2-1.7,3.8h11c-0.1-1.7-0.7-3-1.7-3.9c-1-0.9-2.3-1.3-3.8-1.3C92.5,17.4,91.2,17.8,90.3,18.8z"/>
	<path class="st0" d="M121.3,12.2c0.1,0,0.3,0,0.5,0v6.6c-0.4,0-0.8-0.1-1.1-0.1c-0.3,0-0.6,0-0.8,0c-2.6,0-4.3,0.8-5.2,2.5
		c-0.5,0.9-0.7,2.4-0.7,4.4v11.7h-6.4V12.7h6.1V17c1-1.6,1.8-2.7,2.6-3.3c1.2-1,2.8-1.5,4.7-1.5C121.1,12.2,121.2,12.2,121.3,12.2z"
		/>
	<path class="st0" d="M138.4,21.5c-0.1-0.9-0.4-1.7-0.9-2.5c-0.7-1-1.8-1.5-3.4-1.5c-2.2,0-3.6,1.1-4.4,3.2
		c-0.4,1.1-0.6,2.6-0.6,4.5c0,1.8,0.2,3.2,0.6,4.3c0.8,2,2.2,3.1,4.3,3.1c1.5,0,2.6-0.4,3.2-1.2c0.6-0.8,1-1.9,1.1-3.1h6.5
		c-0.1,1.9-0.9,3.8-2.1,5.5c-2,2.8-5,4.2-8.9,4.2c-3.9,0-6.8-1.2-8.7-3.5c-1.9-2.3-2.8-5.4-2.8-9.1c0-4.2,1-7.5,3.1-9.8
		c2.1-2.3,4.9-3.5,8.5-3.5c3.1,0,5.6,0.7,7.5,2.1c2,1.4,3.1,3.8,3.5,7.3H138.4z"/>
	<path class="st0" d="M167.9,34.2c-2.1,2.5-5.2,3.8-9.4,3.8c-4.2,0-7.3-1.3-9.4-3.8c-2.1-2.5-3.1-5.6-3.1-9.2c0-3.5,1-6.6,3.1-9.2
		c2.1-2.6,5.2-3.9,9.4-3.9c4.2,0,7.3,1.3,9.4,3.9c2.1,2.6,3.1,5.6,3.1,9.2C171,28.6,169.9,31.7,167.9,34.2z M162.7,30.7
		c1-1.3,1.5-3.2,1.5-5.7c0-2.5-0.5-4.3-1.5-5.7c-1-1.3-2.4-2-4.3-2c-1.9,0-3.3,0.7-4.3,2c-1,1.3-1.5,3.2-1.5,5.7
		c0,2.5,0.5,4.3,1.5,5.7c1,1.3,2.5,2,4.3,2C160.3,32.7,161.7,32,162.7,30.7z"/>
	<path class="st0" d="M192.5,14.1c1.6,1.3,2.4,3.5,2.4,6.6v16.5h-6.6V22.3c0-1.3-0.2-2.3-0.5-3c-0.6-1.3-1.8-1.9-3.6-1.9
		c-2.2,0-3.6,0.9-4.4,2.8c-0.4,1-0.6,2.2-0.6,3.7v13.2h-6.4V12.8h6.2v3.6c0.8-1.3,1.6-2.2,2.3-2.7c1.3-1,3-1.5,5-1.5
		C188.9,12.2,190.9,12.8,192.5,14.1z"/>
	<path class="st0" d="M197.1,30.5h6.8v6.7h-6.8V30.5z"/>
	<path class="st1" d="M203.8,11.3c0-0.1,0-0.2-0.1-0.4c-0.1-0.2-0.4-0.3-0.6-0.3c-0.4,0-0.7,0.2-0.9,0.7c-0.1,0.3-0.2,0.7-0.2,1.2
		c0.2-0.2,0.4-0.3,0.6-0.4c0.2-0.1,0.5-0.1,0.7-0.1c0.6,0,1.1,0.2,1.5,0.6c0.4,0.4,0.6,0.9,0.6,1.5c0,0.6-0.2,1.2-0.6,1.6
		c-0.4,0.5-0.9,0.7-1.7,0.7c-0.8,0-1.5-0.4-1.9-1.1c-0.3-0.5-0.5-1.3-0.5-2.1c0-0.5,0-0.9,0.1-1.2c0.1-0.6,0.2-1,0.4-1.4
		c0.2-0.3,0.4-0.6,0.7-0.8c0.3-0.2,0.7-0.3,1.1-0.3c0.6,0,1.1,0.2,1.5,0.5c0.4,0.3,0.6,0.7,0.6,1.3H203.8z M202.2,15.1
		c0.2,0.2,0.4,0.3,0.7,0.3c0.3,0,0.5-0.1,0.7-0.3c0.2-0.2,0.3-0.5,0.3-0.9c0-0.4-0.1-0.7-0.3-0.9c-0.2-0.2-0.4-0.3-0.7-0.3
		c-0.2,0-0.4,0.1-0.6,0.2c-0.3,0.2-0.4,0.5-0.4,1C201.9,14.5,202,14.8,202.2,15.1z"/>
	<path class="st1" d="M202.9,19.1c-3.4,0-6.1-2.7-6.1-6.1s2.7-6.1,6.1-6.1S209,9.6,209,13S206.3,19.1,202.9,19.1z M202.9,8
		c-2.7,0-5,2.2-5,5s2.2,5,5,5s5-2.2,5-5S205.6,8,202.9,8z"/>
</g>
</svg>
